/* XPM */
static char *_2c4f37f1a65483dc99d88cc3bbc124ez25oCXfRKelfW5M6[] = {
/* columns rows colors chars-per-pixel */
"64 64 28 1 ",
"  c #20A6D9",
". c #24A6D9",
"X c #35A7D8",
"o c #53ADCF",
"O c #45A8D6",
"+ c #4BA8D5",
"@ c #56A9D4",
"# c #5CA9D3",
"$ c #72ACCF",
"% c #77ADCE",
"& c #7AADCD",
"* c #A8B5BF",
"= c #AEB6BD",
"- c #B3B7BB",
"; c #B6B7B9",
": c #B0B6BC",
"> c gray72",
", c #D9BFA6",
"< c #D4BEAA",
"1 c #D0BDAC",
"2 c #C4BAB2",
"3 c #E4C29F",
"4 c #DEC0A3",
"5 c #E1C1A1",
"6 c #92B1C7",
"7 c #97B1C5",
"8 c #A7B4C0",
"9 c #C6DFE8",
/* pixels */
"3333333333333333333333333333333333333333333333333333333333333333",
"3333333333333333333333333333333333333333333333333333333333333333",
"3333333333333333333333333333333333333333333333333333333333333333",
"333333333333333333333333333333   3333333333333333333333333333333",
"3333333333333333333333333333ooo   333333333333333333333333333333",
"333333333333333333333333333oooo    33333333333333333333333333333",
"3333333333333333333333333oooooo     3333333333333333333333333333",
"3333333333333333333333333ooooo       333333333333333333333333333",
"333333333333333333333333ooooo        333333333333333333333333333",
"333333333333333333333333ooooo         33333333333333333333333333",
"3333333333333333333333oooooo           3333333333333333333333333",
"3333333333333333333333oooooo           3333333333333333333333333",
"333333333333333333333oooooo             333333333333333333333333",
"33333333333333333333ooooooo       999   333333333333333333333333",
"33333333333333333333oooooo        999    33333333333333333333333",
"33333333333333333333oooooo        99999   3333333333333333333333",
"3333333333333333333oooooo           999   3333333333333333333333",
"3333333333333333333oooooo           999    333333333333333333333",
"333333333333333333ooooooo             999  333333333333333333333",
"333333333333333333oooooo              999   33333333333333333333",
"33333333333333333oooooo   .           9999  33333333333333333333",
"33333333333333333oooooo                999   3333333333333333333",
"33333333333333333ooooo                 9999   333333333333333333",
"3333333333333333oooooo                  999    33333333333333333",
"3333333333333333ooooo                   999    33333333333333333",
"3333333333333333ooooo                           3333333333333333",
"333333333333333ooooo                            3333333333333333",
"333333333333333ooooo                             333333333333333",
"333333333333333ooooo                             333333333333333",
"333333333333333ooooo                             333333333333333",
"333333333333333ooo                               333333333333333",
"333333333333333ooo                                33333333333333",
"33333333333333<ooo                                33333333333333",
"33333333333333;ooo                                33333333333333",
"333333333333337ooo                                33333333333333",
"33333333333333%ooo                                33333333333333",
"33333333333333@ooo                               @33333333333333",
"33333333333333Xooo                               X33333333333333",
"33333333333333oooo                                33333333333333",
"33333333333333oooo                               X33333333333333",
"33333333333333oooo                               @33333333333333",
"33333333333333%ooo                               %33333333333333",
"333333333333337oooo                        999   733333333333333",
"33333333333333;oooo                        999   ;33333333333333",
"33333333333333<oooo                       9999   <33333333333333",
"333333333333333&oooo                      999   &333333333333333",
"333333333333333-oooo                     9999   -333333333333333",
"3333333333333334#oooo                    999   #4333333333333333",
"3333333333333333=oooo                   9999   =3333333333333333",
"33333333333333335&oooo                99999   &53333333333333333",
"333333333333333332Oooo              9999999  O233333333333333333",
"333333333333333333:ooo         9999999999    :333333333333333333",
"33333333333333333338           99999999     83333333333333333333",
"33333333333333333335*          999999      *53333333333333333333",
"333333333333333333333;#                  #;333333333333333333333",
"333333333333333333333316                613333333333333333333333",
"33333333333333333333333326.          .62333333333333333333333333",
"33333333333333333333333333,>7$+..+$7>,33333333333333333333333333",
"3333333333333333333333333333333333333333333333333333333333333333",
"3333333333333333333333333333333333333333333333333333333333333333",
"3333333333333333333333333333333333333333333333333333333333333333",
"3333333333333333333333333333333333333333333333333333333333333333",
"3333333333333333333333333333333333333333333333333333333333333333",
"3333333333333333333333333333333333333333333333333333333333333333"
};
