/* XPM */
static char *_bbe1fbe734149b6c21511e4f5f6e6673cPJDKCfHJNu0wPl[] = {
/* columns rows colors chars-per-pixel */
"64 64 6 1 ",
"  c black",
". c #416C16",
"X c #6C5129",
"o c #5A9A1D",
"O c #749C5C",
"+ c #E4C29F",
/* pixels */
"+++++++++++++++++++++++++++XXX++XXX+++XXX+++++++++++++++++++++++",
"+++++++++++++++++++++++++++XXX++XXX+++XXX+++++++++++++++++++++++",
"+++++++++++++++++++++++++++XXX++XXX+++XXX+++++++++++++++++++++++",
"+++++++++++++++++++++++++++XXX++XXX+++XXX+++++++++++++++++++++++",
"+++++++++++++++++++++++++++XXX++XXX+++XXX+++++++++++++++++++++++",
"+++++++++++++++++++++++++++XXXX+XXX+XXXXX+++++++++++++++++++++++",
"+++++++++++++++++++++++++   XX   XX   X+++++++++++++++++++++++++",
"+++++++++++++++++++++++    ...   XX   X   ++++++++++++++++++++++",
"+++++++++++++++++++++++    ...      ...   ++++++++++++++++++++++",
"+++++++++++++++++++++++   ......   ....   ++++++++++++++++++++++",
"++++++++++++++++++++   ooo................   +++++++++++++++++++",
"++++++++++++++++++++   ooo................   +++++++++++++++++++",
"++++++++++++++++++++   ooo...ooo...ooo....   +++++++++++++++++++",
"++++++++++++++++++++   ooo...ooo...ooo...O   ++++++++      +++++",
"++++++++++++++++++++   ooo...ooo...oooOOOO   ++++++++      +++++",
"++++++++++++++++++++   ooo...ooo...oooOOOO   ++++++++      +++++",
"++++++++++++++++++++   ooo...ooo...oooOOOO   +++++   OOO...   ++",
"++++++++++++++++++++   ooo   ooo...oo   OO   +++++   OOO...   ++",
"++++++++++++++++++++   ooo   ooo...oo   OO   +++++   OOO...   ++",
"++++++++++++++++++++   ooo   ooo...oo   OO   +++++   OOO...   ++",
"++++++++++++++++++++   ooo...ooo...oooOOOO   +++++   OOO...   ++",
"++++++++++++++++++++   ooo...ooo...oooOOOO   +++++   OOO...   ++",
"++++++++               ooo...ooo...oooO...           ooo...   ++",
"++++++++               ooo...ooo...oooO...           ooo...   ++",
"++++++++               ooo...ooo...oooO...           ooo...   ++",
"+++++   ...............ooo...ooo   oooOOOOoooooooooooooo...   ++",
"+++++   ...............ooo...ooo   oooOOOOoooooooooooooo...   ++",
"+++++   .........OOOOOOooo...ooo   oooOOOOoooooooooooooo...   ++",
"+++++   ...ooooooOOOOOOooo...ooo   oooOOO..................   ++",
"+++++   ...ooooooOOOOOOooo...ooo   oooOOO..................   ++",
"+++++   ...ooo         ooo...ooo   oooOOO..................   ++",
"+++++   ...ooo         ooo...ooo   oooO...                 +++++",
"+++++   ...ooo         ooo...oooooooooO...                 +++++",
"+++++   ...ooo   +++   ooo...oooooooooO...                 +++++",
"+++++   ...ooo   +++   ooo....ooooooo..OOO   +++++++++++++++++++",
"+++++   ...ooo   +++   ooo....ooooooo..OOO   +++++++++++++++++++",
"+++++   ...OOO   +++   ooo....ooooooo..OOO   +++++++++++++++++++",
"+++++   ...OOO   +++   ooo....oo...oo..OOO   +++++++++++++++++++",
"+++++   ...OOO   +++   ooo....oo...oo..OOO   +++++++++++++++++++",
"+++++   ...OOO   +++   ooo....oo...oo..OOO   +++++++++++++++++++",
"+++++         ++++++   ooo....oo...oo...OO   +++++++++++++++++++",
"+++++         ++++++   ooo....oo...oo...OO   +++++++++++++++++++",
"+++++         ++++++   ooo....oo...oo...OO   +++++++++++++++++++",
"++++++++++++++++++++   ooo....oo...oo...OO         +++++++++++++",
"++++++++++++++++++++   ooo....oo...oo...OO         +++++++++++++",
"++++++++++++++++++++   ooo....oo...oo...OO         +++++++++++++",
"++++++++++++++++++++   ooo....oo...oo...O...oooooo    ++++++++++",
"++++++++++++++++++++   ooo....oo...oo...O...oooooo    ++++++++++",
"++++++++++++++++++++   ooo....oo...oo...O...oooooo    ++++++++++",
"++++++++++++++++++++   ooo...ooo...oo...OOOOooooooo      +++++++",
"++++++++++++++++++++   ooo...ooo...oo...OOOOO...ooooo    +++++++",
"++++++++++++++         ooo...ooo...oo...OOOOO...ooooo    +++++++",
"++++++++++++++         ooo...ooo...oo...OOOOO...oooooo   +++++++",
"++++++++++++++         OOO...ooo                ...ooo   +++++++",
"+++++++++++   oooooooooOOO...ooo                ...ooo   +++++++",
"+++++++++++   oooooooooOOO...ooo                ...ooo   +++++++",
"+++++++++++   ooooooooo......ooo   ++++++++++   ...ooo   +++++++",
"+++++++++++            ......ooo   ++++++++++   ...ooo   +++++++",
"+++++++++++            ......ooo   ++++++++++   ..oooo   +++++++",
"+++++++++++                     +++++++++++++    .ooo    +++++++",
"+++++++++++++++++               +++++++++++++    .ooo    +++++++",
"+++++++++++++++++               ++++++++++++++++      ++++++++++",
"++++++++++++++++++++++++++++++++++++++++++++++++      ++++++++++",
"++++++++++++++++++++++++++++++++++++++++++++++++      ++++++++++"
};
