/* XPM */
static char *_c920e4090d14b9ce0af9aabde9fd9593IbB5ogaCnboYH1h[] = {
/* columns rows colors chars-per-pixel */
"64 64 6 1 ",
"  c black",
". c #416C16",
"X c #6C5129",
"o c #5A9A1D",
"O c #749C5C",
"+ c #E4C29F",
/* pixels */
"+++++++++++++++++++++++XXX+++XXX++XXX+++++++++++++++++++++++++++",
"+++++++++++++++++++++++XXX+++XXX++XXX+++++++++++++++++++++++++++",
"+++++++++++++++++++++++XXX+++XXX++XXX+++++++++++++++++++++++++++",
"+++++++++++++++++++++++XXX+++XXX++XXX+++++++++++++++++++++++++++",
"+++++++++++++++++++++++XXX+++XXX++XXX+++++++++++++++++++++++++++",
"+++++++++++++++++++++++XXXXX+XXX+XXXX+++++++++++++++++++++++++++",
"+++++++++++++++++++++++++X   XX   XX   +++++++++++++++++++++++++",
"++++++++++++++++++++++   X   XX   ...    +++++++++++++++++++++++",
"++++++++++++++++++++++   ...      ...    +++++++++++++++++++++++",
"++++++++++++++++++++++   ....   ......   +++++++++++++++++++++++",
"+++++++++++++++++++   ................ooo   ++++++++++++++++++++",
"+++++++++++++++++++   ................ooo   ++++++++++++++++++++",
"+++++++++++++++++++   ....ooo...ooo...ooo   ++++++++++++++++++++",
"+++++++++++++++++++   O...ooo...ooo...ooo   ++++++++++++++++++++",
"+++++++++++++++++++   OOOOooo...ooo...ooo   ++++++++++++++++++++",
"+++++++++++++++++++   OOOOooo...ooo...ooo   ++++++++++++++++++++",
"+++++++++++++++++++   OOOOooo...ooo...ooo   ++++++++++++++++++++",
"+++++++++++++++++++   OO   oo...ooo   ooo   ++++++++++++++++++++",
"+++++++++++++++++++   OO   oo...ooo   ooo   ++++++++++++++++++++",
"+++++++++++++++++++   OO   oo...ooo   ooo   ++++++++++++++++++++",
"+++++++++++++++++++   OOOOooo...ooo...ooo   ++++++++++++++++++++",
"+++++++++++++++++++   OOOOooo...ooo...ooo   ++++++++++++++++++++",
"+++++                 ...Oooo...ooo...ooo               ++++++++",
"+++++                 ...Oooo...ooo...ooo               ++++++++",
"+++++                 ...Oooo...ooo...ooo               ++++++++",
"+++++  .............ooOOOOooo   ooo...ooo...............   +++++",
"+++++  .............ooOOOOooo   ooo...ooo...............   +++++",
"+++++  .............ooOOOOooo   ooo...oooOOOOOO.........   +++++",
"++++   ..ooooooooo.....OOOooo   ooo...oooOOOOOOoooooo...   +++++",
"++++   ..ooooooooo.....OOOooo   ooo...oooOOOOOOoooooo...   +++++",
"++++   ..ooooooooo.....OOOooo   ooo...ooo         ooo...   +++++",
"++++   .oooo          ...Oooo   ooo...ooo         ooo...   +++++",
"++++   .oooo          ...Oooooooooo...ooo         ooo...   +++++",
"++++   .oooo          ...Oooooooooo...ooo   +++   ooo...   +++++",
"++++   .OOOO   ++++   OOO..ooooooo....ooo   +++   ooo...   +++++",
"++++   .OOOO   ++++   OOO..ooooooo....ooo   +++   ooo...   +++++",
"++++   .OOOO   ++++   OOO..ooooooo....ooo   +++   OOO...   +++++",
"++++        +++++++   OOO..oo...oo....ooo   +++   OOO...   +++++",
"++++        +++++++   OOO..oo...oo....ooo   +++   OOO...   +++++",
"+++++       +++++++   OOO..oo...oo....ooo   +++   OOO...   +++++",
"+++++++++++++++++++   OO...oo...oo....ooo   ++++++         +++++",
"+++++++++++++++++++   OO...oo...oo....ooo   ++++++         +++++",
"+++++++++++++++++++   OO...oo...oo....ooo   ++++++         +++++",
"+++++++++++++         OO...oo...oo....ooo      +++++++++++++++++",
"+++++++++++++         OO...oo...oo....ooo             ++++++++++",
"+++++++++++++         OO...oo...oo....ooo             ++++++++++",
"++++++++++    oooooo...O...oo...oo....oooooooo         +++++++++",
"++++++++++    oooooo...O...oo...oo....oooooooooooooo     +++++++",
"++++++++++    oooooo...O...oo...oo....oooooooooooooo     +++++++",
"+++++++      oooooooOOOO...oo...ooo...ooo.....oooooooo    ++++++",
"+++++++    ooooo...OOOOO...oo...ooo...ooo..........oooo   ++++++",
"+++++++    ooooo...OOOOO...oo...ooo...ooo..........oooo   ++++++",
"+++++++   oooooo...OOOOO...oo...ooo...ooo...........ooo   ++++++",
"+++++++   ooo...                                ....ooo   ++++++",
"+++++++   ooo...                                ....ooo   ++++++",
"+++++++   ooo...                                ....ooo   ++++++",
"+++++++   ooo...   ++++++++++++++++++++++++++   ....ooo   ++++++",
"+++++++   ooo...   ++++++++++++++++++++++++++    ...ooo   ++++++",
"+++++++   oooo..   +++++++++++++++++++++++++++   ...ooo   ++++++",
"+++++++    ooo.    +++++++++++++++++++++++++++            ++++++",
"+++++++    ooo.    +++++++++++++++++++++++++++          ++++++++",
"++++++++++      ++++++++++++++++++++++++++++++          ++++++++",
"++++++++++      ++++++++++++++++++++++++++++++        ++++++++++",
"++++++++++      ++++++++++++++++++++++++++++++++++++++++++++++++"
};
