/* XPM */
static char *_67f4fd2026e4121b972d8c4162c3faaVdzUgcxeQZ3z9wvC[] = {
/* columns rows colors chars-per-pixel */
"64 64 6 1 ",
"  c black",
". c #416C16",
"X c #6C5129",
"o c #5A9A1D",
"O c #749C5C",
"+ c #E4C29F",
/* pixels */
"+++++++++++++++++++++++XXX+++XXX++XXX+++++++++++++++++++++++++++",
"+++++++++++++++++++++++XXX+++XXX++XXX+++++++++++++++++++++++++++",
"+++++++++++++++++++++++XXX+++XXX++XXX+++++++++++++++++++++++++++",
"+++++++++++++++++++++++XXX+++XXX++XXX+++++++++++++++++++++++++++",
"+++++++++++++++++++++++XXX+++XXX++XXX+++++++++++++++++++++++++++",
"+++++++++++++++++++++++XXXXX+XXX+XXXX+++++++++++++++++++++++++++",
"+++++++++++++++++++++++++X   XX   XX   +++++++++++++++++++++++++",
"++++++++++++++++++++++   X   XX   ...    +++++++++++++++++++++++",
"++++++++++++++++++++++   ...      ...    +++++++++++++++++++++++",
"++++++++++++++++++++++   ....   ......   +++++++++++++++++++++++",
"+++++++++++++++++++   ................ooo   ++++++++++++++++++++",
"+++++++++++++++++++   ................ooo   ++++++++++++++++++++",
"+++++++++++++++++++   ....ooo...ooo...ooo   ++++++++++++++++++++",
"+++++      ++++++++   O...ooo...ooo...ooo   ++++++++++++++++++++",
"+++++      ++++++++   OOOOooo...ooo...ooo   ++++++++++++++++++++",
"+++++      ++++++++   OOOOooo...ooo...ooo   ++++++++++++++++++++",
"++   ...OOO   +++++   OOOOooo...ooo...ooo   ++++++++++++++++++++",
"++   ...OOO   +++++   OO   oo...ooo   ooo   ++++++++++++++++++++",
"++   ...OOO   +++++   OO   oo...ooo   ooo   ++++++++++++++++++++",
"++   ...OOO   +++++   OO   oo...ooo   ooo   ++++++++++++++++++++",
"++   ...OOO   +++++   OOOOooo...ooo...ooo   ++++++++++++++++++++",
"++   ...OOO   +++++   OOOOooo...ooo...ooo   ++++++++++++++++++++",
"++   ...ooo           ...Oooo...ooo...ooo               ++++++++",
"++   ...ooo           ...Oooo...ooo...ooo               ++++++++",
"++   ...ooo           ...Oooo...ooo...ooo               ++++++++",
"++   ...ooooooooooooooOOOOooo   ooo...ooo...............   +++++",
"++   ...ooooooooooooooOOOOooo   ooo...ooo...............   +++++",
"++   ...ooooooooooooooOOOOooo   ooo...oooOOOOOO.........   +++++",
"++   ..................OOOooo   ooo...oooOOOOOOoooooo...   +++++",
"++   ..................OOOooo   ooo...oooOOOOOOoooooo...   +++++",
"++   ..................OOOooo   ooo...ooo         ooo...   +++++",
"+++++                 ...Oooo   ooo...ooo         ooo...   +++++",
"+++++                 ...Oooooooooo...ooo         ooo...   +++++",
"+++++                 ...Oooooooooo...ooo   +++   ooo...   +++++",
"+++++++++++++++++++   OOO..ooooooo....ooo   +++   ooo...   +++++",
"+++++++++++++++++++   OOO..ooooooo....ooo   +++   ooo...   +++++",
"+++++++++++++++++++   OOO..ooooooo....ooo   +++   OOO...   +++++",
"+++++++++++++++++++   OOO..oo...oo....ooo   +++   OOO...   +++++",
"+++++++++++++++++++   OOO..oo...oo....ooo   +++   OOO...   +++++",
"+++++++++++++++++++   OOO..oo...oo....ooo   +++   OOO...   +++++",
"+++++++++++++++++++   OO...oo...oo....ooo   ++++++         +++++",
"+++++++++++++++++++   OO...oo...oo....ooo   ++++++         +++++",
"+++++++++++++++++++   OO...oo...oo....ooo   ++++++         +++++",
"+++++++++++++         OO...oo...oo....ooo   ++++++++++++++++++++",
"+++++++++++++         OO...oo...oo....ooo   ++++++++++++++++++++",
"+++++++++++++         OO...oo...oo....ooo   ++++++++++++++++++++",
"++++++++++    oooooo...O...oo...oo....ooo   ++++++++++++++++++++",
"++++++++++    oooooo...O...oo...oo....ooo   ++++++++++++++++++++",
"++++++++++    oooooo...O...oo...oo....ooo   ++++++++++++++++++++",
"+++++++      oooooooOOOO...oo...ooo...ooo   ++++++++++++++++++++",
"+++++++    ooooo...OOOOO...oo...ooo...ooo   ++++++++++++++++++++",
"+++++++    ooooo...OOOOO...oo...ooo...ooo         ++++++++++++++",
"+++++++   oooooo...OOOOO...oo...ooo...ooo         ++++++++++++++",
"+++++++   ooo...                ooo...OOO         ++++++++++++++",
"+++++++   ooo...                ooo...OOOooooooooo   +++++++++++",
"+++++++   ooo...                ooo...OOOooooooooo   +++++++++++",
"+++++++   ooo...   ++++++++++   ooo......ooooooooo   +++++++++++",
"+++++++   ooo...   ++++++++++   ooo......            +++++++++++",
"+++++++   oooo..   ++++++++++   ooo......            +++++++++++",
"+++++++    ooo.    +++++++++++++                     +++++++++++",
"+++++++    ooo.    +++++++++++++               +++++++++++++++++",
"++++++++++      ++++++++++++++++               +++++++++++++++++",
"++++++++++      ++++++++++++++++++++++++++++++++++++++++++++++++",
"++++++++++      ++++++++++++++++++++++++++++++++++++++++++++++++"
};
