/* XPM */
static char *_739a5f8848f43458649f488c2bc32deRF3hp1AjS5Bezqk6[] = {
/* columns rows colors chars-per-pixel */
"64 64 14 1 ",
"  c #2C2A38",
". c #6B3E31",
"X c #7D5048",
"o c #845A2B",
"O c #A36C4F",
"+ c #C88B57",
"@ c #E7B195",
"# c #DDADA4",
"$ c #EBC283",
"% c #E4C29F",
"& c #F9C994",
"* c #FCE6CE",
"= c #F0ECE5",
"- c white",
/* pixels */
"      %%%%%%%%%%%%%%%%%%%%%%%%%%%%%%%%%%%%%%%%%%%%%%            ",
"         %%%%%%%%%%%%%%%%%%%%%%%%%%%%%%%%%%%%%%%%               ",
"   XXX   %%%%%%%%%%%%%%%%%%%%%%%%%%%%%%%%%%%%%%%%      XXXXXXX  ",
"   XXX      %%%%%%%%%%%%%%%%%%%%%%%%%%%%%%%%%%%%%   XXXX&&&XXX  ",
"   XXXXXX   %%%%%%%%%%%%%%%%%%%%%%%%%%%%%%%%%%%     XXX&&&&XXX  ",
"   X&&XXX     %%%%%%%%%%%%%%%%ooo%%%%%%%%%%%%%%   XXX&&&&&&XXXX ",
" XXX&&XXXXX   %%%%%%%%%%%%%%%%ooo%%%%%%%%%%%%     XX&&&&&&$&XXX ",
" XXX&&XXXXX     %%%%%%%%%%%%%%ooo%%%%%%%%%%%%   XXXX&&&&###&XXX ",
" XXX&&&&&&&&X   %%%%%%%%%%%%%%%%%%%%%%%%%%%     XX&&&&&$###&&&  ",
" XXX&&&&&&&&X     %%%%%%%%%%%%%%%%%%%%%%%%%   XXXX&&&$#####&XXX ",
" XXX&&&&&&&&XXX   %%%%%%%%%%%%%%%%%%%%%%%%    XX&&&&#######&XXX ",
" XX&&&#####&XXX     %%%%%%%%%%%%%%%%%%%%     XXX&&&@#######&XXX ",
" XX&&&#####&XXXXX   %%%%%%%%%%%%%%%%%%%%     X&&&&&@#######&&&  ",
" XX&&&#####&&XXXXX   &%%%%%%%%%%%%%%%%%%   XXX&&&@@@@#####$&&&  ",
" XXX$######&&XXXXX   &%%%%%%%%%%%%%%%%%   XX&&&&&@@@@######&XXX ",
" &&&$#######&&&XXX     %%%%%%%%%%%%%%%%   XXX&&@@@@@@@#####&XXX ",
"XXXX$#######@&&&XXXX   %%%%%%%%%%%%%%%%   XXX&&@@@@@@@#####&XXX ",
"XXXX&#######@&&&XXXX   %%%%%%%%%%%%%%%    XXX&@@@@@@@@@@@@@&&&  ",
" XXX&#####@@@@&&XXXX    %%%%%%%%%%%%%%     &&&@@@@@@@@@@@@@&XXX ",
" X&&&@@@@@@@@@@&&&XXX     %%%%%%%%%%%    XX&&&OO@@@@@@@@@@@&XXX ",
" XX&&&@@@@@@@@@&&&XXX       %%%%%%      XXX&&&OOO@@@@@@@@@&&XXX ",
" XX&&&@@@@@@@@@O&&XXXX&                 XXX&&&OOO@@@@@@@@@&&&X  ",
" X&&&&@@@@@@@OOO&&XXXXX++            +++XXX&&OOOOOO@@@@@@@&&&X  ",
" XXX&@@@@@@@%OOOO&&&XXX++++        +++++XXX&&OOOOOOOOOO@@@&XXX  ",
" XXX&&@@@@@OOOOO&&&&XXXXX++++++++++++++&XXX&&OOOOOOOOOOOO&&XXX  ",
" XXX&&@@@@@OOOOO&&&XXXXXX++++++++++++&&&XXXXXOOOOOOOOOOOO&&XXX  ",
"   &&&@@OOOOOOOO&&&XXXXXX&&&++++++&&&&&&XXXXX&&OOOOOOOOO&&XXX   ",
"   XXXOOOOOOOOO&&&XXXXXXX&&&&&&&&&&&&&&&&XXXX&&&&OOOOOOO&&XXX   ",
"   XX&&&OOOOOOO&&&XXXXXXX&&&&&&&&&&&&&&&&XXXXX&&&OOOOOO&&&XXX   ",
"   XX&&&OOOOO&&&&&XXXXXXX&&&&&&&&&&&&&&&&&&XXX&&&&&OOOO&&&XXX   ",
"    X&&&OOOO&&&&XXXXXXX+++&&&&&&&&&&&&+++&&XXXXX&&&OOOO&&&XX%   ",
"    XX&&&OOO&&&&XXXXX++++++&&&&&&&&&+++++++++XXX&&&&OOO&XXXX   %",
"%   XX&&&OO&&&&XXX+++++++++***&&&***+++++++++XXXX&&&&&&&XXXX   %",
"%%   X&&&OO&&&X++++++++++++***&&&***+++++++++++XX&&&&&&&XXX    %",
"%%   XX&&&&&&&X++++++......*********......+++++XXXX&&&XXXXX   %%",
"%%   XXXXX&&XXX+++............***...........+++&&XXXXXXXXX    %%",
"%%%   XXXX&&XX&+++............***............+++&XXXXXXXX%   %%%",
"%%%   XXXXXXXX++++...---   ...***...   ---...+++OOOXXXXXX    %%%",
"%%%   &XXXXX&&+++&...---   ...***...   ---...+++OOOXXX%     %%%%",
"%%%%   XXX&&%%%++&...---   ...***...   ---...&&%%%OO%       %%%%",
"%%%%   %OO&&%%%&&&...      ...***...   %%%&&&&&%%%O       %%%%%%",
"%%%%   %OOOO%%%&&&&&&.........***.........&&&&&%%%O     %%%%%%%%",
"%%%%%%   OOOO&&&&&&&&.........***.........&&&&&&OOO   %%%%%%%%%%",
"%%%%%%   %OOO&&&&&&&&.........***.........&&&&&OOOO   %%%%%%%%%%",
"%%%%%%   %OOOO&&&&&&&+++***************+++&&&&&OOOO   %%%%%%%%%%",
"%%%%%%%   %OOOO&&&&&&+++***************+++&&&&&OOO   %%%%%%%%%%%",
"%%%%%%%   %OOOOOO&&&&+++***************+++&&&&OOO%   %%%%%%%%%%%",
"%%%%%%%      OOOO&+++*******       *******+++&OO     %%%%%%%%%%%",
"%%%%%%%%%%   %OOOO+++*******       *******++OOOO   %%%%%%%%%%%%%",
"%%%%%%%%%%     %OO+++*******       *******++OOO    %%%%%%%%%%%%%",
"%%%%%%%%%%%%   %OO+++*********   *********++OOO   %%%%%%%%%%%%%%",
"%%%%%%%%%%%%    %O+++****...**   **...****+++O    %%%%%%%%%%%%%%",
"%%%%%%%%%%%%%     +OOO***...**===**...****OO+%   %%%%%%%%%%%%%%%",
"%%%%%%%%%%%%%     %OOO++=.....===.....=++OOO     %%%%%%%%%%%%%%%",
"%%%%%%%%%%%%%%%     OO++***.........***++OOO   %%%%%%%%%%%%%%%%%",
"%%%%%%%%%%%%%%%%%   %+++***.........***+++     %%%%%%%%%%%%%%%%%",
"%%%%%%%%%%%%%%%%%   %+++***%%%...%%%***+++   %%%%%%%%%%%%%%%%%%%",
"%%%%%%%%%%%%%%%%%%%   ++***%%%===%%%***+++   %%%%%%%%%%%%%%%%%%%",
"%%%%%%%%%%%%%%%%%%%   +++++&&&***&&&+++++   %%%%%%%%%%%%%%%%%%%%",
"%%%%%%%%%%%%%%%%%%%      OOO&&***&OOO+      %%%%%%%%%%%%%%%%%%%%",
"%%%%%%%%%%%%%%%%%%%%%%   OOOOO***OOOO+      %%%%%%%%%%%%%%%%%%%%",
"%%%%%%%%%%%%%%%%%%%%%%   OOOOOOOOOOOO%   %%%%%%%%%%%%%%%%%%%%%%%",
"%%%%%%%%%%%%%%%%%%%%%%%%%%%%OOOOOOO%%%%%%%%%%%%%%%%%%%%%%%%%%%%%",
"%%%%%%%%%%%%%%%%%%%%%%%%%%%%%%&&&%%%%%%%%%%%%%%%%%%%%%%%%%%%%%%%"
};
