/* XPM */
static char *a9e25eaabcfa4808fa7ae117b8a47f223plr0TL00v8pfWfF[] = {
/* columns rows colors chars-per-pixel */
"64 64 2 1 ",
"  c #A4D3E5",
". c #DFE9ED",
/* pixels */
"                                                                ",
"                                                                ",
"                                                                ",
"                                                                ",
"                                                                ",
"                                                                ",
"                                                                ",
"                                                                ",
"                                                                ",
"                                                                ",
"                             ...                                ",
"                             ...                                ",
"                             ...                                ",
"                             ...                                ",
"                       ...   ...   ...                          ",
"                       ...   ...   ...                          ",
"                       ...   ...   ...                          ",
"                 ...      .........      ...                    ",
"                 ...      .........      ...                    ",
"                 ...      .........      ...                    ",
"              ......         ...         ......                 ",
"              ......         ...         ......                 ",
"              ......         ...         ......                 ",
"                    ...   ...   ...   ...                       ",
"                    ...   ...   ...   ...                       ",
"                    ...   ...   ...   ...                       ",
"              ...      ...   ...   ...      ...                 ",
"              ...      ...   ...   ...      ...                 ",
"              ...      ...   ...   ...      ...                 ",
"           ............   .........   ............              ",
"           ............   .........   ............              ",
"           ............   .........   ............              ",
"              ...      ...   ...   ...      ...                 ",
"              ...      ...   ...   ...      ...                 ",
"              ...      ...   ...   ...      ...                 ",
"                    ...   ...   ...   ...                       ",
"                    ...   ...   ...   ...                       ",
"                    ...   ...   ...   ...                       ",
"              ......         ...         ......                 ",
"              ......         ...         ......                 ",
"              ......         ...         ......                 ",
"                 ...      .........      ...                    ",
"                 ...      .........      ...                    ",
"                 ...      .........      ...                    ",
"                       ...   ...   ...                          ",
"                       ...   ...   ...                          ",
"                       ...   ...   ...                          ",
"                             ...                                ",
"                             ...                                ",
"                             ...                                ",
"                             ...                                ",
"                                                                ",
"                                                                ",
"                                                                ",
"                                                                ",
"                                                                ",
"                                                                ",
"                                                                ",
"                                                                ",
"                                                                ",
"                                                                ",
"                                                                ",
"                                                                ",
"                                                                "
};
