/* XPM */
static const char *cmFyemxfZ2JfeXJzZ2twcw___67acb476ec940[] = {
/* columns rows colors chars-per-pixel */
"64 64 71 1 ",
"  c #021117",
". c #123A49",
"X c #143B4B",
"o c #123C4C",
"O c #173E4E",
"+ c #193F4F",
"@ c #163F50",
"# c #1D4252",
"$ c #1B4355",
"% c #1F4454",
"& c #234757",
"* c #204859",
"= c #274A5A",
"- c #234A5C",
"; c #244B5D",
": c #264D5E",
"> c #075877",
", c #2A5062",
"< c #2D5060",
"1 c #315564",
"2 c #345767",
"3 c #365867",
"4 c #315768",
"5 c #33596B",
"6 c #375A69",
"7 c #375D6E",
"8 c #3A5C6B",
"9 c #3B5F6F",
"0 c #395E70",
"q c #426473",
"w c #476A7A",
"e c #476D7E",
"r c #486C7C",
"t c #496F80",
"y c #4A7081",
"u c #4C7183",
"i c #4F7587",
"p c #517484",
"a c #537A8B",
"s c #547888",
"d c #597E8E",
"f c #5F8595",
"g c #5F8698",
"h c #618697",
"j c #61889A",
"k c #648B9C",
"l c #6991A2",
"z c #7198A8",
"x c #729BAC",
"c c #749CAE",
"v c #779FB0",
"b c #729FB4",
"n c #789FB0",
"m c #77A0B2",
"M c #79A3B5",
"N c #7BA4B5",
"B c #80AABB",
"V c #83ADBE",
"C c #85AFC1",
"Z c #87B2C3",
"A c #8AB5C7",
"S c #8DB9CB",
"D c #90BDCE",
"F c #94C1D2",
"G c #94C1D4",
"H c #97C5D6",
"J c #98C7D7",
"K c #9AC7D9",
"L c #9ECDDE",
"P c #A4D3E5",
"I c #DFE9ED",
/* pixels */
"PPPPPPPPPPPPPPPPPPPPPPPPPPPPPPPPPPPPPPPPPPPPPPPPPPPPPPPPPPPPPPPP",
"PPPPPPPPPPPPPPPPPPPPPPPPPPPPPPPPPPPPPPPPPPPPPPPPPPPPPPPPPPPPPPPP",
"PPPPPPPPPPPPPPPPPPPPPPPPPPPPPPPPPPPPPPPPPPPPPPPPPPPPPPPPPPPPPPPP",
"PPPPPPPPPPPPPPPPPPPPPPPPPPPPPPPPPPPPPPPPPPPPPPPPPPPPPPPPPPPPPPPP",
"PPPPPPPPPPPPPPPPPPPPPPPPPAlu5*O....*%2sAPPPPPPPPPPPPPPPPPPPPPPPP",
"PPPPPPPPPPPPPPPPPPPPPPNyX................yNPPPPPPPPPPPPPPPPPPPPP",
"PPPPPPPPPPPPPPPPPPPKg;.....................;gKPPPPPPPPPPPPPPPPPP",
"PPPPPPPPPPPPPPPPPLw...........................fLPPPPPPPPPPPPPPPP",
"PPPPPPPPPPPPPPPPf+.............................+xPPPPPPPPPPPPPPP",
"PPPPPPPPPPPPPPKi.................................6KPPPPPPPPPPPPP",
"PPPPPPPPPPPPPC7..............>>>>>>>>>>>>.........&CPPPPPPPPPPPP",
"PPPPPPPPPPPPM,.......>>>>>>>>>>>>>>>>>>>>>.........+MPPPPPPPPPPP",
"PPPPPPPPPPPm:.......>>>>>>>>>>>>>>>>>>>>>>>>........OmPPPPPPPPPP",
"PPPPPPPPPPBO.......>>>>>>>>>>>>>>>>>>>>>>>>>>.........BPPPPPPPPP",
"PPPPPPPPPD4.......>>>>>>>>>>>>>>>>>>>>>>>>>>>>........ODPPPPPPPP",
"PPPPPPPPP<.......>>>>>>>>>>>>>>>>>>>>>>>>>>>>>>........<PPPPPPPP",
"PPPPPPPPk......>>>>>>>>>>>>>>>>>>>>>>>>>>>>>>>>>........uPPPPPPP",
"PPPPPPPS$......>>>>>>>>>>>>>>>>>>>>>>>>>>>>>>>>>>........VPPPPPP",
"PPPPPPPt......>>>>>>>>>>III>>>>>>>>>>>>>>>>>>>>>>>>......1PPPPPP",
"PPPPPPC......>>>>>>>>>>>IIIIII>>>>>>>>>>>>>>>>>>>>>.......vPPPPP",
"PPPPPP<.....>>>>>>>>>>IIIIIIII>>>>>>>>>>>>>>>>>>>>>>>>....&PPPPP",
"PPPPPF......>>>>>>>>>>III>>III>>>>>>>>>>>>>>>>>>>>>>>>.....CPPPP",
"PPPPPj.....>>>>>>>>>>IIII>>III>>>>>>>>>>>>>>>>>>>>>>>>>....8PPPP",
"PPPPP#....>>>>>>>>>>>III   III>>>>>>>>>>>>>>>>>>>>>>>>>....#PPPP",
"PPPPH.....>>>>>>>>>>>III   III>>>>>>>>>>>>>>>>>>>>>>>>>.....HPPP",
"PPPPh....>>>>>>>>>>>>III   III>>>>>>>>>>>>>>>>>>>>>>>>>.....cPPP",
"PPPP9....>>>>>>>>>>>>IIII>>III>>>>>>>>>>>>>>>>>>>>>>>>>.....aPPP",
"PPPP&....>>>>>>>>>>>>>III>>III>>>>>>>>>>>>>>>>>>>>>>>>>.....0PPP",
"PPPP.....>>>>>>>>>>>>>IIIIIIII>>>>>>>>>>>>>>>>>>>>>>>>>.....-PPP",
"PPPP.....>>>>>>>>>>>>>>IIIIIII>>>>>>>>>>>>>>>>>>>>>>>>>.....@PPP",
"PPPP.....>>>>>>>>>>>>>>IIIII>>>>>>>>>>>>>>>>>>>>>>>>>>>......PPP",
"PPPP.....>>>>>>>>>>>>>>>>>>>>>>>>>>>>>>>>>>>>>>>>>>>>>>......PPP",
"PPPP.....>>>>>>>>>>>>>>>>>>>>>>>>>>>>>>>>>>>>>>>>>>>>>>>.....PPP",
"PPPP.....>>>>>>>>>>>>>>>>>>>>>>>>>>>>>>>>>>>>>>>>>>>>>>......PPP",
"PPPPO....>>>>>>>>>>>>>>>>>>>>>>>>>>>>>>>>>>>>>>>>>>>>>>.....-PPP",
"PPPP&....>>>>>>>>>>>>>>>>>>>>>>>>>>>>>>>>>>>>>>>>>>>>>>.....0PPP",
"PPPP9.....>>>>>>>>>>>>>>IIIIII>>>>>>>>>>>>>>>>>>>>>>>>>.....aPPP",
"PPPPp.....>>>>>>>>>>>>>>IIIIII>>>>>>>>>>>>>>>>>>>>>>>>>.....cPPP",
"PPPPA......>>>>>>>>>>>IIIIIIII>>>>>>>>>>>>>>>>>>>>>>>>>.....HPPP",
"PPPPP#......>>>>>>>>>>III>IIII>>>>>>>>>>>>>>>>>>>>>>>>>....1PPPP",
"PPPPPj......>>>>>>>>>IIII>IIII>>>>>>>>>>>>>>>>>>>>>>>>.....jPPPP",
"PPPPPFo.....>>>>>>>>>II   IIII>>>>>>>>>>>>>>>>>>>>>>>>.....FPPPP",
"PPPPPPe.....>>>>>>>>>II   IIII>>>>>>>>>>>>>>>>>>>>>>>>....<PPPPP",
"PPPPPPC.....>>>>>>>>>II   IIII>>>>>>>>>>>>>>>>>>>>>>>.....CPPPPP",
"PPPPPPP1.....>>>>>>>>IIIIIIII>>>>>>>>>>>>>>>>>>>>>>>>....tPPPPPP",
"PPPPPPPV.....>>>>>>>>IIIIIIII>>>>>>>>>>>>>>>>>>>>>>>.....SPPPPPP",
"PPPPPPPPu.....>>>>>>>>IIIIIII>>>>>>>>>>>>>>>>>>>>>>.....kPPPPPPP",
"PPPPPPPPP<......>>>>>>>>>>>>>>>>>>>>>>>>>>>>>>>>>>.....<PPPPPPPP",
"PPPPPPPPPZO.....>>>>>>>>>>>>>>>>>>>>>>>>>>>>>>>>>>....#DPPPPPPPP",
"PPPPPPPPPPz......>>>>>>>>>>>>>>>>>>>>>>>>>>>>>>>.....OBPPPPPPPPP",
"PPPPPPPPPPPk......>>>>>>>>>>>>>>>>>>>>>>>>>>>>......OmPPPPPPPPPP",
"PPPPPPPPPPPPd........>>>>>>>>>>>>>>>>>>>>>>>>......+MPPPPPPPPPPP",
"PPPPPPPPPPPPPn+........>>>>>>>>>>>>>>>>>>>>.......&GPPPPPPPPPPPP",
"PPPPPPPPPPPPPPF=........>>>>>>>>>>>>>>>>>>.......bLPPPPPPPPPPPPP",
"PPPPPPPPPPPPPPPPq..............................+xPPPPPPPPPPPPPPP",
"PPPPPPPPPPPPPPPPPJ3...........................fLPPPPPPPPPPPPPPPP",
"PPPPPPPPPPPPPPPPPPPFr.......................6KPPPPPPPPPPPPPPPPPP",
"PPPPPPPPPPPPPPPPPPPPPPN1X...............X1lPPPPPPPPPPPPPPPPPPPPP",
"PPPPPPPPPPPPPPPPPPPPPPPPPAlu5*....O*5ulAPPPPPPPPPPPPPPPPPPPPPPPP",
"PPPPPPPPPPPPPPPPPPPPPPPPPPPPPPPPPPPPPPPPPPPPPPPPPPPPPPPPPPPPPPPP",
"PPPPPPPPPPPPPPPPPPPPPPPPPPPPPPPPPPPPPPPPPPPPPPPPPPPPPPPPPPPPPPPP",
"PPPPPPPPPPPPPPPPPPPPPPPPPPPPPPPPPPPPPPPPPPPPPPPPPPPPPPPPPPPPPPPP",
"PPPPPPPPPPPPPPPPPPPPPPPPPPPPPPPPPPPPPPPPPPPPPPPPPPPPPPPPPPPPPPPP",
"PPPPPPPPPPPPPPPPPPPPPPPPPPPPPPPPPPPPPPPPPPPPPPPPPPPPPPPPPPPPPPPP"
};
