/* XPM */
static const char *cmFyemxfZ2JfcWJqYQ___67acb476ec2d5[] = {
/* columns rows colors chars-per-pixel */
"64 64 71 1 ",
"  c #021117",
". c #123A49",
"X c #143B4B",
"o c #123C4C",
"O c #173E4E",
"+ c #193F4F",
"@ c #163F50",
"# c #1D4252",
"$ c #1B4355",
"% c #1F4454",
"& c #224756",
"* c #204859",
"= c #274A5A",
"- c #234A5C",
"; c #244B5D",
": c #264D5E",
"> c #075877",
", c #2A5062",
"< c #2D5060",
"1 c #315564",
"2 c #345767",
"3 c #365867",
"4 c #315768",
"5 c #33596B",
"6 c #375A6B",
"7 c #375D6E",
"8 c #3A5C6B",
"9 c #3B5F6F",
"0 c #395E70",
"q c #426473",
"w c #476A7A",
"e c #476D7E",
"r c #486C7C",
"t c #496F80",
"y c #4A7081",
"u c #4E7181",
"i c #4F7587",
"p c #517484",
"a c #537A8B",
"s c #547888",
"d c #597E8E",
"f c #5E8496",
"g c #5F8698",
"h c #618697",
"j c #61889A",
"k c #648B9C",
"l c #6991A2",
"z c #7198A8",
"x c #729BAC",
"c c #749CAE",
"v c #779FB0",
"b c #729FB4",
"n c #789FB0",
"m c #77A0B2",
"M c #79A3B5",
"N c #7BA4B5",
"B c #80AABB",
"V c #83ADBE",
"C c #85AFC1",
"Z c #87B2C3",
"A c #8AB5C7",
"S c #8DB9CB",
"D c #90BDCE",
"F c #94C1D2",
"G c #94C1D4",
"H c #97C5D6",
"J c #98C7D7",
"K c #9AC7D9",
"L c #9ECDDE",
"P c #A4D3E5",
"I c #DFE9ED",
/* pixels */
"PPPPPPPPPPPPPPPPPPPPPPPPPPPPPPPPPPPPPPPPPPPPPPPPPPPPPPPPPPPPPPPP",
"PPPPPPPPPPPPPPPPPPPPPPPPPPPPPPPPPPPPPPPPPPPPPPPPPPPPPPPPPPPPPPPP",
"PPPPPPPPPPPPPPPPPPPPPPPPPPPPPPPPPPPPPPPPPPPPPPPPPPPPPPPPPPPPPPPP",
"PPPPPPPPPPPPPPPPPPPPPPPPHca0-@....-0acHPPPPPPPPPPPPPPPPPPPPPPPPP",
"PPPPPPPPPPPPPPPPPPPPPC8#...............1jFPPPPPPPPPPPPPPPPPPPPPP",
"PPPPPPPPPPPPPPPPPPPv&.....................<CPPPPPPPPPPPPPPPPPPPP",
"PPPPPPPPPPPPPPPPPV1.........................tSPPPPPPPPPPPPPPPPPP",
"PPPPPPPPPPPPPPPPu.............................kPPPPPPPPPPPPPPPPP",
"PPPPPPPPPPPPPPD<................>..............<DPPPPPPPPPPPPPPP",
"PPPPPPPPPPPPPBO.......>>>>>>>>>>>>>>>>>>........#BPPPPPPPPPPPPPP",
"PPPPPPPPPPPPm.......>>>>>>>>>>>>>>>>>>>>>>>......OmPPPPPPPPPPPPP",
"PPPPPPPPPPPMO.......>>>>>>>>>>>>>>>>>>>>>>>>>.....OMPPPPPPPPPPPP",
"PPPPPPPPPPC+........>>>>>>>>>>>>>>>>>>>>>>>>>>.....+GPPPPPPPPPPP",
"PPPPPPPPPK&.......>>>>>>>>>>>>>>>>>>>>>>>>>>>>>.....&LPPPPPPPPPP",
"PPPPPPPPP6........>>>>>>>>>>>>>>>>>>>>>>>>>>>>>>>....bPPPPPPPPPP",
"PPPPPPPPx........>>>>>>>>>>>>>>>>>>>>>>>>>>>>>>>>.....xPPPPPPPPP",
"PPPPPPPL+.......>>>>>>>>>>>>>>>>>>>>>>>>>>>>>>>>>>....+LPPPPPPPP",
"PPPPPPPf.......>>>>>>>>>>>>>>>>>>>>>>>>>>>>>>>>>>>.....fPPPPPPPP",
"PPPPPPK.......>>>>>>>>>>>>>>>>>>>>>>>>>>>>>>>>>>>>>.....KPPPPPPP",
"PPPPPPg......>>>>>>>>>>>>>>>>>>>>>>>>>>>>>>>>>>>>>>>....6PPPPPPP",
"PPPPPP;.....>>>>>>>>>>>>>>>>>>>>>>>>>>>>>>>>>>>>>>>>.....PPPPPPP",
"PPPPPN......>>>>>>>>>>>>>>>>>>>>>>>>>>>>>>>>>>>>>>>>>....lPPPPPP",
"PPPPPy.....>>>>>>>>>>>>>>>>>>>>>>>>>>>>>>>>>>>>>>>>>>>...1PPPPPP",
"PPPPP.....>>>>>>>>>>>>>>>>>>>>>>>>>>>>>>>>>>>>>>>>>>>>...XPPPPPP",
"PPPPA.....>>>>>>>>>>>>>>>>>>>>>>>>>>>>>>>>>>>>>>>>>>>>....APPPPP",
"PPPPs.....>>>>>>>>>>>>>>>>>>>>>>>>>>>>>>>>>>>>>>>>>>>>....lPPPPP",
"PPPP2.....>>>>>>>>>>>>>>>>>>>>>>>>>>>>>>>>>>>>>>>>>>>>....uPPPPP",
"PPPP%.....>>>>>>>>>>>>>>>>>>>>>>>>>>>>>>>>>>>>>>>>>>>>....5PPPPP",
"PPPP*.....>>>>>>>>>>>>>>>>>>>>>>>>>>>>>>>>>>>>>>>>>>>>....*PPPPP",
"PPPP......>>>>>>>>>>>>>>>>>>>>>>>>>>>>>>>>>>>>>>>>>>>>....OPPPPP",
"PPPP......>>>>>>>>>>>>>>>>>>>>>>>>>>>>>>>>>>>>>>>>>>>>.....PPPPP",
"PPPP......>>>>>>>>>>>>>>>>>>>>>>>>>>>>>>>>>>>>>>>>>>>>.....PPPPP",
"PPPP......>>>>>>>>>>>>>>>>>>>>>>>>>>>>>>>>>>>>>>>>>>>>.....PPPPP",
"PPPPO.....>>>>>>>>>>>>>>>>>>>>>>>>>>>>>>>>>>>>>>>>>>>>.....PPPPP",
"PPPP*.....>>>>>>>>>IIIIIIIIIII>>>>>>IIIIIIII>>>>>>>>>>....*PPPPP",
"PPPP5......>>>>>>>>IIIIIIIIIII>>>>>>IIIIIIIIIII>>>>>>>....5PPPPP",
"PPPPu......>>>>>>>>IIIIIIIIIIII>>>>>IIIIIIIIIII>>>>>>>....uPPPPP",
"PPPPl......>>>>>>>III>>   >>III>>>>>IIIIIIIIIII>>>>>>>....lPPPPP",
"PPPPA......>>>>>>>III>>   >>III>>>>>III>>   III>>>>>>>....APPPPP",
"PPPPPX.....>>>>>>>IIIII   IIIII>>>>>IIIII   III>>>>>>>...XPPPPPP",
"PPPPPy.....>>>>>>>>>IIIIIIIIIII>>>>>>>III   III>>>>>>....1PPPPPP",
"PPPPPN.....>>>>>>>>>IIIIIIIII>>>>>>>>>IIIIIIIII>>>>>.....NPPPPPP",
"PPPPPP;....>>>>>>>>>>>IIIII>>>>>>>>>>>>>IIIIII>>>>>>.....PPPPPPP",
"PPPPPPg.....>>>>>>>>>>>>>>>>>>>>>>>>>>>>>>>>>>>>>>>.....rPPPPPPP",
"PPPPPPK......>>>>>>>>>>>>>>>>>>>>>>>>>>>>>>>>>>>>>>.....FPPPPPPP",
"PPPPPPPw......>>>>>>>>>>>>>>>>>>>>>>>>>>>>>>>>>>>>>....3PPPPPPPP",
"PPPPPPPL+......>>>>>>>>>>>>>>>>>>>>>>>>>>>>>>>>>>>.....JPPPPPPPP",
"PPPPPPPPf.......>>>>>>>>>>>>>>>>>>>>>>>>>>>>>>>>>.....qPPPPPPPPP",
"PPPPPPPPPi......>>>>>>>>>>>>>>>>>>>>>>>>>>>>>>>......=PPPPPPPPPP",
"PPPPPPPPPK7.......>>>>>>>>>>>>>>>>>>>>>>>>>>>>>.....+FPPPPPPPPPP",
"PPPPPPPPPPC,.......>>>>>>>>>>>>>>>>>>>>>>>>>>>......nPPPPPPPPPPP",
"PPPPPPPPPPPM:.......>>>>>>>>>>>>>>>>>>>>>>>>.......dPPPPPPPPPPPP",
"PPPPPPPPPPPPmO........>>>>>>>>>>>>>>>>>...........kPPPPPPPPPPPPP",
"PPPPPPPPPPPPPB4........>>>>>>>>>>>>>>>..........OzPPPPPPPPPPPPPP",
"PPPPPPPPPPPPPPD<.........>>>>>>>>>>>...........<ZPPPPPPPPPPPPPPP",
"PPPPPPPPPPPPPPPPk$............................uPPPPPPPPPPPPPPPPP",
"PPPPPPPPPPPPPPPPPSt.........................1VPPPPPPPPPPPPPPPPPP",
"PPPPPPPPPPPPPPPPPPPC<....................oeCPPPPPPPPPPPPPPPPPPPP",
"PPPPPPPPPPPPPPPPPPPPPFj#...............#jFPPPPPPPPPPPPPPPPPPPPPP",
"PPPPPPPPPPPPPPPPPPPPPPPPHh9&......O&9pAPPPPPPPPPPPPPPPPPPPPPPPPP",
"PPPPPPPPPPPPPPPPPPPPPPPPPPPPPPPPPPPPPPPPPPPPPPPPPPPPPPPPPPPPPPPP",
"PPPPPPPPPPPPPPPPPPPPPPPPPPPPPPPPPPPPPPPPPPPPPPPPPPPPPPPPPPPPPPPP",
"PPPPPPPPPPPPPPPPPPPPPPPPPPPPPPPPPPPPPPPPPPPPPPPPPPPPPPPPPPPPPPPP",
"PPPPPPPPPPPPPPPPPPPPPPPPPPPPPPPPPPPPPPPPPPPPPPPPPPPPPPPPPPPPPPPP"
};
