/* XPM */
static const char *cmFyemxfZ2JfZXZ0dWc__67acb495cbe8c[] = {
/* columns rows colors chars-per-pixel */
"64 64 71 1 ",
"  c #021117",
". c #123A49",
"X c #143B4B",
"o c #123C4C",
"O c #173E4E",
"+ c #193F4F",
"@ c #163F50",
"# c #1D4353",
"$ c #1B4355",
"% c #1F4454",
"& c #224756",
"* c #204859",
"= c #274A5A",
"- c #234A5C",
"; c #244B5D",
": c #264D5E",
"> c #075877",
", c #2A5062",
"< c #2D5060",
"1 c #325565",
"2 c #345767",
"3 c #365867",
"4 c #315768",
"5 c #33596B",
"6 c #375A69",
"7 c #375D6E",
"8 c #3A5C6B",
"9 c #3B5F6F",
"0 c #395E70",
"q c #426473",
"w c #476A7A",
"e c #476D7E",
"r c #486C7C",
"t c #496F80",
"y c #4A7081",
"u c #4C7183",
"i c #4F7587",
"p c #517484",
"a c #537A8B",
"s c #547888",
"d c #597E8E",
"f c #5E8496",
"g c #5F8698",
"h c #618697",
"j c #61889A",
"k c #648B9C",
"l c #6A90A0",
"z c #7198A8",
"x c #729BAC",
"c c #749CAE",
"v c #779FB0",
"b c #729FB4",
"n c #789FB0",
"m c #77A0B2",
"M c #79A3B5",
"N c #7BA4B5",
"B c #80AABB",
"V c #83ADBE",
"C c #84AFC1",
"Z c #87B2C3",
"A c #8AB5C7",
"S c #8DB9CB",
"D c #90BDCE",
"F c #94C1D2",
"G c #94C1D4",
"H c #97C5D6",
"J c #98C7D7",
"K c #9AC7D9",
"L c #9FCDDF",
"P c #A4D3E5",
"I c #DFE9ED",
/* pixels */
"PPPPPPPPPPPPPPPPPPPPPPPPPPPPPPPPPPPPPPPPPPPPPPPPPPPPPPPPPPPPPPPP",
"PPPPPPPPPPPPPPPPPPPPPPPPPPPPPPPPPPPPPPPPPPPPPPPPPPPPPPPPPPPPPPPP",
"PPPPPPPPPPPPPPPPPPPPPPPPPPPPPPPPPPPPPPPPPPPPPPPPPPPPPPPPPPPPPPPP",
"PPPPPPPPPPPPPPPPPPPPPPPPPPPPPPPPPPPPPPPPPPPPPPPPPPPPPPPPPPPPPPPP",
"PPPPPPPPPPPPPPPPPPPPPPPPPPPPPPPPPPPPPPPPPPPPPPPPPPPPPPPPPPPPPPPP",
"PPPPPPPPPPPPPPPPPPPPPPPPAlu5*O....*5ulAPPPPPPPPPPPPPPPPPPPPPPPPP",
"PPPPPPPPPPPPPPPPPPPPPl1X...............X1NPPPPPPPPPPPPPPPPPPPPPP",
"PPPPPPPPPPPPPPPPPPK6.......................rFPPPPPPPPPPPPPPPPPPP",
"PPPPPPPPPPPPPPPPLf...........................3JPPPPPPPPPPPPPPPPP",
"PPPPPPPPPPPPPPPx+..............................qPPPPPPPPPPPPPPPP",
"PPPPPPPPPPPPPLb.......>>>>>>>>>>>>>>>>>>........=FPPPPPPPPPPPPPP",
"PPPPPPPPPPPPG&.......>>>>>>>>>>>>>>>>>>>>........+nPPPPPPPPPPPPP",
"PPPPPPPPPPPM+......>>>>>>>>>>>>>>>>>>>>>>>>........dPPPPPPPPPPPP",
"PPPPPPPPPPmO......>>>>>>>>>>>>>>>>>>>>>>>>>>>>......kPPPPPPPPPPP",
"PPPPPPPPPBO.....>>>>>>>>>>>>>>>>>>>>>>>>>>>>>>>......zPPPPPPPPPP",
"PPPPPPPPD#....>>>>>>>>>>>>>>>>>>>>>>>>>>>>>>>>>>.....OZPPPPPPPPP",
"PPPPPPPP<.....>>>>>>>>>>>>>>>>>>>>>>>>>>>>>>>>>>......<PPPPPPPPP",
"PPPPPPPk.....>>>>>>>>>>>>>>>>>>>>>>IIIIIII>>>>>>>>.....uPPPPPPPP",
"PPPPPPS.....>>>>>>>>>>>>>>>>>>>>>>>IIIIIIII>>>>>>>>.....VPPPPPPP",
"PPPPPPt....>>>>>>>>>>>>>>>>>>>>>>>>IIIIIIII>>>>>>>>.....1PPPPPPP",
"PPPPPC.....>>>>>>>>>>>>>>>>>>>>>>>IIII   II>>>>>>>>>.....CPPPPPP",
"PPPPP<....>>>>>>>>>>>>>>>>>>>>>>>>IIII   II>>>>>>>>>.....ePPPPPP",
"PPPPF.....>>>>>>>>>>>>>>>>>>>>>>>>IIII   II>>>>>>>>>.....oFPPPPP",
"PPPPj.....>>>>>>>>>>>>>>>>>>>>>>>>IIII>IIII>>>>>>>>>......jPPPPP",
"PPPP1....>>>>>>>>>>>>>>>>>>>>>>>>>IIII>III>>>>>>>>>>......#PPPPP",
"PPPH.....>>>>>>>>>>>>>>>>>>>>>>>>>IIIIIIII>>>>>>>>>>>......APPPP",
"PPPc.....>>>>>>>>>>>>>>>>>>>>>>>>>IIIIII>>>>>>>>>>>>>>.....pPPPP",
"PPPa.....>>>>>>>>>>>>>>>>>>>>>>>>>IIIIII>>>>>>>>>>>>>>.....9PPPP",
"PPP0.....>>>>>>>>>>>>>>>>>>>>>>>>>>>>>>>>>>>>>>>>>>>>>>....&PPPP",
"PPP-.....>>>>>>>>>>>>>>>>>>>>>>>>>>>>>>>>>>>>>>>>>>>>>>....OPPPP",
"PPP......>>>>>>>>>>>>>>>>>>>>>>>>>>>>>>>>>>>>>>>>>>>>>>.....PPPP",
"PPP.....>>>>>>>>>>>>>>>>>>>>>>>>>>>>>>>>>>>>>>>>>>>>>>>.....PPPP",
"PPP......>>>>>>>>>>>>>>>>>>>>>>>>>>>>>>>>>>>>>>>>>>>>>>.....PPPP",
"PPP......>>>>>>>>>>>>>>>>>>>>>>>>>>>IIIII>>>>>>>>>>>>>>.....PPPP",
"PPP@.....>>>>>>>>>>>>>>>>>>>>>>>>>IIIIIII>>>>>>>>>>>>>>.....PPPP",
"PPP-.....>>>>>>>>>>>>>>>>>>>>>>>>>IIIIIIII>>>>>>>>>>>>>.....PPPP",
"PPP0.....>>>>>>>>>>>>>>>>>>>>>>>>>III>>III>>>>>>>>>>>>>....&PPPP",
"PPPa.....>>>>>>>>>>>>>>>>>>>>>>>>>III>>IIII>>>>>>>>>>>>....9PPPP",
"PPPc.....>>>>>>>>>>>>>>>>>>>>>>>>>III   III>>>>>>>>>>>>....hPPPP",
"PPPH.....>>>>>>>>>>>>>>>>>>>>>>>>>III   III>>>>>>>>>>>.....HPPPP",
"PPPP#....>>>>>>>>>>>>>>>>>>>>>>>>>III   III>>>>>>>>>>>....#PPPPP",
"PPPP8....>>>>>>>>>>>>>>>>>>>>>>>>>III>>IIII>>>>>>>>>>.....jPPPPP",
"PPPPC.....>>>>>>>>>>>>>>>>>>>>>>>>III>>III>>>>>>>>>>......FPPPPP",
"PPPPP&....>>>>>>>>>>>>>>>>>>>>>>>>IIIIIIII>>>>>>>>>>.....<PPPPPP",
"PPPPPv.......>>>>>>>>>>>>>>>>>>>>>IIIIII>>>>>>>>>>>......CPPPPPP",
"PPPPPP1......>>>>>>>>>>>>>>>>>>>>>>>>III>>>>>>>>>>......tPPPPPPP",
"PPPPPPV........>>>>>>>>>>>>>>>>>>>>>>>>>>>>>>>>>>......$SPPPPPPP",
"PPPPPPPu........>>>>>>>>>>>>>>>>>>>>>>>>>>>>>>>>>......kPPPPPPPP",
"PPPPPPPP<........>>>>>>>>>>>>>>>>>>>>>>>>>>>>>>.......<PPPPPPPPP",
"PPPPPPPPDO........>>>>>>>>>>>>>>>>>>>>>>>>>>>>.......4DPPPPPPPPP",
"PPPPPPPPPB.........>>>>>>>>>>>>>>>>>>>>>>>>>>.......OBPPPPPPPPPP",
"PPPPPPPPPPmO........>>>>>>>>>>>>>>>>>>>>>>>>.......:mPPPPPPPPPPP",
"PPPPPPPPPPPM+.........>>>>>>>>>>>>>>>>>>>>>.......,MPPPPPPPPPPPP",
"PPPPPPPPPPPPC&.........>>>>>>>>>>>>..............7CPPPPPPPPPPPPP",
"PPPPPPPPPPPPPK6.................................iKPPPPPPPPPPPPPP",
"PPPPPPPPPPPPPPPx+.............................+fPPPPPPPPPPPPPPPP",
"PPPPPPPPPPPPPPPPLf...........................wLPPPPPPPPPPPPPPPPP",
"PPPPPPPPPPPPPPPPPPKg;.....................;gKPPPPPPPPPPPPPPPPPPP",
"PPPPPPPPPPPPPPPPPPPPPNy................XyNPPPPPPPPPPPPPPPPPPPPPP",
"PPPPPPPPPPPPPPPPPPPPPPPPAs2%*....O*5ulAPPPPPPPPPPPPPPPPPPPPPPPPP",
"PPPPPPPPPPPPPPPPPPPPPPPPPPPPPPPPPPPPPPPPPPPPPPPPPPPPPPPPPPPPPPPP",
"PPPPPPPPPPPPPPPPPPPPPPPPPPPPPPPPPPPPPPPPPPPPPPPPPPPPPPPPPPPPPPPP",
"PPPPPPPPPPPPPPPPPPPPPPPPPPPPPPPPPPPPPPPPPPPPPPPPPPPPPPPPPPPPPPPP",
"PPPPPPPPPPPPPPPPPPPPPPPPPPPPPPPPPPPPPPPPPPPPPPPPPPPPPPPPPPPPPPPP"
};
