/* XPM */
static const char *cmFyemxfZ2JfaGM__67acb495d4ad3[] = {
/* columns rows colors chars-per-pixel */
"64 64 71 1 ",
"  c #021117",
". c #123A49",
"X c #143B4B",
"o c #123C4C",
"O c #153C4C",
"+ c #183E4D",
"@ c #163F50",
"# c #1D4252",
"$ c #1B4355",
"% c #1F4454",
"& c #234757",
"* c #204859",
"= c #274A5A",
"- c #234A5C",
"; c #244B5D",
": c #264D5E",
"> c #075877",
", c #2A5062",
"< c #2D5060",
"1 c #315564",
"2 c #345767",
"3 c #365867",
"4 c #315768",
"5 c #33596B",
"6 c #375A69",
"7 c #375D6E",
"8 c #3A5C6B",
"9 c #3B5F6F",
"0 c #395E70",
"q c #426473",
"w c #476A7A",
"e c #476D7E",
"r c #486C7C",
"t c #496F80",
"y c #4A7081",
"u c #4E7181",
"i c #4F7587",
"p c #517484",
"a c #537A8B",
"s c #547888",
"d c #597E8E",
"f c #5E8496",
"g c #5F8698",
"h c #618697",
"j c #61889A",
"k c #658B9C",
"l c #6991A2",
"z c #7198A8",
"x c #729BAC",
"c c #749CAE",
"v c #779FB0",
"b c #729FB4",
"n c #789FB0",
"m c #77A0B2",
"M c #79A3B5",
"N c #7BA4B5",
"B c #80AABB",
"V c #83ADBE",
"C c #84AFC1",
"Z c #87B2C3",
"A c #8BB7C7",
"S c #8DB9CB",
"D c #90BDCE",
"F c #95C1D3",
"G c #94C1D4",
"H c #97C5D6",
"J c #98C7D7",
"K c #9AC7D9",
"L c #9ECDDE",
"P c #A4D3E5",
"I c #DFE9ED",
/* pixels */
"PPPPPPPPPPPPPPPPPPPPPPPPPPPPPPPPPPPPPPPPPPPPPPPPPPPPPPPPPPPPPPPP",
"PPPPPPPPPPPPPPPPPPPPPPPPPPPPPPPPPPPPPPPPPPPPPPPPPPPPPPPPPPPPPPPP",
"PPPPPPPPPPPPPPPPPPPPPPPPPPPPPPPPPPPPPPPPPPPPPPPPPPPPPPPPPPPPPPPP",
"PPPPPPPPPPPPPPPPPPPPPPPPPPPPPPPPPPPPPPPPPPPPPPPPPPPPPPPPPPPPPPPP",
"PPPPPPPPPPPPPPPPPPPPPPPPPAp9&O......&9hHPPPPPPPPPPPPPPPPPPPPPPPP",
"PPPPPPPPPPPPPPPPPPPPPPFj#...............#jFPPPPPPPPPPPPPPPPPPPPP",
"PPPPPPPPPPPPPPPPPPPPCeo....................<CPPPPPPPPPPPPPPPPPPP",
"PPPPPPPPPPPPPPPPPPV1.........................tSPPPPPPPPPPPPPPPPP",
"PPPPPPPPPPPPPPPPPu............................$kPPPPPPPPPPPPPPPP",
"PPPPPPPPPPPPPPPZ<...........>>>>>>>>>>>.........<DPPPPPPPPPPPPPP",
"PPPPPPPPPPPPPPzO..........>>>>>>>>>>>>>>>........4BPPPPPPPPPPPPP",
"PPPPPPPPPPPPPk...........>>>>>>>>>>>>>>>>>........OmPPPPPPPPPPPP",
"PPPPPPPPPPPPd.......>>>>>>>>>>>>>>>>>>>>>>>>.......:MPPPPPPPPPPP",
"PPPPPPPPPPPn......>>>>>>>>>>>>>>>>>>>>>>>>>>>.......,CPPPPPPPPPP",
"PPPPPPPPPPF+.....>>>>>>>>>>>>>>>>>>>>>>>>>>>>>.......7KPPPPPPPPP",
"PPPPPPPPPP=......>>>>>>>>>>>>>>>>>>>>>>>>>>>>>>>......iPPPPPPPPP",
"PPPPPPPPPq.....>>>>>>>>>>>>>>>>>>>>>>>>>>>>>>>>>.......fPPPPPPPP",
"PPPPPPPPJ.....>>>>>>>>>>>>>>>>>>>>>>>>>>>>>>>>>>>......+LPPPPPPP",
"PPPPPPPP3....>>>>>>>>>>>>>>>>>>>>>>>>>>>>>>>>>>>>>......wPPPPPPP",
"PPPPPPPF.....>>>>>>>>>>>>>>>>>>>>>>>>>>>>>>>>>>>>>>......KPPPPPP",
"PPPPPPPr.....>>>>>>>>>>>>>>>>>>>>>>>>>>>>>>>>>>>>>>>.....gPPPPPP",
"PPPPPPP.....>>>>>>IIIIII>>>>>>>>>>>>>IIIII>>>>>>>>>>>....;PPPPPP",
"PPPPPPN.....>>>>>IIIIIIIII>>>>>>>>>IIIIIIIII>>>>>>>>>.....NPPPPP",
"PPPPPP1....>>>>>>III   III>>>>>>>IIIIIIIIIII>>>>>>>>>.....yPPPPP",
"PPPPPPX...>>>>>>>III   IIIII>>>>>IIIII   IIIII>>>>>>>.....XPPPPP",
"PPPPPA....>>>>>>>III   >>III>>>>>III>>   >>III>>>>>>>......APPPP",
"PPPPPl....>>>>>>>IIIIIIIIIII>>>>>III>>   >>III>>>>>>>......lPPPP",
"PPPPPu....>>>>>>>IIIIIIIIIII>>>>>IIIIIIIIIIII>>>>>>>>......uPPPP",
"PPPPP5....>>>>>>>IIIIIIIIIII>>>>>>IIIIIIIIIII>>>>>>>>......5PPPP",
"PPPPP*....>>>>>>>>>>IIIIIIII>>>>>>IIIIIIIIIII>>>>>>>>>.....*PPPP",
"PPPPP.....>>>>>>>>>>>>>>>>>>>>>>>>>>>>>>>>>>>>>>>>>>>>.....OPPPP",
"PPPPP.....>>>>>>>>>>>>>>>>>>>>>>>>>>>>>>>>>>>>>>>>>>>>......PPPP",
"PPPPP.....>>>>>>>>>>>>>>>>>>>>>>>>>>>>>>>>>>>>>>>>>>>>......PPPP",
"PPPPP.....>>>>>>>>>>>>>>>>>>>>>>>>>>>>>>>>>>>>>>>>>>>>......PPPP",
"PPPPPO....>>>>>>>>>>>>>>>>>>>>>>>>>>>>>>>>>>>>>>>>>>>>......PPPP",
"PPPPP*....>>>>>>>>>>>>>>>>>>>>>>>>>>>>>>>>>>>>>>>>>>>>.....*PPPP",
"PPPPP5....>>>>>>>>>>>>>>>>>>>>>>>>>>>>>>>>>>>>>>>>>>>>.....%PPPP",
"PPPPPu....>>>>>>>>>>>>>>>>>>>>>>>>>>>>>>>>>>>>>>>>>>>>.....2PPPP",
"PPPPPl....>>>>>>>>>>>>>>>>>>>>>>>>>>>>>>>>>>>>>>>>>>>>.....sPPPP",
"PPPPPA....>>>>>>>>>>>>>>>>>>>>>>>>>>>>>>>>>>>>>>>>>>>>.....APPPP",
"PPPPPPX...>>>>>>>>>>>>>>>>>>>>>>>>>>>>>>>>>>>>>>>>>>>>.....PPPPP",
"PPPPPP1...>>>>>>>>>>>>>>>>>>>>>>>>>>>>>>>>>>>>>>>>>>>.....yPPPPP",
"PPPPPPl....>>>>>>>>>>>>>>>>>>>>>>>>>>>>>>>>>>>>>>>>>......NPPPPP",
"PPPPPPP.....>>>>>>>>>>>>>>>>>>>>>>>>>>>>>>>>>>>>>>>>.....;PPPPPP",
"PPPPPPP6....>>>>>>>>>>>>>>>>>>>>>>>>>>>>>>>>>>>>>>>......gPPPPPP",
"PPPPPPPK.....>>>>>>>>>>>>>>>>>>>>>>>>>>>>>>>>>>>>>.......KPPPPPP",
"PPPPPPPPf.....>>>>>>>>>>>>>>>>>>>>>>>>>>>>>>>>>>>.......fPPPPPPP",
"PPPPPPPPL+....>>>>>>>>>>>>>>>>>>>>>>>>>>>>>>>>>>.......+LPPPPPPP",
"PPPPPPPPPx.....>>>>>>>>>>>>>>>>>>>>>>>>>>>>>>>>........xPPPPPPPP",
"PPPPPPPPPPb....>>>>>>>>>>>>>>>>>>>>>>>>>>>>>>>........6PPPPPPPPP",
"PPPPPPPPPPL&.....>>>>>>>>>>>>>>>>>>>>>>>>>>>>>.......&KPPPPPPPPP",
"PPPPPPPPPPPG+.....>>>>>>>>>>>>>>>>>>>>>>>>>>........+CPPPPPPPPPP",
"PPPPPPPPPPPPMO.....>>>>>>>>>>>>>>>>>>>>>>>>>.......OMPPPPPPPPPPP",
"PPPPPPPPPPPPPmO......>>>>>>>>>>>>>>>>>>>>>>>.......mPPPPPPPPPPPP",
"PPPPPPPPPPPPPPB#........>>>>>>>>>>>>>>>>>>.......OBPPPPPPPPPPPPP",
"PPPPPPPPPPPPPPPD<..............>................<DPPPPPPPPPPPPPP",
"PPPPPPPPPPPPPPPPPk.............................uPPPPPPPPPPPPPPPP",
"PPPPPPPPPPPPPPPPPPSt.........................1VPPPPPPPPPPPPPPPPP",
"PPPPPPPPPPPPPPPPPPPPC<.....................&vPPPPPPPPPPPPPPPPPPP",
"PPPPPPPPPPPPPPPPPPPPPPFj1...............#8CPPPPPPPPPPPPPPPPPPPPP",
"PPPPPPPPPPPPPPPPPPPPPPPPPHca0-....@-0acHPPPPPPPPPPPPPPPPPPPPPPPP",
"PPPPPPPPPPPPPPPPPPPPPPPPPPPPPPPPPPPPPPPPPPPPPPPPPPPPPPPPPPPPPPPP",
"PPPPPPPPPPPPPPPPPPPPPPPPPPPPPPPPPPPPPPPPPPPPPPPPPPPPPPPPPPPPPPPP",
"PPPPPPPPPPPPPPPPPPPPPPPPPPPPPPPPPPPPPPPPPPPPPPPPPPPPPPPPPPPPPPPP"
};
