/* XPM */
static char *_b076579853c4d4bac522a0c167baf41vvenClWLOESkP8xv[] = {
/* columns rows colors chars-per-pixel */
"64 64 48 1 ",
"  c #010000",
". c #050404",
"X c #080606",
"o c #090A0B",
"O c #0E0A0A",
"+ c #120E0E",
"@ c #161111",
"# c #1C1616",
"$ c #1E1818",
"% c #201A1A",
"& c #221C1C",
"* c #261F1F",
"= c #282121",
"- c #2D2829",
"; c #302B2C",
": c #363335",
"> c #3F3D40",
", c #434346",
"< c #46464A",
"1 c #515257",
"2 c #5C5F64",
"3 c #61646A",
"4 c #63666C",
"5 c #6B6F76",
"6 c #6D7178",
"7 c #EA9513",
"8 c #757D84",
"9 c #797F86",
"0 c #7E848C",
"q c #858C94",
"w c #8B929A",
"e c #929AA3",
"r c #969FA8",
"t c #9BA3AD",
"y c #A0A9B3",
"u c #A3ADB7",
"i c #A4ADB7",
"p c #A5AFB9",
"a c #AFBAC5",
"s c #B3BEC9",
"d c #B7C2CD",
"f c #B9C4CF",
"g c #BAC6D1",
"h c #BFCBD7",
"j c #C3CFDB",
"k c #C8D4E1",
"l c #D1DEEA",
"z c #D4E1EE",
/* pixels */
"zzzzzzzzzzzzzzzzzzzzzzzzzzzzzzzzzzzzzzzzzzzzzzzzzzzzzzzzzzzzzzzz",
"zzzzzzzzzzzzzzzzzzzzzzzzzhiw61:=:16wihzzzzzzzzzzzzzzzzzzzzzzzzzz",
"zzzzzzzzzzzzzzzzzzzzzzhr2=============2rhzzzzzzzzzzzzzzzzzzzzzzz",
"zzzzzzzzzzzzzzzzzzzzgq===================qgzzzzzzzzzzzzzzzzzzzzz",
"zzzzzzzzzzzzzzzzzzke=======================ekzzzzzzzzzzzzzzzzzzz",
"zzzzzzzzzzzzzzzzzs5=========================5szzzzzzzzzzzzzzzzzz",
"zzzzzzzzzzzzzzzzp<===========================<pzzzzzzzzzzzzzzzzz",
"zzzzzzzzzzzzzzzy;=========*$@O.  .O@$*========;yzzzzzzzzzzzzzzzz",
"zzzzzzzzzzzzzzu-========&@            @&=======-uzzzzzzzzzzzzzzz",
"zzzzzzzzzzzzza>=======*@                @*======>azzzzzzzzzzzzzz",
"zzzzzzzzzzzzj4=======%O                  O%======4jzzzzzzzzzzzzz",
"zzzzzzzzzzzzw=======$X                    X$======wzzzzzzzzzzzzz",
"zzzzzzzzzzzs=======$.                      .$======szzzzzzzzzzzz",
"zzzzzzzzzzz9======*O                        O*=====9zzzzzzzzzzzz",
"zzzzzzzzzzd=======@                          @======dzzzzzzzzzzz",
"zzzzzzzzzzw======%                            %=====wzzzzzzzzzzz",
"zzzzzzzzzl,======+                            +=====,lzzzzzzzzzz",
"zzzzzzzzzd======*                              *=====dzzzzzzzzzz",
"zzzzzzzzzt======#                              #=====tzzzzzzzzzz",
"zzzzzzzzz0======+                              +=====0zzzzzzzzzz",
"zzzzzzzzz3======X                              X=====3zzzzzzzzzz",
"zzzzzzzzz<======                                =====<zzzzzzzzzz",
"zzzzzzzzz-======                                =====-zzzzzzzzzz",
"zzzzzzzzz-======                                =====-zzzzzzzzzz",
"zzzzzzzzz<======X                              X=====<zzzzzzzzzz",
"zzzzzzzzz3======+                              +=====3zzzzzzzzzz",
"zzzzzzzzz0======#                              #=====0zzzzzzzzzz",
"zzzzzzzzzt======*                              *=====tzzzzzzzzzz",
"zzzzzzzzzd=======+                            +======dzzzzzzzzzz",
"zzzzzzzzzl,======%                            %=====,lzzzzzzzzzz",
"zzzzzzzzzzw=======@                          @======wzzzzzzzzzzz",
"zzzzzzzzzzd=======*O                        O*======dzzzzzzzzzzz",
"zzzzzzzzzzz9=======$.                      .$======9zzzzzzzzzzzz",
"zzzzzzzzzzzs========$X                    X$=======szzzzzzzzzzzz",
"zzzzzzzzzzzzw========%O                  O%=======wzzzzzzzzzzzzz",
"zzzzzzzzzzzzj4========*@                @*=======4jzzzzzzzzzzzzz",
"zzzzzzzzzzzzza>=========&@            @&========>azzzzzzzzzzzzzz",
"zzzzzzzzzzzzzzu-==========*$@O.  .O@$*=========-uzzzzzzzzzzzzzzz",
"zzzzzzzzzzzzzzzy;=============================;yzzzzzzzzzzzzzzzz",
"zzzzzzzzzzzzzzzzp<===========================<pzzzzzzzzzzzzzzzzz",
"zzzzzzzzzzzzzzzzzs5=========================5szzzzzzzzzzzzzzzzzz",
"zzzzzzzzzzzzzzzzzzke=======================ekzzzzzzzzzzzzzzzzzzz",
"zzzzzzzzzzzzzzzzzzzzgq===================qgzzzzzzzzzzzzzzzzzzzzz",
"zzzzzzzzzzzzzzzzzzzzzzhr2=============2rhzzzzzzzzzzzzzzzzzzzzzzz",
"zzzzzzzzzzzzzzzzzzzzzzzzzhiw61:=:16wihzzzzzzzzzzzzzzzzzzzzzzzzzz",
"zzzzzzzzzzzzzzzzzzzzzzzzzzzzzzzzzzzzzzzzzzzzzzzzzzzzzzzzzzzzzzzz",
"zzzzzzzzzzzzzzzzzzzzf8o8fzzzzzzzzzzzzzf8o8fzzzzzzzzzzzzzzzzzzzzz",
"zzzzzzzzzzzzzzzzzzzz8   8zzzzzzzzzzzzz8   8zzzzzzzzzzzzzzzzzzzzz",
"zzzzzzzzzzzzzzzzzzzzo   ozzzzzzzzzzzzzo   ozzzzzzzzzzzzzzzzzzzzz",
"zzzzzzzzzzzzzzzzzzzz8   8z77777777777z8   8zzzzzzzzzzzzzzzzzzzzz",
"zzzzzzzzzzzzzzzzzzzzf8o8fz77777777777zf8o8fzzzzzzzzzzzzzzzzzzzzz",
"zzzzzzzzzzzzzzzzzzzzzzzzzz77777777777zzzzzzzzzzzzzzzzzzzzzzzzzzz",
"zzzzzzzzzzzzzzzzzzzzzzzzzzz777777777zzzzzzzzzzzzzzzzzzzzzzzzzzzz",
"zzzzzzzzzzzzzzzzzzzzzzzzzzz777777777zzzzzzzzzzzzzzzzzzzzzzzzzzzz",
"zzzzzzzzzzzzzzzzzzzzzzzzzzz777777777zzzzzzzzzzzzzzzzzzzzzzzzzzzz",
"zzzzzzzzzzzzzzzzzzzzzzzzzzz777777777zzzzzzzzzzzzzzzzzzzzzzzzzzzz",
"zzzzzzzzzzzzzzzzzzzzzzzzzzzz7777777zzzzzzzzzzzzzzzzzzzzzzzzzzzzz",
"zzzzzzzzzzzzzzzzzzzzzzzzzzzz7777777zzzzzzzzzzzzzzzzzzzzzzzzzzzzz",
"zzzzzzzzzzzzzzzzzzzzzzzzzzzz7777777zzzzzzzzzzzzzzzzzzzzzzzzzzzzz",
"zzzzzzzzzzzzzzzzzzzzzzzzzzzz7777777zzzzzzzzzzzzzzzzzzzzzzzzzzzzz",
"zzzzzzzzzzzzzzzzzzzzzzzzzzzz7777777zzzzzzzzzzzzzzzzzzzzzzzzzzzzz",
"zzzzzzzzzzzzzzzzzzzzzzzzzzzzzz777zzzzzzzzzzzzzzzzzzzzzzzzzzzzzzz",
"zzzzzzzzzzzzzzzzzzzzzzzzzzzzzz777zzzzzzzzzzzzzzzzzzzzzzzzzzzzzzz",
"zzzzzzzzzzzzzzzzzzzzzzzzzzzzzz777zzzzzzzzzzzzzzzzzzzzzzzzzzzzzzz"
};
