/* XPM */
static char *fcf52bd854ca40559d9ca54b785256184Kvs2tAwMKOgLTB7[] = {
/* columns rows colors chars-per-pixel */
"64 64 48 1 ",
"  c black",
". c #070505",
"X c #080606",
"o c #090A0B",
"O c #0D0A0A",
"+ c #120E0E",
"@ c #171212",
"# c #1C1616",
"$ c #1F1919",
"% c #201A1A",
"& c #221C1C",
"* c #251E1E",
"= c #282121",
"- c #2D2829",
"; c #302B2C",
": c #363335",
"> c #3F3D40",
", c #434346",
"< c #46464A",
"1 c #515257",
"2 c #5C5F64",
"3 c #61646A",
"4 c #63666C",
"5 c #6B6F76",
"6 c #6D7178",
"7 c #EA9513",
"8 c #757D84",
"9 c #797F86",
"0 c #7E848C",
"q c #858C94",
"w c #8B939B",
"e c #929AA3",
"r c #969FA8",
"t c #9BA3AD",
"y c #A0A9B3",
"u c #A3ADB7",
"i c #A4ADB7",
"p c #A5AFB9",
"a c #AFBAC5",
"s c #B3BEC9",
"d c #B6C1CC",
"f c #B9C4CF",
"g c #BAC6D1",
"h c #BFCBD7",
"j c #C3CFDB",
"k c #C8D4E1",
"l c #D1DEEA",
"z c #D4E1EE",
/* pixels */
"zzzzzzzzzzzzzzzzzzzzzzzzzzzzzzzzzzzzzzzzzzzzzzzzzzzzzzzzzzzzzzzz",
"zzzzzzzzzzzzzzzzzzzzzzzzzzzzzzzzzzzzzzzzzzzzzzzzzzzzzzzzzzzzzzzz",
"zzzzzzzzzzzzzzzzzzzzzzzzzzzzzzzzzzzzzzzzzzzzzzzzzzzzzzzzzzzzzzzz",
"zzzzzzzzzzzzzzzzzzzzzzzzzzzzzzzzzzzzzzzzzzzzzzzzzzzzzzzzzzzzzzzz",
"zzzzzzzzzzzzzzzzzzzzzzzzzzzzzzzzzzzzzzzzzzzzzzzzzzzzzzzzzzzzzzzz",
"zzzzzzzzzzzzzzzzzzzzzzzzzzzzzzzzzzzzzzzzzzzzzzzzzzzzzzzzzzzzzzzz",
"zzzzzzzzzzzzzzzzzzzzzzzzzzzzzzzzzzzzzzzzzzzzzzzzzzzzzzzzzzzzzzzz",
"zzzzzzzzzzzzzzzzzzzzzzzzzzzzzzzzzzzzzzzzzzzzzzzzzzzzzzzzzzzzzzzz",
"zzzzzzzzzzzzzzzzzzzzzzzzzzzzzzzzzzzzzzzzzzzzzzzzzzzzzzzzzzzzzzzz",
"zzzzzzzzzzzzzzzzzzzzzzzzzzzzzzzzzzldt03<--<30tdlzzzzzzzzzzzzzzzz",
"zzzzzzzzzzzzzzzzzzzzzzzzzzzzzzzzdw,============,wdzzzzzzzzzzzzzz",
"zzzzzzzzzzzzzzzzzzzzzzzzzzzzzzs9==================9szzzzzzzzzzzz",
"zzzzzzzzzzzzzzzzzzzzzzzzzzzzjw======================wjzzzzzzzzzz",
"zzzzzzzzzzzzzzzzzzzzzzzzzzza4========================4azzzzzzzzz",
"zzzzzzzzzzzzzzzzzzzzzzzzzzu>==========================>uzzzzzzzz",
"zzzzzzzzzzzzzzzzzzzzzzzzzy-============================-yzzzzzzz",
"zzzzzzzzzzzzzzzzzzzzzzzzp;==========*#+X   X+#*=========;pzzzzzz",
"zzzzzzzzzzzzzzzzzzzzzzzs<=========%+           +%========<szzzzz",
"zzzzzzzzzzzzzzzzzzzzzzk5========*@               @*=======5kzzzz",
"zzzzzzzzzzzzzzzzzzzzzze========$O                 O$=======ezzzz",
"zzzzzzzzzzzzzf8o8fzzzg========$.                   .$=======gzzz",
"zzzzzzzzzzzzz8   8zzzq=======%X                     X%======qzzz",
"zzzzzzzzzzzzzo   ozzh=======*O                       O*======hzz",
"zzzzzzzzzzzzz8   8zzr=======@                         @======rzz",
"zzzzzzzzzzzzzf8o8fzz2======&                           &=====2zz",
"zzzzzzzzzzzzzzzzzzzh=======@                           @======hz",
"zzzzzzzzzzzz777zzzzi======*                             *=====iz",
"zzzzzzzz7777777zzzzw======$                             $=====wz",
"zzz777777777777zzzz6======@                             @=====6z",
"zzz777777777777zzzz1======O                             O=====1z",
"777777777777777zzzz:======.                             .=====:z",
"777777777777777zzzz=======                               ======z",
"777777777777777zzzz:======                               =====:z",
"zzz777777777777zzzz1======.                             .=====1z",
"zzz777777777777zzzz6======O                             O=====6z",
"zzzzzzzz7777777zzzzw======@                             @=====wz",
"zzzzzzzzzzzz777zzzzi======$                             $=====iz",
"zzzzzzzzzzzzzzzzzzzh======*                             *=====hz",
"zzzzzzzzzzzzzf8o8fzz2======@                           @=====2zz",
"zzzzzzzzzzzzz8   8zzr======&                           &=====rzz",
"zzzzzzzzzzzzzo   ozzh=======@                         @======hzz",
"zzzzzzzzzzzzz8   8zzzq======*O                       O*=====qzzz",
"zzzzzzzzzzzzzf8o8fzzzg=======%X                     X%======gzzz",
"zzzzzzzzzzzzzzzzzzzzzze=======$.                   .$======ezzzz",
"zzzzzzzzzzzzzzzzzzzzzzk5=======$O                 O$======5kzzzz",
"zzzzzzzzzzzzzzzzzzzzzzzs<=======*@               @*======<szzzzz",
"zzzzzzzzzzzzzzzzzzzzzzzzp;========%+           +%=======;pzzzzzz",
"zzzzzzzzzzzzzzzzzzzzzzzzzy-=========*#+X   X+#*========-yzzzzzzz",
"zzzzzzzzzzzzzzzzzzzzzzzzzzu>==========================>uzzzzzzzz",
"zzzzzzzzzzzzzzzzzzzzzzzzzzza4========================4azzzzzzzzz",
"zzzzzzzzzzzzzzzzzzzzzzzzzzzzjw======================wjzzzzzzzzzz",
"zzzzzzzzzzzzzzzzzzzzzzzzzzzzzzs9==================9szzzzzzzzzzzz",
"zzzzzzzzzzzzzzzzzzzzzzzzzzzzzzzzdw,============,wdzzzzzzzzzzzzzz",
"zzzzzzzzzzzzzzzzzzzzzzzzzzzzzzzzzzldt03<--<30tdlzzzzzzzzzzzzzzzz",
"zzzzzzzzzzzzzzzzzzzzzzzzzzzzzzzzzzzzzzzzzzzzzzzzzzzzzzzzzzzzzzzz",
"zzzzzzzzzzzzzzzzzzzzzzzzzzzzzzzzzzzzzzzzzzzzzzzzzzzzzzzzzzzzzzzz",
"zzzzzzzzzzzzzzzzzzzzzzzzzzzzzzzzzzzzzzzzzzzzzzzzzzzzzzzzzzzzzzzz",
"zzzzzzzzzzzzzzzzzzzzzzzzzzzzzzzzzzzzzzzzzzzzzzzzzzzzzzzzzzzzzzzz",
"zzzzzzzzzzzzzzzzzzzzzzzzzzzzzzzzzzzzzzzzzzzzzzzzzzzzzzzzzzzzzzzz",
"zzzzzzzzzzzzzzzzzzzzzzzzzzzzzzzzzzzzzzzzzzzzzzzzzzzzzzzzzzzzzzzz",
"zzzzzzzzzzzzzzzzzzzzzzzzzzzzzzzzzzzzzzzzzzzzzzzzzzzzzzzzzzzzzzzz",
"zzzzzzzzzzzzzzzzzzzzzzzzzzzzzzzzzzzzzzzzzzzzzzzzzzzzzzzzzzzzzzzz",
"zzzzzzzzzzzzzzzzzzzzzzzzzzzzzzzzzzzzzzzzzzzzzzzzzzzzzzzzzzzzzzzz",
"zzzzzzzzzzzzzzzzzzzzzzzzzzzzzzzzzzzzzzzzzzzzzzzzzzzzzzzzzzzzzzzz"
};
