/* XPM */
static char *e8faf5fd51454383869ee01a43546cacAnbSYRRaiPoyVVOS[] = {
/* columns rows colors chars-per-pixel */
"64 64 48 1 ",
"  c black",
". c #050404",
"X c #080606",
"o c #090A0B",
"O c #0E0A0A",
"+ c #120E0E",
"@ c #151111",
"# c #1C1616",
"$ c #1E1818",
"% c #201A1A",
"& c #221C1C",
"* c #261F1F",
"= c #282121",
"- c #2D2829",
"; c #302B2C",
": c #363335",
"> c #3F3D40",
", c #434346",
"< c #46464A",
"1 c #515257",
"2 c #5C5F64",
"3 c #61646A",
"4 c #63666C",
"5 c #6B6F76",
"6 c #6D7178",
"7 c #EA9513",
"8 c #757D84",
"9 c #797F86",
"0 c #7E848C",
"q c #858C94",
"w c #899098",
"e c #929AA3",
"r c #969FA8",
"t c #9BA3AD",
"y c #A0A9B3",
"u c #A3ADB7",
"i c #A4ADB7",
"p c #A5AFB9",
"a c #AFBAC5",
"s c #B3BEC9",
"d c #B6C1CC",
"f c #B9C4CF",
"g c #BAC6D1",
"h c #BFCBD7",
"j c #C3CFDB",
"k c #C8D4E1",
"l c #D1DEEA",
"z c #D4E1EE",
/* pixels */
"zzzzzzzzzzzzzzzzzzzzzzzzzzzzzzz777zzzzzzzzzzzzzzzzzzzzzzzzzzzzzz",
"zzzzzzzzzzzzzzzzzzzzzzzzzzzzzzz777zzzzzzzzzzzzzzzzzzzzzzzzzzzzzz",
"zzzzzzzzzzzzzzzzzzzzzzzzzzzzzzz777zzzzzzzzzzzzzzzzzzzzzzzzzzzzzz",
"zzzzzzzzzzzzzzzzzzzzzzzzzzzzz7777777zzzzzzzzzzzzzzzzzzzzzzzzzzzz",
"zzzzzzzzzzzzzzzzzzzzzzzzzzzzz7777777zzzzzzzzzzzzzzzzzzzzzzzzzzzz",
"zzzzzzzzzzzzzzzzzzzzzzzzzzzzz7777777zzzzzzzzzzzzzzzzzzzzzzzzzzzz",
"zzzzzzzzzzzzzzzzzzzzzzzzzzzzz7777777zzzzzzzzzzzzzzzzzzzzzzzzzzzz",
"zzzzzzzzzzzzzzzzzzzzzzzzzzzzz7777777zzzzzzzzzzzzzzzzzzzzzzzzzzzz",
"zzzzzzzzzzzzzzzzzzzzzzzzzzzz777777777zzzzzzzzzzzzzzzzzzzzzzzzzzz",
"zzzzzzzzzzzzzzzzzzzzzzzzzzzz777777777zzzzzzzzzzzzzzzzzzzzzzzzzzz",
"zzzzzzzzzzzzzzzzzzzzzzzzzzzz777777777zzzzzzzzzzzzzzzzzzzzzzzzzzz",
"zzzzzzzzzzzzzzzzzzzzzzzzzzzz777777777zzzzzzzzzzzzzzzzzzzzzzzzzzz",
"zzzzzzzzzzzzzzzzzzzzzzzzzzz77777777777zzzzzzzzzzzzzzzzzzzzzzzzzz",
"zzzzzzzzzzzzzzzzzzzzzf8o8fz77777777777zf8o8fzzzzzzzzzzzzzzzzzzzz",
"zzzzzzzzzzzzzzzzzzzzz8   8z77777777777z8   8zzzzzzzzzzzzzzzzzzzz",
"zzzzzzzzzzzzzzzzzzzzzo   ozzzzzzzzzzzzzo   ozzzzzzzzzzzzzzzzzzzz",
"zzzzzzzzzzzzzzzzzzzzz8   8zzzzzzzzzzzzz8   8zzzzzzzzzzzzzzzzzzzz",
"zzzzzzzzzzzzzzzzzzzzzf8o8fzzzzzzzzzzzzzf8o8fzzzzzzzzzzzzzzzzzzzz",
"zzzzzzzzzzzzzzzzzzzzzzzzzzzzzzzzzzzzzzzzzzzzzzzzzzzzzzzzzzzzzzzz",
"zzzzzzzzzzzzzzzzzzzzzzzzzzhiw61:=:16wihzzzzzzzzzzzzzzzzzzzzzzzzz",
"zzzzzzzzzzzzzzzzzzzzzzzhr2=============2rhzzzzzzzzzzzzzzzzzzzzzz",
"zzzzzzzzzzzzzzzzzzzzzgq===================qgzzzzzzzzzzzzzzzzzzzz",
"zzzzzzzzzzzzzzzzzzzke=======================ekzzzzzzzzzzzzzzzzzz",
"zzzzzzzzzzzzzzzzzzs5=========================5szzzzzzzzzzzzzzzzz",
"zzzzzzzzzzzzzzzzzp<===========================<pzzzzzzzzzzzzzzzz",
"zzzzzzzzzzzzzzzzy;=============================;yzzzzzzzzzzzzzzz",
"zzzzzzzzzzzzzzzu-=========*$@O.  .O@$*==========-uzzzzzzzzzzzzzz",
"zzzzzzzzzzzzzza>========&@            @&=========>azzzzzzzzzzzzz",
"zzzzzzzzzzzzzj4=======*@                @*========4jzzzzzzzzzzzz",
"zzzzzzzzzzzzzw=======%O                  O%========wzzzzzzzzzzzz",
"zzzzzzzzzzzzs=======$X                    X$========szzzzzzzzzzz",
"zzzzzzzzzzzz9======$.                      .$=======9zzzzzzzzzzz",
"zzzzzzzzzzzd======*O                        O*=======dzzzzzzzzzz",
"zzzzzzzzzzzw======@                          @=======wzzzzzzzzzz",
"zzzzzzzzzzl,=====%                            %======,lzzzzzzzzz",
"zzzzzzzzzzd======+                            +=======dzzzzzzzzz",
"zzzzzzzzzzt=====*                              *======tzzzzzzzzz",
"zzzzzzzzzz0=====#                              #======0zzzzzzzzz",
"zzzzzzzzzz3=====+                              +======3zzzzzzzzz",
"zzzzzzzzzz<=====X                              X======<zzzzzzzzz",
"zzzzzzzzzz-=====                                ======-zzzzzzzzz",
"zzzzzzzzzz-=====                                ======-zzzzzzzzz",
"zzzzzzzzzz<=====                                ======<zzzzzzzzz",
"zzzzzzzzzz3=====X                              X======3zzzzzzzzz",
"zzzzzzzzzz0=====+                              +======0zzzzzzzzz",
"zzzzzzzzzzt=====#                              #======tzzzzzzzzz",
"zzzzzzzzzzd=====*                              *======dzzzzzzzzz",
"zzzzzzzzzzl,=====+                            +======,lzzzzzzzzz",
"zzzzzzzzzzzw=====%                            %======wzzzzzzzzzz",
"zzzzzzzzzzzd======@                          @=======dzzzzzzzzzz",
"zzzzzzzzzzzz9=====*O                        O*======9zzzzzzzzzzz",
"zzzzzzzzzzzzs======$.                      .$=======szzzzzzzzzzz",
"zzzzzzzzzzzzzw======$X                    X$=======wzzzzzzzzzzzz",
"zzzzzzzzzzzzzj4======%O                  O%=======4jzzzzzzzzzzzz",
"zzzzzzzzzzzzzza>======*@                @*=======>azzzzzzzzzzzzz",
"zzzzzzzzzzzzzzzu-=======&@            @&========-uzzzzzzzzzzzzzz",
"zzzzzzzzzzzzzzzzy;========*$@O.  .O@$*=========;yzzzzzzzzzzzzzzz",
"zzzzzzzzzzzzzzzzzp<===========================<pzzzzzzzzzzzzzzzz",
"zzzzzzzzzzzzzzzzzzs5=========================5szzzzzzzzzzzzzzzzz",
"zzzzzzzzzzzzzzzzzzzke=======================ekzzzzzzzzzzzzzzzzzz",
"zzzzzzzzzzzzzzzzzzzzzgq===================qgzzzzzzzzzzzzzzzzzzzz",
"zzzzzzzzzzzzzzzzzzzzzzzhr2=============2rhzzzzzzzzzzzzzzzzzzzzzz",
"zzzzzzzzzzzzzzzzzzzzzzzzzzhiw61:=:16wihzzzzzzzzzzzzzzzzzzzzzzzzz",
"zzzzzzzzzzzzzzzzzzzzzzzzzzzzzzzzzzzzzzzzzzzzzzzzzzzzzzzzzzzzzzzz"
};
