/* XPM */
static char *_d9b4e4b68c64faaaa5029eb34306428oh94D4nY6sa8C8Kc[] = {
/* columns rows colors chars-per-pixel */
"64 64 48 1 ",
"  c black",
". c #070505",
"X c #0A0707",
"o c #090A0B",
"O c #0C0808",
"+ c #120E0E",
"@ c #151010",
"# c #1C1616",
"$ c #1F1919",
"% c #201A1A",
"& c #221C1C",
"* c #241D1D",
"= c #282121",
"- c #2D2829",
"; c #302B2C",
": c #363335",
"> c #3F3D40",
", c #434346",
"< c #454548",
"1 c #515257",
"2 c #5C5F64",
"3 c #61646A",
"4 c #63666C",
"5 c #6B6F76",
"6 c #6D7178",
"7 c #EA9513",
"8 c #757D84",
"9 c #797F86",
"0 c #7E848C",
"q c #858C94",
"w c #8B939B",
"e c #929AA3",
"r c #969FA8",
"t c #9BA3AD",
"y c #A0A9B3",
"u c #A3ADB7",
"i c #A4ADB7",
"p c #A5AFB9",
"a c #AFBAC5",
"s c #B3BEC9",
"d c #B7C2CD",
"f c #B9C4CF",
"g c #BAC6D1",
"h c #BFCBD7",
"j c #C3CFDB",
"k c #C8D4E1",
"l c #D1DEEA",
"z c #D4E1EE",
/* pixels */
"zzzzzzzzzzzzzzzzzzzzzzzzzzzzzzzzzzzzzzzzzzzzzzzzzzzzzzzzzzzzzzzz",
"zzzzzzzzzzzzzzzzzzzzzzzzzzzzzzzzzzzzzzzzzzzzzzzzzzzzzzzzzzzzzzzz",
"zzzzzzzzzzzzzzzzzzzzzzzzzzzzzzzzzzzzzzzzzzzzzzzzzzzzzzzzzzzzzzzz",
"zzzzzzzzzzzzzzzzzzzzzzzzzzzzzzzzzzzzzzzzzzzzzzzzzzzzzzzzzzzzzzzz",
"zzzzzzzzzzzzzzzzzzzzzzzzzzzzzzzzzzzzzzzzzzzzzzzzzzzzzzzzzzzzzzzz",
"zzzzzzzzzzzzzzzzzzzzzzzzzzzzzzzzzzzzzzzzzzzzzzzzzzzzzzzzzzzzzzzz",
"zzzzzzzzzzzzzzzzzzzzzzzzzzzzzzzzzzzzzzzzzzzzzzzzzzzzzzzzzzzzzzzz",
"zzzzzzzzzzzzzzzzzzzzzzzzzzzzzzzzzzzzzzzzzzzzzzzzzzzzzzzzzzzzzzzz",
"zzzzzzzzzzzzzzzzzzzzzzzzzzzzzzzzzzzzzzzzzzzzzzzzzzzzzzzzzzzzzzzz",
"zzzzzzzzzzzzzzzzzzzzzzzzzzzzzzzzzzzzzzzzzzzzzzzzzzzzzzzzzzzzzzzz",
"zzzzzzzzzzzzzzzzldt03<--<30tdlzzzzzzzzzzzzzzzzzzzzzzzzzzzzzzzzzz",
"zzzzzzzzzzzzzzdw,============,wdzzzzzzzzzzzzzzzzzzzzzzzzzzzzzzzz",
"zzzzzzzzzzzzs9==================9szzzzzzzzzzzzzzzzzzzzzzzzzzzzzz",
"zzzzzzzzzzjw======================wjzzzzzzzzzzzzzzzzzzzzzzzzzzzz",
"zzzzzzzzza4========================4azzzzzzzzzzzzzzzzzzzzzzzzzzz",
"zzzzzzzzu>==========================>uzzzzzzzzzzzzzzzzzzzzzzzzzz",
"zzzzzzzy-========*#+X   X+#*=========-yzzzzzzzzzzzzzzzzzzzzzzzzz",
"zzzzzzp;=======%+           +%========;pzzzzzzzzzzzzzzzzzzzzzzzz",
"zzzzzs<======*@               @*=======<szzzzzzzzzzzzzzzzzzzzzzz",
"zzzzk5======$O                 O$=======5kzzzzzzzzzzzzzzzzzzzzzz",
"zzzze======$.                   .$=======ezzzzzzzzzzzzzzzzzzzzzz",
"zzzg======%X                     X%=======gzzzf8o8fzzzzzzzzzzzzz",
"zzzq=====*O                       O*======qzzz8   8zzzzzzzzzzzzz",
"zzh======@                         @=======hzzo   ozzzzzzzzzzzzz",
"zzr=====&                           &======rzz8   8zzzzzzzzzzzzz",
"zz2=====@                           @======2zzf8o8fzzzzzzzzzzzzz",
"zh=====*                             *======hzzzzzzzzzzzzzzzzzzz",
"zi=====$                             $======izzzz777zzzzzzzzzzzz",
"zw=====@                             @======wzzzz7777777zzzzzzzz",
"z6=====O                             O======6zzzz777777777777zzz",
"z1=====.                             .======1zzzz777777777777zzz",
"z:=====                               ======:zzzz777777777777777",
"z======                               =======zzzz777777777777777",
"z:=====.                             .======:zzzz777777777777777",
"z1=====O                             O======1zzzz777777777777zzz",
"z6=====@                             @======6zzzz777777777777zzz",
"zw=====$                             $======wzzzz7777777zzzzzzzz",
"zi=====*                             *======izzzz777zzzzzzzzzzzz",
"zh======@                           @=======hzzzzzzzzzzzzzzzzzzz",
"zz2=====&                           &======2zzf8o8fzzzzzzzzzzzzz",
"zzr======@                         @=======rzz8   8zzzzzzzzzzzzz",
"zzh======*O                       O*=======hzzo   ozzzzzzzzzzzzz",
"zzzq======%X                     X%=======qzzz8   8zzzzzzzzzzzzz",
"zzzg=======$.                   .$========gzzzf8o8fzzzzzzzzzzzzz",
"zzzze=======$O                 O$========ezzzzzzzzzzzzzzzzzzzzzz",
"zzzzk5=======*@               @*========5kzzzzzzzzzzzzzzzzzzzzzz",
"zzzzzs<========%+           +%=========<szzzzzzzzzzzzzzzzzzzzzzz",
"zzzzzzp;=========*#+X   X+#*==========;pzzzzzzzzzzzzzzzzzzzzzzzz",
"zzzzzzzy-============================-yzzzzzzzzzzzzzzzzzzzzzzzzz",
"zzzzzzzzu>==========================>uzzzzzzzzzzzzzzzzzzzzzzzzzz",
"zzzzzzzzza4========================4azzzzzzzzzzzzzzzzzzzzzzzzzzz",
"zzzzzzzzzzjw======================wjzzzzzzzzzzzzzzzzzzzzzzzzzzzz",
"zzzzzzzzzzzzs9==================9szzzzzzzzzzzzzzzzzzzzzzzzzzzzzz",
"zzzzzzzzzzzzzzdw,============,wdzzzzzzzzzzzzzzzzzzzzzzzzzzzzzzzz",
"zzzzzzzzzzzzzzzzldt03<--<30tdlzzzzzzzzzzzzzzzzzzzzzzzzzzzzzzzzzz",
"zzzzzzzzzzzzzzzzzzzzzzzzzzzzzzzzzzzzzzzzzzzzzzzzzzzzzzzzzzzzzzzz",
"zzzzzzzzzzzzzzzzzzzzzzzzzzzzzzzzzzzzzzzzzzzzzzzzzzzzzzzzzzzzzzzz",
"zzzzzzzzzzzzzzzzzzzzzzzzzzzzzzzzzzzzzzzzzzzzzzzzzzzzzzzzzzzzzzzz",
"zzzzzzzzzzzzzzzzzzzzzzzzzzzzzzzzzzzzzzzzzzzzzzzzzzzzzzzzzzzzzzzz",
"zzzzzzzzzzzzzzzzzzzzzzzzzzzzzzzzzzzzzzzzzzzzzzzzzzzzzzzzzzzzzzzz",
"zzzzzzzzzzzzzzzzzzzzzzzzzzzzzzzzzzzzzzzzzzzzzzzzzzzzzzzzzzzzzzzz",
"zzzzzzzzzzzzzzzzzzzzzzzzzzzzzzzzzzzzzzzzzzzzzzzzzzzzzzzzzzzzzzzz",
"zzzzzzzzzzzzzzzzzzzzzzzzzzzzzzzzzzzzzzzzzzzzzzzzzzzzzzzzzzzzzzzz",
"zzzzzzzzzzzzzzzzzzzzzzzzzzzzzzzzzzzzzzzzzzzzzzzzzzzzzzzzzzzzzzzz"
};
