/* XPM */
static char *_0597157d0e44ed9de370270d8855b5a9dPsUTxMHYkQV0Ym[] = {
/* columns rows colors chars-per-pixel */
"64 64 14 1 ",
"  c #050506",
". c #4F4E06",
"X c #606006",
"o c #757406",
"O c #7E7D06",
"+ c #9F9E06",
"@ c #B2B005",
"# c #BFBD05",
"$ c #C1BF05",
"% c #C6C405",
"& c #CAC805",
"* c #D5D305",
"= c #E1DF05",
"- c #E5E305",
/* pixels */
"                                                                ",
"                                                                ",
"                                                                ",
"                                                                ",
"                                                                ",
"                                                                ",
"                                                                ",
"                                                                ",
"                                                                ",
"                                                                ",
"                                                                ",
"                                                                ",
"                                                                ",
"                                                                ",
"                                                                ",
"                                                                ",
"                          X+$*=-=*$+X                           ",
"                        O#-----------#O                         ",
"                      .@---------------@.                       ",
"                     o%-----------------%o                      ",
"                    o&-------------------&o                     ",
"                   .%---------------------%.                    ",
"                   @-----------------------@                    ",
"                  O-------------------------O                   ",
"                  #-------------------------#                   ",
"                 X---------------------------X                  ",
"                 +---------------------------+                  ",
"                 $---------------------------$                  ",
"                 *---------------------------*                  ",
"                 =---------------------------=                  ",
"                 -----------------------------                  ",
"                 =---------------------------=                  ",
"                 *---------------------------*                  ",
"                 $---------------------------$                  ",
"                 +---------------------------+                  ",
"                 X---------------------------X                  ",
"                  #-------------------------#                   ",
"                  O-------------------------O                   ",
"                   @-----------------------@                    ",
"                   .%---------------------%.                    ",
"                    o&-------------------&o                     ",
"                     o%-----------------%o                      ",
"                      .@---------------@.                       ",
"                        O#-----------#O                         ",
"                          X+$*=-=*$+X                           ",
"                                                                ",
"                                                                ",
"                                                                ",
"                                                                ",
"                                                                ",
"                                                                ",
"                                                                ",
"                                                                ",
"                                                                ",
"                                                                ",
"                                                                ",
"                                                                ",
"                                                                ",
"                                                                ",
"                                                                ",
"                                                                ",
"                                                                ",
"                                                                ",
"                                                                "
};
