/* XPM */
static char *_f1ab3f7bcd549acbd093ba13cc2594852UHueoO0duwFiQS[] = {
/* columns rows colors chars-per-pixel */
"64 64 36 1 ",
"  c #050506",
". c #E20B0D",
"X c #E76F6F",
"o c #E87B7B",
"O c #1031C1",
"+ c #1F38C2",
"@ c #6E74CC",
"# c #7178CD",
"$ c #7B81CF",
"% c #E98080",
"& c #EA8B8B",
"* c #EB9393",
"= c #EC9A9A",
"- c #EDA3A3",
"; c #9C9FD8",
": c #F2C2C2",
"> c #F4CECE",
", c #F5D1D1",
"< c #F6D5D5",
"1 c #F7DCDC",
"2 c #F8E0E0",
"3 c #F9E7E7",
"4 c #FBEFEF",
"5 c #E3E3F2",
"6 c #E3E4F2",
"7 c #E5E5F3",
"8 c #E6E7F4",
"9 c #E9E9F5",
"0 c #ECEDF6",
"q c #FCF2F2",
"w c #FDF4F5",
"e c #F1F1F8",
"r c #FDF8F8",
"t c #FAFBFD",
"y c #FBFCFD",
"u c white",
/* pixels */
"                                                                ",
"                                                                ",
"                                                                ",
"            ...........................................         ",
"            ...........................................         ",
"            ...........................................         ",
"         .................................................      ",
"         .................................................      ",
"         ....=,4uu4,=......................%:3rur3:%......      ",
"      .....&2uuuuuuuu1&..................X>uuuuuuuuu>X.......   ",
"      ....-wuuuuuuuuuu4-................*3uuuuuuuuuuu3*......   ",
"      ...&quuuuuuuuuuuu4&..............o3uuuuuuuuuuuuu3o.....   ",
"      ...1uuuuuuuuuuuuuu1..............<uuuuuuuuuuuuuuu<.....   ",
"      ..=uuuuuue5u5euuuuu=............*uuuuuuuuuuu6$$6uu*....   ",
"      ..,uuuuu0uuuu6#$6uu,............>uuuuuuuuuu9OOOO9u>....   ",
"      ..4uuuuttuuu9OOOO9u4............4uuuuuuuuuu;OOOO;u4....   ",
"      ..uuuuu8uuuu;OOOO;uu............uuuuuuuuuuu+OOOO+uu....   ",
"      ..uuuuu7uuuu+OOOO+uu............uuuuuuuuuuu;OOOO;uu....   ",
"      ..4uuuutuuuu;OOOO;u4............4uuuuuuuuuu9OOOO9u4....   ",
"      ..,uuuutuuuu9OOOO9u,............>uuuuuuuuuuu6$$6uu>....   ",
"      ..=uuuu7uuuuu6$@6uu=............*uuuuuuuuuuuuuuuuu*....   ",
"      ...1uuu8uuuuuuu8uu1..............<uuuuuuuuuuuuuuu<.....   ",
"      ...&4uuttuuuuuttu4&..............o3uuuyuuuuuyuuu3o.....   ",
"      ....-4uu9uuuuu9u4-................*3uuuuuuuuuuu3*......   ",
"      .....&1uue5u5eu1&..................X>uuuuuuuuu>X.......   ",
"      .......=,4uu4,=......................%:3rur3:%.........   ",
"      .......................................................   ",
"      .......................................................   ",
"      .......................................................   ",
"      .......................................................   ",
"      .......................................................   ",
"      .......................................................   ",
"      .......................................................   ",
"      .......................................................   ",
"      .......................................................   ",
"      .......................................................   ",
"      .......................................................   ",
"      .......................................................   ",
"      .......................................................   ",
"      .......................................................   ",
"      .......................................................   ",
"      .......................................................   ",
"      .......................................................   ",
"      .......................................................   ",
"      .......................................................   ",
"      .......................................................   ",
"      .......................................................   ",
"      .......................................................   ",
"      .......................................................   ",
"      .......................................................   ",
"      .......................................................   ",
"      ...........   .........................   .............   ",
"      ...........   .........................   .............   ",
"      .........       .....................       ...........   ",
"      .........       .....................       ...........   ",
"      .......           .................           .........   ",
"      .......           .................           .........   ",
"      .....               .............               .......   ",
"      .....               .............               .......   ",
"      ...                   .........                   .....   ",
"      ...                   .........                   .....   ",
"                                                                ",
"                                                                ",
"                                                                "
};
