/* XPM */
static char *_8990bdee9144539bdf9796714b5e9b6w10ojsCzPyNxrwGD[] = {
/* columns rows colors chars-per-pixel */
"64 64 34 1 ",
"  c #050506",
". c #E20B0D",
"X c #E76F6F",
"o c #E87B7B",
"O c #1031C1",
"+ c #7076CC",
"@ c #7178CD",
"# c #E98080",
"$ c #EA8B8B",
"% c #EB9393",
"& c #EC9A9A",
"* c #EDA3A3",
"= c #F2C2C2",
"- c #F4CECE",
"; c #F5D1D1",
": c #F6D5D5",
"> c #F7DCDC",
", c #D7D9EE",
"< c #DCDDEF",
"1 c #F8E0E0",
"2 c #F9E7E7",
"3 c #FBEFEF",
"4 c #E3E3F2",
"5 c #E5E5F3",
"6 c #E6E7F4",
"7 c #EAEBF5",
"8 c #ECEDF6",
"9 c #FCF2F2",
"0 c #FDF4F5",
"q c #F1F1F8",
"w c #FDF8F8",
"e c #FAFBFD",
"r c #FBFCFD",
"t c white",
/* pixels */
"                                                                ",
"                                                                ",
"                                                                ",
"            ...........................................         ",
"            ...........................................         ",
"            ...........................................         ",
"         .................................................      ",
"         .................................................      ",
"         ....&;3tt3;&......................#=2wtw2=#......      ",
"      .....$1tttttttt>$..................X-ttttttttt-X.......   ",
"      ....*0tttttttttt3*................%2ttttttttttt2%......   ",
"      ...$9tttt<@@<tttt3$..............o2ttttt<@@<tttt2o.....   ",
"      ...>tttt<OOOO<tttt>..............:ttttt<OOOO<tttt:.....   ",
"      ..&ttttt@OOOO+ttttt&............%tttttt@OOOO@ttttt%....   ",
"      ..;ttttt+OOOO@8tttt;............-tttttt@OOOO@ttttt-....   ",
"      ..3tttte,OOOO<eettt3............3tttttt<OOOO<ttttt3....   ",
"      ..ttttt6t<@@<tt6tttt............tttttttt<@@<ttttttt....   ",
"      ..ttttt5ttttttt5tttt............ttttttttttttttttttt....   ",
"      ..3ttttetttttttettt3............3ttttttttttttttttt3....   ",
"      ..;ttttetttttttettt;............-ttttttttttttttttt-....   ",
"      ..&tttt5ttttttt5ttt&............%ttttttttttttttttt%....   ",
"      ...>ttt6ttttttt6tt>..............:ttttttttttttttt:.....   ",
"      ...$3tteettttteet3$..............o2tttrtttttrttt2o.....   ",
"      ....*3tt7ttttt7t3*................%2ttttttttttt2%......   ",
"      .....$>ttq4t4qt>$..................X-ttttttttt-X.......   ",
"      .......&;3tt3;&......................#=2wtw2=#.........   ",
"      .......................................................   ",
"      .......................................................   ",
"      .......................................................   ",
"      .......................................................   ",
"      .......................................................   ",
"      .......................................................   ",
"      .......................................................   ",
"      .......................................................   ",
"      .......................................................   ",
"      .......................................................   ",
"      .......................................................   ",
"      .......................................................   ",
"      .......................................................   ",
"      .......................................................   ",
"      .......................................................   ",
"      .......................................................   ",
"      .......................................................   ",
"      .......................................................   ",
"      .......................................................   ",
"      .......................................................   ",
"      .......................................................   ",
"      .......................................................   ",
"      .......................................................   ",
"      .......................................................   ",
"      .......................................................   ",
"      ...........   .........................   .............   ",
"      ...........   .........................   .............   ",
"      .........       .....................       ...........   ",
"      .........       .....................       ...........   ",
"      .......           .................           .........   ",
"      .......           .................           .........   ",
"      .....               .............               .......   ",
"      .....               .............               .......   ",
"      ...                   .........                   .....   ",
"      ...                   .........                   .....   ",
"                                                                ",
"                                                                ",
"                                                                "
};
