/* XPM */
static char *_859d95baf204608a79cf59b44b540cfEM9oACRDH87iGVXK[] = {
/* columns rows colors chars-per-pixel */
"64 64 34 1 ",
"  c #050506",
". c #E20B0D",
"X c #E76F6F",
"o c #E87B7B",
"O c #1031C1",
"+ c #555FC7",
"@ c #767BCE",
"# c #E98080",
"$ c #EA8B8B",
"% c #EB9393",
"& c #EC9A9A",
"* c #EDA3A3",
"= c #8388D1",
"- c #B8BBE2",
"; c #F2C2C2",
": c #F4CECE",
"> c #F5D1D1",
", c #F6D5D5",
"< c #F7DCDC",
"1 c #F8E0E0",
"2 c #F9E7E7",
"3 c #FBEFEF",
"4 c #E3E3F2",
"5 c #E5E5F3",
"6 c #E6E7F4",
"7 c #E8E9F5",
"8 c #ECEDF6",
"9 c #FCF2F2",
"0 c #FDF4F5",
"q c #F1F2F9",
"w c #FDF8F8",
"e c #FAFBFD",
"r c #FBFCFD",
"t c white",
/* pixels */
"                                                                ",
"                                                                ",
"                                                                ",
"            ...........................................         ",
"            ...........................................         ",
"            ...........................................         ",
"         .................................................      ",
"         .................................................      ",
"         ....&>3tt3>&......................#;2wtw2;#......      ",
"      .....$1tttttttt<$..................X:ttttttttt:X.......   ",
"      ....*0tttttttttt3*................%2ttttttttttt2%......   ",
"      ...$9tttttttttttt3$..............o2ttttttttttttt2o.....   ",
"      ...<tttttttttttttt<..............,tt7==7ttttttttt,.....   ",
"      ..&tt7==7q4t4qttttt&............%ttqOOOOqttttttttt%....   ",
"      ..>tqOOOOqtttt8tttt>............:tt-OOOO-ttttttttt:....   ",
"      ..3t-OOOO-tttteettt3............3tt+OOOO+ttttttttt3....   ",
"      ..tt+OOOO+ttttt6tttt............ttt+OOOO+tttttttttt....   ",
"      ..tt+OOOO+ttttt5tttt............ttt-OOOO-tttttttttt....   ",
"      ..3t-OOOO-tttttettt3............3ttqOOOOqttttttttt3....   ",
"      ..>tqOOOOqtttttettt>............:ttt7==7tttttttttt:....   ",
"      ..&tt7=@7tttttt5ttt&............%ttttttttttttttttt%....   ",
"      ...<ttt6ttttttt6tt<..............,ttttttttttttttt,.....   ",
"      ...$3tteettttteet3$..............o2tttrtttttrttt2o.....   ",
"      ....*3tt7ttttt7t3*................%2ttttttttttt2%......   ",
"      .....$<ttq4t4qt<$..................X:ttttttttt:X.......   ",
"      .......&>3tt3>&......................#;2wtw2;#.........   ",
"      .......................................................   ",
"      .......................................................   ",
"      .......................................................   ",
"      .......................................................   ",
"      .......................................................   ",
"      .......................................................   ",
"      .......................................................   ",
"      .......................................................   ",
"      .......................................................   ",
"      .......................................................   ",
"      .......................................................   ",
"      .......................................................   ",
"      .......................................................   ",
"      .......................................................   ",
"      .......................................................   ",
"      .......................................................   ",
"      .......................................................   ",
"      .......................................................   ",
"      .......................................................   ",
"      .......................................................   ",
"      .......................................................   ",
"      .......................................................   ",
"      .......................................................   ",
"      .......................................................   ",
"      .......................................................   ",
"      ...........   .........................   .............   ",
"      ...........   .........................   .............   ",
"      .........       .....................       ...........   ",
"      .........       .....................       ...........   ",
"      .......           .................           .........   ",
"      .......           .................           .........   ",
"      .....               .............               .......   ",
"      .....               .............               .......   ",
"      ...                   .........                   .....   ",
"      ...                   .........                   .....   ",
"                                                                ",
"                                                                ",
"                                                                "
};
