/* XPM */
static char *_c463e4d451942fdf39312320a403ab2TlVMnB1AGQ57yvyt[] = {
/* columns rows colors chars-per-pixel */
"64 64 27 1 ",
"  c #050506",
". c #E20B0D",
"X c #E76F6F",
"o c #E87B7B",
"O c #1031C1",
"+ c #1834C1",
"@ c #5760C8",
"# c #7178CD",
"$ c #E98080",
"% c #EA8B8B",
"& c #EB9393",
"* c #EC9A9A",
"= c #EDA3A3",
"- c #B8BBE1",
"; c #F2C2C2",
": c #F4CECE",
"> c #F5D1D1",
", c #F6D5D5",
"< c #F7DCDC",
"1 c #C1C3E5",
"2 c #F8E0E0",
"3 c #F9E7E7",
"4 c #FBEFEF",
"5 c #FCF2F2",
"6 c #FDF4F5",
"7 c #FDF8F8",
"8 c white",
/* pixels */
"                                                                ",
"                                                                ",
"                                                                ",
"            ...........................................         ",
"            ...........................................         ",
"            ...........................................         ",
"         .................................................      ",
"         .................................................      ",
"         ....*>4884>*......................$;37873;$......      ",
"      .....%288888888<%..................X:888888888:X.......   ",
"      ....=688888888884=................&3888888888883&......   ",
"      ...%58888888888884%..............o388888888888883o.....   ",
"      ...<88888888888888<..............,888888888888888,.....   ",
"      ..*8888888888888888*............&88888888888888888&....   ",
"      ..>8888888888888888>............:88888888888888888:....   ",
"      ..488888888888888884............4888888888888888884....   ",
"      ..888888888888888888............8888888888888888888....   ",
"      ..888888888888888888............8888888888888888888....   ",
"      ..48888881#+#1888884............48888881#+#18888884....   ",
"      ..>88888-OOOOO-8888>............:88888-OOOOO-88888:....   ",
"      ..*88888@OOOOO@8888*............&88888@OOOOO@88888&....   ",
"      ...<8888@OOOOO@888<..............,8888@OOOOO@8888,.....   ",
"      ...%4888-OOOOO-884%..............o3888-OOOOO-8883o.....   ",
"      ....=48881#+#1884=................&38881#+#18883&......   ",
"      .....%<88888888<%..................X:888888888:X.......   ",
"      .......*>4884>*......................$;37873;$.........   ",
"      .......................................................   ",
"      .......................................................   ",
"      .......................................................   ",
"      .......................................................   ",
"      .......................................................   ",
"      .......................................................   ",
"      .......................................................   ",
"      .......................................................   ",
"      .......................................................   ",
"      .......................................................   ",
"      .......................................................   ",
"      .......................................................   ",
"      .......................................................   ",
"      .......................................................   ",
"      .......................................................   ",
"      .......................................................   ",
"      .......................................................   ",
"      .......................................................   ",
"      .......................................................   ",
"      .......................................................   ",
"      .......................................................   ",
"      .......................................................   ",
"      .......................................................   ",
"      .......................................................   ",
"      .......................................................   ",
"      ...........   .........................   .............   ",
"      ...........   .........................   .............   ",
"      .........       .....................       ...........   ",
"      .........       .....................       ...........   ",
"      .......           .................           .........   ",
"      .......           .................           .........   ",
"      .....               .............               .......   ",
"      .....               .............               .......   ",
"      ...                   .........                   .....   ",
"      ...                   .........                   .....   ",
"                                                                ",
"                                                                ",
"                                                                "
};
