/* XPM */
static char *e78ab7b3974e49979d409f314e2a0faewdylhb9u9E416ITH[] = {
/* columns rows colors chars-per-pixel */
"64 64 3 1 ",
"  c black",
". c #E5E305",
"X c white",
/* pixels */
"................................................................",
"................................................................",
"................................................................",
"................................................................",
"................................................................",
"................................................................",
"................................................................",
"................................................................",
"................................................................",
"................................................................",
"................................................................",
"................................................................",
"................................................................",
"................................................................",
"................................................................",
"................................................................",
"................................................................",
"................................................................",
"................................................................",
"................................................................",
"................................................................",
"................................................................",
"................................................................",
"................................................................",
"................................................................",
"................................................................",
"................................................................",
"................................................................",
"................................................................",
"................................................................",
"................................................................",
"................................................................",
"................................................................",
"................................................................",
"................................................................",
"................................................................",
"................................................................",
"................................................................",
"................................................................",
"................................................................",
"................................................................",
".................XXXXXXXXXXXX........XXXXXXXXXXXX...............",
".................XXXXXXXXXXXX........XXXXXXXXXXXX...............",
".................XXXXXXXXXXXX........XXXXXXXXXXXX...............",
".................XXXXXXXXXXXX........XXXXXXXXXXXX...............",
".................XXXXXXXXXXXX........XXXXXXXXXXXX...............",
".................XXXXXXXXXXXX........XXXXXXXXXXXX...............",
".................XXXXXXXXXXXX........XXXXXXXXXXXX...............",
".................XXX      XXX........XXX      XXX...............",
".................XXX      XXX........XXX      XXX...............",
".................XXX      XXX........XXX      XXX...............",
".................XXXXXXXXXXXX........XXXXXXXXXXXX...............",
".................XXXXXXXXXXXX........XXXXXXXXXXXX...............",
"................................................................",
"................................................................",
"................................................................",
"................................................................",
"................................................................",
"................................................................",
"................................................................",
"................................................................",
"................................................................",
"................................................................",
"................................................................"
};
