/* XPM */
static char *_90c667e865e413bd6cb15c13f6c4c559BnjQxEN8QJ3hxuG[] = {
/* columns rows colors chars-per-pixel */
"64 64 3 1 ",
"  c black",
". c #E5E305",
"X c white",
/* pixels */
"................................................................",
"................................................................",
"................................................................",
"................................................................",
"................................................................",
"................................................................",
"................................................................",
"................................................................",
"................................................................",
"................................................................",
"................................................................",
"...............XXXXXXXXXXXX........XXXXXXXXXXXX.................",
"...............XXXXXXXXXXXX........XXXXXXXXXXXX.................",
"...............XXX      XXX........XXX      XXX.................",
"...............XXX      XXX........XXX      XXX.................",
"...............XXX      XXX........XXX      XXX.................",
"...............XXXXXXXXXXXX........XXXXXXXXXXXX.................",
"...............XXXXXXXXXXXX........XXXXXXXXXXXX.................",
"...............XXXXXXXXXXXX........XXXXXXXXXXXX.................",
"...............XXXXXXXXXXXX........XXXXXXXXXXXX.................",
"...............XXXXXXXXXXXX........XXXXXXXXXXXX.................",
"...............XXXXXXXXXXXX........XXXXXXXXXXXX.................",
"...............XXXXXXXXXXXX........XXXXXXXXXXXX.................",
"................................................................",
"................................................................",
"................................................................",
"................................................................",
"................................................................",
"................................................................",
"................................................................",
"................................................................",
"................................................................",
"................................................................",
"................................................................",
"................................................................",
"................................................................",
"................................................................",
"................................................................",
"................................................................",
"................................................................",
"................................................................",
"................................................................",
"................................................................",
"................................................................",
"................................................................",
"................................................................",
"................................................................",
"................................................................",
"................................................................",
"................................................................",
"................................................................",
"................................................................",
"................................................................",
"................................................................",
"................................................................",
"................................................................",
"................................................................",
"................................................................",
"................................................................",
"................................................................",
"................................................................",
"................................................................",
"................................................................",
"................................................................"
};
