/* XPM */
static char *c4466404d3084fc79739425a17b8b3c2hQv9FOTNgYJKpO1O[] = {
/* columns rows colors chars-per-pixel */
"64 64 3 1 ",
"  c black",
". c #E5E305",
"X c white",
/* pixels */
"................................................................",
"................................................................",
"................................................................",
"................................................................",
"................................................................",
"................................................................",
"................................................................",
"................................................................",
"................................................................",
"................................................................",
"................................................................",
"................................................................",
"................................................................",
"................................................................",
"................................................................",
".........................................XXXXXXXXXXXX...........",
".........................................XXXXXXXXXXXX...........",
".........................................XXXXXXXXXXXX...........",
".........................................XXXXXXX   XX...........",
".........................................XXXXXXX   XX...........",
".........................................XXXXXXX   XX...........",
".........................................XXXXXXX   XX...........",
".........................................XXXXXXX   XX...........",
".........................................XXXXXXX   XX...........",
".........................................XXXXXXXXXXXX...........",
".........................................XXXXXXXXXXXX...........",
".........................................XXXXXXXXXXXX...........",
"................................................................",
"................................................................",
"................................................................",
"................................................................",
"................................................................",
"................................................................",
"................................................................",
"................................................................",
".........................................XXXXXXXXXXXX...........",
".........................................XXXXXXXXXXXX...........",
".........................................XXXXXXXXXXXX...........",
".........................................XXXXXXX   XX...........",
".........................................XXXXXXX   XX...........",
".........................................XXXXXXX   XX...........",
".........................................XXXXXXX   XX...........",
".........................................XXXXXXX   XX...........",
".........................................XXXXXXX   XX...........",
".........................................XXXXXXXXXXXX...........",
".........................................XXXXXXXXXXXX...........",
".........................................XXXXXXXXXXXX...........",
"................................................................",
"................................................................",
"................................................................",
"................................................................",
"................................................................",
"................................................................",
"................................................................",
"................................................................",
"................................................................",
"................................................................",
"................................................................",
"................................................................",
"................................................................",
"................................................................",
"................................................................",
"................................................................",
"................................................................"
};
