/* XPM */
static char *_8f84c9111f74b44c1c99cbe18cab9e08qadlOfSnjZc0kHT[] = {
/* columns rows colors chars-per-pixel */
"64 64 3 1 ",
"  c black",
". c #E5E305",
"X c white",
/* pixels */
"................................................................",
"................................................................",
"................................................................",
"................................................................",
"................................................................",
"................................................................",
"................................................................",
"................................................................",
"................................................................",
"................................................................",
"................................................................",
"................................................................",
"................................................................",
"................................................................",
"................................................................",
"................................................................",
"................................................................",
"...........XXXXXXXXXXXX.........................................",
"...........XXXXXXXXXXXX.........................................",
"...........XXXXXXXXXXXX.........................................",
"...........XX   XXXXXXX.........................................",
"...........XX   XXXXXXX.........................................",
"...........XX   XXXXXXX.........................................",
"...........XX   XXXXXXX.........................................",
"...........XX   XXXXXXX.........................................",
"...........XX   XXXXXXX.........................................",
"...........XXXXXXXXXXXX.........................................",
"...........XXXXXXXXXXXX.........................................",
"...........XXXXXXXXXXXX.........................................",
"................................................................",
"................................................................",
"................................................................",
"................................................................",
"................................................................",
"................................................................",
"................................................................",
"................................................................",
"...........XXXXXXXXXXXX.........................................",
"...........XXXXXXXXXXXX.........................................",
"...........XXXXXXXXXXXX.........................................",
"...........XX   XXXXXXX.........................................",
"...........XX   XXXXXXX.........................................",
"...........XX   XXXXXXX.........................................",
"...........XX   XXXXXXX.........................................",
"...........XX   XXXXXXX.........................................",
"...........XX   XXXXXXX.........................................",
"...........XXXXXXXXXXXX.........................................",
"...........XXXXXXXXXXXX.........................................",
"...........XXXXXXXXXXXX.........................................",
"................................................................",
"................................................................",
"................................................................",
"................................................................",
"................................................................",
"................................................................",
"................................................................",
"................................................................",
"................................................................",
"................................................................",
"................................................................",
"................................................................",
"................................................................",
"................................................................",
"................................................................"
};
