/* XPM */
static char *e9a41342eb9d4f62f56ee3eddc55b71bvhEYRUmdWCvcDX5p[] = {
/* columns rows colors chars-per-pixel */
"64 64 2 1 ",
"  c #050506",
". c #1031C1",
/* pixels */
"....................                         ...................",
"....................                         ...................",
"....................                         ...................",
"...                                                          ...",
"...                                                          ...",
"...                                                          ...",
"...                                                          ...",
"...                                                          ...",
"...                                                          ...",
"...                                                          ...",
"...                                                          ...",
"...                                                          ...",
"...                                                          ...",
"...                                                          ...",
"...                                                          ...",
"...                                                          ...",
"...                                                          ...",
"...                                                          ...",
"...                                                          ...",
"...                                                          ...",
"...                                                          ...",
"                                                                ",
"                                                                ",
"                                                                ",
"                                                                ",
"                                                                ",
"                                                                ",
"                                                                ",
"                                                                ",
"                                                                ",
"                                                                ",
"                                                                ",
"                                                                ",
"                                                                ",
"                                                                ",
"                                                                ",
"                                                                ",
"                                                                ",
"                                                                ",
"                                                                ",
"                                                                ",
"                                                                ",
"...                                                          ...",
"...                                                          ...",
"...                                                          ...",
"...                                                          ...",
"...                                                          ...",
"...                                                          ...",
"...                                                          ...",
"...                                                          ...",
"...                                                          ...",
"...                                                          ...",
"...                                                          ...",
"...                                                          ...",
"...                                                          ...",
"...                                                          ...",
"...                                                          ...",
"...                                                          ...",
"...                                                          ...",
"...                                                          ...",
"...                                                          ...",
"....................                         ...................",
"....................                         ...................",
"....................                         ..................."
};
