/* XPM */
static char *_9beb2bd2cad4b98c12c8343ba580c5azIUaHXx6BJrDCcn6[] = {
/* columns rows colors chars-per-pixel */
"64 64 4 1 ",
"  c #0C0A07",
". c #BCAC0C",
"X c #EFE82C",
"o c #6C8BFB",
/* pixels */
"oooooooooooooooooooooooooooooooooooooooooooooooooooooooooooooooo",
"oooooooooooooooooooooooooooooooooooooooooooooooooooooooooooooooo",
"oooooooooooooooooooooooooooooooooooooooooooooooooooooooooooooooo",
"oooooooooooooooooooooooooooooooooooooooooooooooooooooooooooooooo",
"oooooooooooooooooooooooooooooooooooooooooooooooooooooooooooooooo",
"oooooooooooooooooooooooooooooooooooooooooooooooooooooooooooooooo",
"oooooooooooooooooooooooooooooooooooooooooooooooooooooooooooooooo",
"oooooooooooooooooooooooooooooooooooooooooooooooooooooooooooooooo",
"oooooooooooooooooooooooooooooooooooooooooooooooooooooooooooooooo",
"oooooooooooooooooooooooooooooooooooooooooooooooooooooooooooooooo",
"ooooooooooooooooooooooooooo      ooooooooooooooooooooooooooooooo",
"ooooooooooooooooooooooooooo      ooooooooooooooooooooooooooooooo",
"ooooooooooooooooooooooooooo      ooooooooooooooooooooooooooooooo",
"oooooooooooooooooooooooo   XXXXXX   oooooooooooooooooooooooooooo",
"oooooooooooooooooooooooo   XXXXXX   oooooooooooooooooooooooooooo",
"oooooooooooooooooooooooo   XXXXXX   oooooooooooooooooooooooooooo",
"oooooooooooooooooooooooo   XXXXXX   oooooooooooooooooooooooooooo",
"oooooooooooooooooooooooo   XXXXXX   oooooooooooooooooooooooooooo",
"oooooooooooooooooooooooo   XXXXXX   oooooooooooooooooooooooooooo",
"ooooooooooooooooooooo   XXXXXXXXXXXX   ooooooooooooooooooooooooo",
"ooooooooooooooooooooo   XXXXXXXXXXXX   ooooooooooooooooooooooooo",
"ooooooooooooooooooooo   XXXXXXXXXXXX   ooooooooooooooooooooooooo",
"oooooo                  XXXXXXXXXXXX                  oooooooooo",
"oooooo                  XXXXXXXXXXXX                  oooooooooo",
"oooooo                  XXXXXXXXXXXX                  oooooooooo",
"oooooo   XXXXXXXXXXXXXXXXXXXXXXXXXXXXXXXXXXXXXXXXXX   oooooooooo",
"oooooo   XXXXXXXXXXXXXXXXXXXXXXXXXXXXXXXXXXXXXXXXXX   oooooooooo",
"oooooo   XXXXXXXXXXXXXXXXXXXXXXXXXXXXXXXXXXXXXXXXXX   oooooooooo",
"ooooooooo   ...XXXXXXXXXXXXXXXXXXXXXXXXXXXXXX...   ooooooooooooo",
"ooooooooo   ...XXXXXXXXXX   XXXX   XXXXXXXXXX...   ooooooooooooo",
"ooooooooo   ...XXXXXXXXXX   XXXX   XXXXXXXXXX...   ooooooooooooo",
"oooooooooooo   ...XXXXXXX   XXXX   XXXXXXX...   oooooooooooooooo",
"oooooooooooo   ...XXXXXXX   XXXX   XXXXXXX...   oooooooooooooooo",
"oooooooooooo   ...XXXXXXX   XXXX   XXXXXXX...   oooooooooooooooo",
"ooooooooooooooo   ...XXXX   XXXX   XXXX...   ooooooooooooooooooo",
"ooooooooooooooo   ...XXXX   XXXX   XXXX...   ooooooooooooooooooo",
"ooooooooooooooo   ...XXXX   XXXX   XXXX...   ooooooooooooooooooo",
"ooooooooooooooo   ...XXXX   XXXX   XXXX...   ooooooooooooooooooo",
"ooooooooooooooo   ...XXXXXXXXXXXXXXXXXX...   ooooooooooooooooooo",
"ooooooooooooooo   ...XXXXXXXXXXXXXXXXXX...   ooooooooooooooooooo",
"oooooooooooo   ...XXXXXXXXXXXXXXXXXXXXXXXX...   oooooooooooooooo",
"oooooooooooo   ...XXXXXXXXXXXXXXXXXXXXXXXX...   oooooooooooooooo",
"oooooooooooo   ...XXXXXXXXXXXXXXXXXXXXXXXX...   oooooooooooooooo",
"oooooooooooo   ...XXXXXXXXXXXXXXXXXXXXXXXX...   oooooooooooooooo",
"oooooooooooo   ...XXXXXXXXXXXXXXXXXXXXXXXX...   oooooooooooooooo",
"oooooooooooo   ...XXXXXXXXXXXXXXXXXXXXXXXX...   oooooooooooooooo",
"ooooooooo   ...XXXXXX......      ......XXXXXX...   ooooooooooooo",
"ooooooooo   ...XXXXXX......      ......XXXXXX...   ooooooooooooo",
"ooooooooo   ...XXXXXX......      ......XXXXXX...   ooooooooooooo",
"ooooooooo   .........      oooooo      .........   ooooooooooooo",
"ooooooooo   .........      oooooo      .........   ooooooooooooo",
"ooooooooo   .........      oooooo      .........   ooooooooooooo",
"oooooo   ......      oooooooooooooooooo      ......   oooooooooo",
"oooooo   ......      oooooooooooooooooo      ......   oooooooooo",
"oooooo   ......      oooooooooooooooooo      ......   oooooooooo",
"oooooo         oooooooooooooooooooooooooooooo         oooooooooo",
"oooooo         oooooooooooooooooooooooooooooo         oooooooooo",
"oooooo         oooooooooooooooooooooooooooooo         oooooooooo",
"oooooooooooooooooooooooooooooooooooooooooooooooooooooooooooooooo",
"oooooooooooooooooooooooooooooooooooooooooooooooooooooooooooooooo",
"oooooooooooooooooooooooooooooooooooooooooooooooooooooooooooooooo",
"oooooooooooooooooooooooooooooooooooooooooooooooooooooooooooooooo",
"oooooooooooooooooooooooooooooooooooooooooooooooooooooooooooooooo",
"oooooooooooooooooooooooooooooooooooooooooooooooooooooooooooooooo"
};
