/* XPM */
static char *dd835cc4ef5e4135dc394b6815753f7b3H8Mbu3rynKR57DB[] = {
/* columns rows colors chars-per-pixel */
"69 65 9 1 ",
"  c None",
". c black",
"X c #343434",
"o c #4E4E4E",
"O c #CF8524",
"+ c #FBB354",
"@ c #6C8BFB",
"# c gray57",
"$ c white",
/* pixels */
"@@@@@@@@@@@@@@@@@@@@@@@@@@@@@@@@@@@@@@@@@@@@@@@@@@@@@@@@@@@@@@@@     ",
"@@@@@@@@@@@@@@@@@@@@@@@@@@@@@@@@@@@@@@@@@@@@@@@@@@@@@@@@@@@@@@@@@@@@@",
"@@@@@@@@@@@@@@@@@@@@@@@@@@@@@@@@@@@@@@@@@@@@@@@@@@@@@@@@@@@@@@@@@@@@@",
"@@@@@@@@@@@@@@@@@@@@@@@@@@@@@@@@@@@@@@@@@@@@@@@@@@@@@@@@@@@@@@@@@@@@@",
"@@@@@@@@@@@@@@@@@@@@@@@@@@@@@@@@@@@@@@@@@@@@@@@@@@@@@@@@@@@@@@@@@@@@@",
"@@@@@@@@@@@@@@@@@@@@@@@@@@@@@@@@@$$$$@@@@@@@@@@@@@@@@@@@@@@@@@@@@@@@@",
"@@@@@@@@@@@@@@@@@@@@@@@@@@@@@@@@@$$$$@@@@@@@@@@@@@@@@@@@@@@@@@@@@@@@@",
"@@@@@@@@@@@@@@@@@@@@@@@@@@@@@@@@@$$$$@@@@@@@@@@@@@@@@@@@@@@@@@@@@@@@@",
"@@@@@@@@@@@@@@@@@@@@@@@@@@@@@############@@@@@@@@@@@@@@@@@@@@@@@@@@@@",
"@@@@@@@@@@@@@@@@@@@@@@@@@@@@@############@@@@@@@@@@@@@@@@@@@@@@@@@@@@",
"@@@@@@@@@@@@@@@@@@@@@@@@@@@@@############@@@@@@@@@@@@@@@@@@@@@@@@@@@@",
"@@@@@@@@@@@@@@@@@@@@@@@@@@@@@............@@@@@@@@@@@@@@@@@@@@@@@@@@@@",
"@@@@@@@@@@@@@@@@@@@@@@@@@@@@@............@@@@@@@@@@@@@@@@@@@@@@@@@@@@",
"@@@@@@@@@@@@@@@@@@@@@@@@@@@@@............@@@@@@@@@@@@@@@@@@@@@@@@@@@@",
"@@@@@@@@@@@@@@@@@@@@@@@........................@@@@@@@@@@@@@@@@@@@@@@",
"@@@@@@@@@@@@@@@@@@@@@@@........................@@@@@@@@@@@@@@@@@@@@@@",
"@@@@@@@@@@@@@@@@@@@@@@@........................@@@@@@@@@@@@@@@@@@@@@@",
"@@@@@@@@@@@@@@@@@@@@..............................@@@@@@@@@@@@@@@@@@@",
"@@@@@@@@@@@@@@@@@@@@..............................@@@@@@@@@@@@@@@@@@@",
"@@@@@@@@@@@@@@@@@@@@..............................@@@@@@@@@@@@@@@@@@@",
"@@@@@@@@@@@@@@@@@....................................@@@@@@@@@@@@@@@@",
"@@@@@@@@@@@@@@@@@....................................@@@@@@@@@@@@@@@@",
"@@@@@@@@@@@@@@@@@....................................@@@@@@@@@@@@@@@@",
"@@@@@@@@@@@@@@@@@.......................................@@@@@@@@@@@@@",
"@@@@@@@@@@@@@@@@@.......................................@@@@@@@@@@@@@",
"@@@@@@@@@@@@@@@@@.......................................@@@@@@@@@@@@@",
"@@@@@@@@@@@@@@..........................................@@@@@@@@@@@@@",
"@@@@@@@@@@@@@@................$$$####$$$................@@@@@@@@@@@@@",
"@@@@@@@@@@@@@@................$$$####$$$................@@@@@@@@@@@@@",
"@@@@@@@@@@@@@@................$$$####$$$................@@@@@@@@@@@@@",
"@@@@@@@@@@@@@@................$$$oooo$$$................@@@@@@@@@@@@@",
"@@@@@@@@@@@@@@................$$$oooo$$$................@@@@@@@@@@@@@",
"@@@@@@@@@@@@@@................$$$oooo$$$................@@@@@@@@@@@@@",
"@@@@@@@@@@@@@@................$$$XXXX$$$................@@@@@@@@@@@@@",
"@@@@@@@@@@@@@@................$$$XXXX$$$................@@@@@@@@@@@@@",
"@@@@@@@@@@@@@@................$$$XXXX$$$................@@@@@@@@@@@@@",
"@@@@@@@@@@@@@@..........................................@@@@@@@@@@@@@",
"@@@@@@@@@@@@@@..........................................@@@@@@@@@@@@@",
"@@@@@@@@@@@@@@@@@.......................................@@@@@@@@@@@@@",
"@@@@@@@@@@@@@@@@@.......................................@@@@@@@@@@@@@",
"@@@@@@@@@@@@@@@@@.......................................@@@@@@@@@@@@@",
"@@@@@@@@@@@@@@@@@....................................@@@@@@@@@@@@@@@@",
"@@@@@@@@@@@@@@@@@....................................@@@@@@@@@@@@@@@@",
"@@@@@@@@@@@@@@@@@....................................@@@@@@@@@@@@@@@@",
"@@@@@@@@@@@@@@@@@@@@..............................@@@@@@@@@@@@@@@@@@@",
"@@@@@@@@@@@@@@@@@@@@..............................@@@@@@@@@@@@@@@@@@@",
"@@@@@@@@@@@@@@@@@@@@..............................@@@@@@@@@@@@@@@@@@@",
"@@@@@@@@@@@@@@@@@...OOOOOO..................OOOOOO...@@@@@@@@@@@@@@@@",
"@@@@@@@@@@@@@@@@@...OOOOOO..................OOOOOO...@@@@@@@@@@@@@@@@",
"@@@@@@@@@@@@@@@@@...OOOOOO..................OOOOOO...@@@@@@@@@@@@@@@@",
"@@@@@@@@@@@@@@@@@...OOO++++++............++++++OOO...@@@@@@@@@@@@@@@@",
"@@@@@@@@@@@@@@@@@...OOO++++++............++++++OOO...@@@@@@@@@@@@@@@@",
"@@@@@@@@@@@@@@@@@...OOO++++++............++++++OOO...@@@@@@@@@@@@@@@@",
"@@@@@@@@@@@@@@@@@@@@...++++++...@@@@@@...++++++...@@@@@@@@@@@@@@@@@@@",
"@@@@@@@@@@@@@@@@@@@@...++++++...@@@@@@...++++++...@@@@@@@@@@@@@@@@@@@",
"@@@@@@@@@@@@@@@@@@@@...++++++...@@@@@@...++++++...@@@@@@@@@@@@@@@@@@@",
"@@@@@@@@@@@@@@@@@@@@@@@......@@@@@@@@@@@@......@@@@@@@@@@@@@@@@@@@@@@",
"@@@@@@@@@@@@@@@@@@@@@@@......@@@@@@@@@@@@......@@@@@@@@@@@@@@@@@@@@@@",
"@@@@@@@@@@@@@@@@@@@@@@@......@@@@@@@@@@@@......@@@@@@@@@@@@@@@@@@@@@@",
"@@@@@@@@@@@@@@@@@@@@@@@@@@@@@@@@@@@@@@@@@@@@@@@@@@@@@@@@@@@@@@@@@@@@@",
"@@@@@@@@@@@@@@@@@@@@@@@@@@@@@@@@@@@@@@@@@@@@@@@@@@@@@@@@@@@@@@@@@@@@@",
"@@@@@@@@@@@@@@@@@@@@@@@@@@@@@@@@@@@@@@@@@@@@@@@@@@@@@@@@@@@@@@@@@@@@@",
"@@@@@@@@@@@@@@@@@@@@@@@@@@@@@@@@@@@@@@@@@@@@@@@@@@@@@@@@@@@@@@@@@@@@@",
"@@@@@@@@@@@@@@@@@@@@@@@@@@@@@@@@@@@@@@@@@@@@@@@@@@@@@@@@@@@@@@@@@@@@@",
"     @@@@@@@@@@@@@@@@@@@@@@@@@@@@@@@@@@@@@@@@@@@@@@@@@@@@@@@@@@@@@@@@"
};
