/* XPM */
static char *_ef9b3ea62f445bbdcb001f493a27391UtCS8Hiqy8PFF13y[] = {
/* columns rows colors chars-per-pixel */
"69 65 7 1 ",
"  c None",
". c black",
"X c #CF8524",
"o c #FBB354",
"O c #6C8BFB",
"+ c gray57",
"@ c white",
/* pixels */
"OOOOOOOOOOOOOOOOOOOOOOOOOOOOOOOOOOOOOOOOOOOOOOOOOOOOOOOOOOOOOOOO     ",
"OOOOOOOOOOOOOOOOOOOOOOOOOOOOOOOOOOOOOOOOOOOOOOOOOOOOOOOOOOOOOOOOOOOOO",
"OOOOOOOOOOOOOOOOOOOOOOOOOOOOOOOOOOOOOOOOOOOOOOOOOOOOOOOOOOOOOOOOOOOOO",
"OOOOOOOOOOOOOOOOOOOOOOOOOOOOOOOOOOOOOOOOOOOOOOOOOOOOOOOOOOOOOOOOOOOOO",
"OOOOOOOOOOOOOOOOOOOOOOOOOOOOOOOOOOOOOOOOOOOOOOOOOOOOOOOOOOOOOOOOOOOOO",
"OOOOOOOOOOOOOOOOOOOOOOOOOOOOOOOOO@@@@OOOOOOOOOOOOOOOOOOOOOOOOOOOOOOOO",
"OOOOOOOOOOOOOOOOOOOOOOOOOOOOOOOOO@@@@OOOOOOOOOOOOOOOOOOOOOOOOOOOOOOOO",
"OOOOOOOOOOOOOOOOOOOOOOOOOOOOOOOOO@@@@OOOOOOOOOOOOOOOOOOOOOOOOOOOOOOOO",
"OOOOOOOOOOOOOOOOOOOOOOOOOOOOO++++++++++++OOOOOOOOOOOOOOOOOOOOOOOOOOOO",
"OOOOOOOOOOOOOOOOOOOOOOOOOOOOO++++++++++++OOOOOOOOOOOOOOOOOOOOOOOOOOOO",
"OOOOOOOOOOOOOOOOOOOOOOOOOOOOO++++++++++++OOOOOOOOOOOOOOOOOOOOOOOOOOOO",
"OOOOOOOOOOOOOOOOOOOOOOOOOOOOO............OOOOOOOOOOOOOOOOOOOOOOOOOOOO",
"OOOOOOOOOOOOOOOOOOOOOOOOOOOOO............OOOOOOOOOOOOOOOOOOOOOOOOOOOO",
"OOOOOOOOOOOOOOOOOOOOOOOOOOOOO............OOOOOOOOOOOOOOOOOOOOOOOOOOOO",
"OOOOOOOOOOOOOOOOOOOOOOO........................OOOOOOOOOOOOOOOOOOOOOO",
"OOOOOOOOOOOOOOOOOOOOOOO........................OOOOOOOOOOOOOOOOOOOOOO",
"OOOOOOOOOOOOOOOOOOOOOOO........................OOOOOOOOOOOOOOOOOOOOOO",
"OOOOOOOOOOOOOOOOOOOO..............................OOOOOOOOOOOOOOOOOOO",
"OOOOOOOOOOOOOOOOOOOO..............................OOOOOOOOOOOOOOOOOOO",
"OOOOOOOOOOOOOOOOOOOO..............................OOOOOOOOOOOOOOOOOOO",
"OOOOOOOOOOOOOOOOO....................................OOOOOOOOOOOOOOOO",
"OOOOOOOOOOOOOOOOO....................................OOOOOOOOOOOOOOOO",
"OOOOOOOOOOOOOOOOO....................................OOOOOOOOOOOOOOOO",
"OOOOOOOOOOOOOOOOO................XXXX...................OOOOOOOOOOOOO",
"OOOOOOOOOOOOOOOOO................XXXX...................OOOOOOOOOOOOO",
"OOOOOOOOOOOOOOOOO................XXXX...................OOOOOOOOOOOOO",
"OOOOOOOOOOOOOO...................XXXX...................OOOOOOOOOOOOO",
"OOOOOOOOOOOOOO...................XXXX...................OOOOOOOOOOOOO",
"OOOOOOOOOOOOOO...................XXXX...................OOOOOOOOOOOOO",
"OOOOOOOOOOOOOO...................XXXX...................OOOOOOOOOOOOO",
"OOOOOOOOOOOOOO...................XXXX...................OOOOOOOOOOOOO",
"OOOOOOOOOOOOOO...................XXXX...................OOOOOOOOOOOOO",
"OOOOOOOOOOOOOO...................XXXX...................OOOOOOOOOOOOO",
"OOOOOOOOOOOOOO...................XXXX...................OOOOOOOOOOOOO",
"OOOOOOOOOOOOOO...................XXXX...................OOOOOOOOOOOOO",
"OOOOOOOOOOOOOO...................XXXX...................OOOOOOOOOOOOO",
"OOOOOOOOOOOOOO...................XXXX...................OOOOOOOOOOOOO",
"OOOOOOOOOOOOOO..........................................OOOOOOOOOOOOO",
"OOOOOOOOOOOOOOOOO.......................................OOOOOOOOOOOOO",
"OOOOOOOOOOOOOOOOO.......................................OOOOOOOOOOOOO",
"OOOOOOOOOOOOOOOOO.......................................OOOOOOOOOOOOO",
"OOOOOOOOOOOOOOOOO....................................OOOOOOOOOOOOOOOO",
"OOOOOOOOOOOOOOOOO....................................OOOOOOOOOOOOOOOO",
"OOOOOOOOOOOOOOOOO....................................OOOOOOOOOOOOOOOO",
"OOOOOOOOOOOOOOOOOOOO..............................OOOOOOOOOOOOOOOOOOO",
"OOOOOOOOOOOOOOOOOOOO..............................OOOOOOOOOOOOOOOOOOO",
"OOOOOOOOOOOOOOOOOOOO..............................OOOOOOOOOOOOOOOOOOO",
"OOOOOOOOOOOOOOOOO...oooooo..................oooooo...OOOOOOOOOOOOOOOO",
"OOOOOOOOOOOOOOOOO...oooooo..................oooooo...OOOOOOOOOOOOOOOO",
"OOOOOOOOOOOOOOOOO...oooooo..................oooooo...OOOOOOOOOOOOOOOO",
"OOOOOOOOOOOOOOOOO...oooXXXXXX............XXXoooooo...OOOOOOOOOOOOOOOO",
"OOOOOOOOOOOOOOOOO...oooXXXXXX............XXXoooooo...OOOOOOOOOOOOOOOO",
"OOOOOOOOOOOOOOOOO...oooXXXXXX............XXXoooooo...OOOOOOOOOOOOOOOO",
"OOOOOOOOOOOOOOOOOOOO...XXXXXX...OOOOOO...XXXXXX...OOOOOOOOOOOOOOOOOOO",
"OOOOOOOOOOOOOOOOOOOO...XXXXXX...OOOOOO...XXXXXX...OOOOOOOOOOOOOOOOOOO",
"OOOOOOOOOOOOOOOOOOOO...XXXXXX...OOOOOO...XXXXXX...OOOOOOOOOOOOOOOOOOO",
"OOOOOOOOOOOOOOOOOOOOOOO......OOOOOOOOOOOO......OOOOOOOOOOOOOOOOOOOOOO",
"OOOOOOOOOOOOOOOOOOOOOOO......OOOOOOOOOOOO......OOOOOOOOOOOOOOOOOOOOOO",
"OOOOOOOOOOOOOOOOOOOOOOO......OOOOOOOOOOOO......OOOOOOOOOOOOOOOOOOOOOO",
"OOOOOOOOOOOOOOOOOOOOOOOOOOOOOOOOOOOOOOOOOOOOOOOOOOOOOOOOOOOOOOOOOOOOO",
"OOOOOOOOOOOOOOOOOOOOOOOOOOOOOOOOOOOOOOOOOOOOOOOOOOOOOOOOOOOOOOOOOOOOO",
"OOOOOOOOOOOOOOOOOOOOOOOOOOOOOOOOOOOOOOOOOOOOOOOOOOOOOOOOOOOOOOOOOOOOO",
"OOOOOOOOOOOOOOOOOOOOOOOOOOOOOOOOOOOOOOOOOOOOOOOOOOOOOOOOOOOOOOOOOOOOO",
"OOOOOOOOOOOOOOOOOOOOOOOOOOOOOOOOOOOOOOOOOOOOOOOOOOOOOOOOOOOOOOOOOOOOO",
"     OOOOOOOOOOOOOOOOOOOOOOOOOOOOOOOOOOOOOOOOOOOOOOOOOOOOOOOOOOOOOOOO"
};
