/* XPM */
static char *_2452edb97574922a3a6214528432d50KFjt2xtxXLTahr7Z[] = {
/* columns rows colors chars-per-pixel */
"69 65 9 1 ",
"  c None",
". c black",
"X c #343434",
"o c #4E4E4E",
"O c #CF8524",
"+ c #FBB354",
"@ c #6C8BFB",
"# c gray57",
"$ c white",
/* pixels */
"@@@@@@@@@@@@@@@@@@@@@@@@@@@@@@@@@@@@@@@@@@@@@@@@@@@@@@@@@@@@@@@@     ",
"@@@@@@@@@@@@@@@@@@@@@@@@@@@@@@@@@@@@@@@@@@@@@@@@@@@@@@@@@@@@@@@@@@@@@",
"@@@@@@@@@@@@@@@@@@@@@@@@@@@@@@@@@@@@@@@@@@@@@@@@@@@@@@@@@@@@@@@@@@@@@",
"@@@@@@@@@@@@@@@@@@@@@@@@@@@@@@@@@@@@@@@@@@@@@@@@@@@@@@@@@@@@@@@@@@@@@",
"@@@@@@@@@@@@@@@@@@@@@@@@@@@@@@@@@@@@@@@@@@@@@@@@@@@@@@@@@@@@@@@@@@@@@",
"@@@@@@@@@@@@@@@@@@@@@@@@@@@@@@@@@$$$$@@@@@@@@@@@@@@@@@@@@@@@@@@@@@@@@",
"@@@@@@@@@@@@@@@@@@@@@@@@@@@@@@@@@$$$$@@@@@@@@@@@@@@@@@@@@@@@@@@@@@@@@",
"@@@@@@@@@@@@@@@@@@@@@@@@@@@@@@@@@$$$$@@@@@@@@@@@@@@@@@@@@@@@@@@@@@@@@",
"@@@@@@@@@@@@@@@@@@@@@@@@@@@@@############@@@@@@@@@@@@@@@@@@@@@@@@@@@@",
"@@@@@@@@@@@@@@@@@@@@@@@@@@@@@############@@@@@@@@@@@@@@@@@@@@@@@@@@@@",
"@@@@@@@@@@@@@@@@@@@@@@@@@@@@@############@@@@@@@@@@@@@@@@@@@@@@@@@@@@",
"@@@@@@@@@@@@@@@@@@@@@@@@@@@@@............@@@@@@@@@@@@@@@@@@@@@@@@@@@@",
"@@@@@@@@@@@@@@@@@@@@@@@@@@@@@............@@@@@@@@@@@@@@@@@@@@@@@@@@@@",
"@@@@@@@@@@@@@@@@@@@@@@@@@@@@@............@@@@@@@@@@@@@@@@@@@@@@@@@@@@",
"@@@@@@@@@@@@@@@@@@@@@@@........................@@@@@@@@@@@@@@@@@@@@@@",
"@@@@@@@@@@@@@@@@@@@@@@@........................@@@@@@@@@@@@@@@@@@@@@@",
"@@@@@@@@@@@@@@@@@@@@@@@........................@@@@@@@@@@@@@@@@@@@@@@",
"@@@@@@@@@@@@@@@@@@@@..............................@@@@@@@@@@@@@@@@@@@",
"@@@@@@@@@@@@@@@@@@@@..............................@@@@@@@@@@@@@@@@@@@",
"@@@@@@@@@@@@@@@@@@@@..............................@@@@@@@@@@@@@@@@@@@",
"@@@@@@@@@@@@@@@@@....................................@@@......@@@@@@@",
"@@@@@@@@@@@@@@@@@......####..........................@@@......@@@@@@@",
"@@@@@@@@@@@@@@@@@......####..........................@@@......@@@@@@@",
"@@@@@@@@@@@@@@@@@...$$$####$$$..........................OOO...@@@@@@@",
"@@@@@@@@@@@@@@@@@...$$$####$$$..........................OOO...@@@@@@@",
"@@@@@@@@@@@@@@@@@...$$$oooo$$$..........................OOO...@@@@@@@",
"@@@@@@@@@@@@@@......$$$oooo$$$..........................OOO...@@@@@@@",
"@@@@@@@@@@@@@@......$$$oooo$$$..........................OOO...@@@@@@@",
"@@@@@@@@@@@@@@......$$$oooo$$$..........................OOO...@@@@@@@",
"@@@@@@@@@@@@@@......$$$XXXX$$$....................++++++OOO...@@@@@@@",
"@@@@@@@@@@@@@@......$$$XXXX$$$....................++++++OOO...@@@@@@@",
"@@@@@@@@@@@@@@......$$$XXXX$$$....................++++++OOO...@@@@@@@",
"@@@@@@@@@@@@@@....................................++++++OOO...@@@@@@@",
"@@@@@@@@@@@@@@....................................++++++OOO...@@@@@@@",
"@@@@@@@@@@@@@@....................................++++++OOO...@@@@@@@",
"@@@@@@@@@@@@@@..........................................OOO...@@@@@@@",
"@@@@@@@@@@@@@@..........................................OOO...@@@@@@@",
"@@@@@@@@@@@@@@..........................................OOO...@@@@@@@",
"@@@@@@@@@@@@@@@@@.......................................OOO...@@@@@@@",
"@@@@@@@@@@@@@@@@@.......................................OOO...@@@@@@@",
"@@@@@@@@@@@@@@@@@.......................................OOO...@@@@@@@",
"@@@@@@@@@@@@@@@@@....................................@@@......@@@@@@@",
"@@@@@@@@@@@@@@@@@....................................@@@......@@@@@@@",
"@@@@@@@@@@@@@@@@@....................................@@@......@@@@@@@",
"@@@@@@@@@@@@@@@@@@@@..............................@@@@@@@@@@@@@@@@@@@",
"@@@@@@@@@@@@@@@@@@@@..............................@@@@@@@@@@@@@@@@@@@",
"@@@@@@@@@@@@@@@@@@@@..............................@@@@@@@@@@@@@@@@@@@",
"@@@@@@@@@@@@@@@@@...+++OOO..................OOOOOO...@@@@@@@@@@@@@@@@",
"@@@@@@@@@@@@@@@@@...+++OOO..................OOOOOO...@@@@@@@@@@@@@@@@",
"@@@@@@@@@@@@@@@@@...+++OOO..................OOOOOO...@@@@@@@@@@@@@@@@",
"@@@@@@@@@@@@@@@@@...+++OOOOOO............+++OOOOOO...@@@@@@@@@@@@@@@@",
"@@@@@@@@@@@@@@@@@...+++OOOOOO............+++OOOOOO...@@@@@@@@@@@@@@@@",
"@@@@@@@@@@@@@@@@@...+++OOOOOO............+++OOOOOO...@@@@@@@@@@@@@@@@",
"@@@@@@@@@@@@@@@@@@@@...+++OOO...@@@@@@...++++++...@@@@@@@@@@@@@@@@@@@",
"@@@@@@@@@@@@@@@@@@@@...+++OOO...@@@@@@...++++++...@@@@@@@@@@@@@@@@@@@",
"@@@@@@@@@@@@@@@@@@@@...+++OOO...@@@@@@...++++++...@@@@@@@@@@@@@@@@@@@",
"@@@@@@@@@@@@@@@@@@@@@@@......@@@@@@@@@@@@......@@@@@@@@@@@@@@@@@@@@@@",
"@@@@@@@@@@@@@@@@@@@@@@@......@@@@@@@@@@@@......@@@@@@@@@@@@@@@@@@@@@@",
"@@@@@@@@@@@@@@@@@@@@@@@......@@@@@@@@@@@@......@@@@@@@@@@@@@@@@@@@@@@",
"@@@@@@@@@@@@@@@@@@@@@@@@@@@@@@@@@@@@@@@@@@@@@@@@@@@@@@@@@@@@@@@@@@@@@",
"@@@@@@@@@@@@@@@@@@@@@@@@@@@@@@@@@@@@@@@@@@@@@@@@@@@@@@@@@@@@@@@@@@@@@",
"@@@@@@@@@@@@@@@@@@@@@@@@@@@@@@@@@@@@@@@@@@@@@@@@@@@@@@@@@@@@@@@@@@@@@",
"@@@@@@@@@@@@@@@@@@@@@@@@@@@@@@@@@@@@@@@@@@@@@@@@@@@@@@@@@@@@@@@@@@@@@",
"@@@@@@@@@@@@@@@@@@@@@@@@@@@@@@@@@@@@@@@@@@@@@@@@@@@@@@@@@@@@@@@@@@@@@",
"     @@@@@@@@@@@@@@@@@@@@@@@@@@@@@@@@@@@@@@@@@@@@@@@@@@@@@@@@@@@@@@@@"
};
