/* XPM */
static char *_1fc863c057f4eedac1f3a263a113873sWYMuh1DfRCRW8w3[] = {
/* columns rows colors chars-per-pixel */
"64 64 5 1 ",
"  c #292A29",
". c #185218",
"X c #097509",
"o c #37C737",
"O c #6C8BFB",
/* pixels */
"OOOOOOOOOOOOOOOOOO                        OOOOOOOOOOOOOOOOOOOOOO",
"OOOOOOOOOOOOOOOOOO                        OOOOOOOOOOOOOOOOOOOOOO",
"OOOOOOOOOOOOOOOOOO                        OOOOOOOOOOOOOOOOOOOOOO",
"OOOOOOOOOOOO      oooooooooooooooooooooooo      OOOOOOOOOOOOOOOO",
"OOOOOOOOOOOO      oooooooooooooooooooooooo      OOOOOOOOOOOOOOOO",
"OOOOOOOOOOOO      oooooooooooooooooooooooo      OOOOOOOOOOOOOOOO",
"OOOOOO      oooooo                        oooooo      OOOOOOOOOO",
"OOOOOO      oooooo                        oooooo      OOOOOOOOOO",
"OOOOOO      oooooo                        oooooo      OOOOOOOOOO",
"OOOOOO   XXXooo                              oooXXX   OOOOOOOOOO",
"OOOOOO   XXXooo                              oooXXX   OOOOOOOOOO",
"OOOOOO   XXXooo                              oooXXX   OOOOOOOOOO",
"OOOOOO   XXXoooooo                        oooXXXXXX   OOOOOOOOOO",
"OOOOOO   XXXoooooo                        oooXXXXXX   OOOOOOOOOO",
"OOOOOO   XXXoooooo                        oooXXXXXX   OOOOOOOOOO",
"OOOOOO   XXXooooooooooooooooooooooooooooooXXXXXXXXX   OOOOOOOOOO",
"OOOOOO   XXXooooooooooooooooooooooooooooooXXXXXXXXX   OOOOOOOOOO",
"OOOOOO   XXXooooooooooooooooooooooooooooooXXXXXXXXX   OOOOOOOOOO",
"OOOOOOOOO      ooo.....................oooXXX      OOOOOOOOOOOOO",
"OOOOOOOOO      ooo.....................oooXXX      OOOOOOOOOOOOO",
"OOOOOOOOO      ooo.....................oooXXX      OOOOOOOOOOOOO",
"OOOOOOOOO   XXX      ..................      XXX   OOOOOOOOOOOOO",
"OOOOOOOOO   XXX      ..................      XXX   OOOOOOOOOOOOO",
"OOOOOOOOO   XXX      ..................      XXX   OOOOOOOOOOOOO",
"OOOOOOOOO   XXXXXXooo                  XXXXXXXXX   OOOOOOOOOOOOO",
"OOOOOOOOO   XXXXXXooo                  XXXXXXXXX   OOOOOOOOOOOOO",
"OOOOOOOOO   XXXXXXooo                  XXXXXXXXX   OOOOOOOOOOOOO",
"OOOOOOOOO   XXXXXXoooooo.........oooXXXXXXXXXXXX   OOOOOOOOOOOOO",
"OOOOOOOOO   XXXXXXoooooo.........oooXXXXXXXXXXXX   OOOOOOOOOOOOO",
"OOOOOOOOO   XXXXXXoooooo.........oooXXXXXXXXXXXX   OOOOOOOOOOOOO",
"OOOOOOOOO   XXXXXXoooooo.........oooXXXXXXXXXXXX   OOOOOOOOOOOOO",
"OOOOOOOOO   XXXXXXoooooo.........oooXXXXXXXXXXXX   OOOOOOOOOOOOO",
"OOOOOOOOO   XXXXXXoooooo.........oooXXXXXXXXXXXX   OOOOOOOOOOOOO",
"OOOOOOOOO   XXXXXXoooooo.........oooXXXXXXXXXXXX   OOOOOOOOOOOOO",
"OOOOOOOOO   XXXXXXoooooo.........oooXXXXXXXXXXXX   OOOOOOOOOOOOO",
"OOOOOOOOO   XXXXXXoooooo.........oooXXXXXXXXXXXX   OOOOOOOOOOOOO",
"OOOOOOOOO   XXXXXXoooooo.........oooXXXXXXXXXXXX   OOOOOOOOOOOOO",
"OOOOOOOOO   XXXXXXoooooo.........oooXXXXXXXXXXXX   OOOOOOOOOOOOO",
"OOOOOOOOO   XXXXXXoooooo.........oooXXXXXXXXXXXX   OOOOOOOOOOOOO",
"OOOOOOOOO   XXXXXXoooooo.........oooXXXXXXXXXXXX   OOOOOOOOOOOOO",
"OOOOOOOOO   XXXXXXoooooo.........oooXXXXXXXXXXXX   OOOOOOOOOOOOO",
"OOOOOOOOO   XXXXXXoooooo.........oooXXXXXXXXXXXX   OOOOOOOOOOOOO",
"OOOOOOOOO   XXXXXXoooooo.........oooXXXXXXXXXXXX   OOOOOOOOOOOOO",
"OOOOOOOOO   XXXXXXoooooo.........oooXXXXXXXXXXXX   OOOOOOOOOOOOO",
"OOOOOOOOO   XXXXXXoooooo.........oooXXXXXXXXXXXX   OOOOOOOOOOOOO",
"OOOOOOOOO   XXXXXXoooooo.........oooXXXXXXXXXXXX   OOOOOOOOOOOOO",
"OOOOOOOOO   XXXXXXoooooo.........oooXXXXXXXXXXXX   OOOOOOOOOOOOO",
"OOOOOOOOO   XXXXXXoooooo.........oooXXXXXXXXXXXX   OOOOOOOOOOOOO",
"OOOOOOOOO   XXXXXXoooooo.........oooXXXXXXXXXXXX   OOOOOOOOOOOOO",
"OOOOOOOOO   XXXXXXoooooo.........oooXXXXXXXXXXXX   OOOOOOOOOOOOO",
"OOOOOOOOO   XXXXXXoooooo.........oooXXXXXXXXXXXX   OOOOOOOOOOOOO",
"OOOOOOOOO   XXXXXXoooooo.........oooXXXXXXXXXXXX   OOOOOOOOOOOOO",
"OOOOOOOOO   XXXXXXoooooo.........oooXXXXXXXXXXXX   OOOOOOOOOOOOO",
"OOOOOOOOO   XXXXXXoooooo.........oooXXXXXXXXXXXX   OOOOOOOOOOOOO",
"OOOOOOOOO   XXXXXXoooooo.........oooXXXXXXXXXXXX   OOOOOOOOOOOOO",
"OOOOOOOOO   XXXXXXoooooo.........oooXXXXXXXXXXXX   OOOOOOOOOOOOO",
"OOOOOOOOO   XXXXXXoooooo.........oooXXXXXXXXXXXX   OOOOOOOOOOOOO",
"OOOOOOOOO   XXXXXXoooooo.........oooXXXXXXXXXXXX   OOOOOOOOOOOOO",
"OOOOOOOOO   XXXXXXoooooo.........oooXXXXXXXXXXXX   OOOOOOOOOOOOO",
"OOOOOOOOO   XXXXXXoooooo.........oooXXXXXXXXXXXX   OOOOOOOOOOOOO",
"OOOOOOOOO   XXXXXXoooooo.........oooXXXXXXXXXXXX   OOOOOOOOOOOOO",
"OOOOOOOOO   XXXXXXoooooo.........oooXXXXXXXXXXXX   OOOOOOOOOOOOO",
"OOOOOOOOO   XXXXXXoooooo.........oooXXXXXXXXXXXX   OOOOOOOOOOOOO",
"OOOOOOOOO   XXXXXXoooooo.........oooXXXXXXXXXXXX   OOOOOOOOOOOOO"
};
