/* XPM */
static char *a9b1b641ab614fbcb75f9ae197bdcc3avs2VVMFeWMf8w4OY[] = {
/* columns rows colors chars-per-pixel */
"64 64 9 1 ",
"  c black",
". c #266933",
"X c gray45",
"o c #0A8221",
"O c #7B9F20",
"+ c #B7B753",
"@ c #E0E044",
"# c #6C8BFB",
"$ c white",
/* pixels */
"#######################   ###   ###   ###   ####################",
"#######################   ###   ###   ###   ####################",
"#######################                     ####################",
"#######################                        #################",
"####################                           #################",
"####################     ++++++++++++++++++++  #################",
"####################     ++++++++++++++++++++     ##############",
"##################    +++++++++++++++++++++++     ##############",
"##################    +++++++++++++++++++++++     ##############",
"##################    ++++++++++++++++++++++++++  ##############",
"################   @@@@++++               ++++++    ############",
"################   @@@@++++               ++++++    ############",
"################   @@@@   +               +++++@@@  ############",
"################   @@@@       ..........       @@@  ############",
"################   @@@@       ..........       @@@  ############",
"################   @@@@    .............       @@@  ############",
"################   @@      ...ooooooooo...     @@@  ############",
"################   @@      ...ooooooooo...     @@@  ############",
"################   @@      oooooooooooo...     @@@  ############",
"################   @    ...ooooooooooooooo...   @@  ############",
"################   @    ...ooooooooooooooo...   @@  ############",
"################   @    ...oooooOOOOoooooo...   @@  ############",
"################   @    ...oooooOOOOoooooo...   @@   ###########",
"################   @    ...ooooOOOOOOooooo...   @@   ###########",
"################   @    ...ooooOOOOOOooooo...   @@   ###########",
"################   @    ...ooooO@@@OOooooo...   @@      ########",
"################   @    ...ooOOO@@@OOOOooo...   @@      ########",
"################        ...ooOOO@@@OOOOooo...   @@      ########",
"########                ...ooOOOOOOOOOOooo...              #####",
"########                ...ooOOOOOOOOOOooo...              #####",
"########                ...ooOOOOOOOOOOooo...              #####",
"#####   XXXXXXXXXXX      ...oOOOOOOOOOOoo...         XXXXXX   ##",
"#####   XXXXXXXXXXX      ...oooOOOOOOoooo...         XXXXXX   ##",
"#####   XXXXXXXXXXX      ...oooOOOOOOoooo...         XXXXXX   ##",
"#####   XXXXXX$$$$$$$$     ...ooooooooo...         XXXXXXXX   ##",
"#####   XXXXXX$$$$$$$$     ...ooooooooo...         XXXXXXXX   ##",
"#####   XXXXXX$$$$$$$$     ...ooooooooo...         XXXXXXXX   ##",
"##   XXXXXXXXX$$$$$$$$$$     ...........     XXXXX$$$$$$XXX   ##",
"##   XXXXXX$$$$$$$$$$$$$     ...........     XXXXX$$$$$$XXX   ##",
"##   XXXXXX$$$$$$$$$$$$$     ...........     XXXXX$$$$$$XXX   ##",
"##   XXX$$$$$$$$$$$$$$$$$$$               $$$$$$$$$$$XXX   #####",
"##   XXX$$$$$$$$$$$$$$$$$$$               $$$$$$$$$$$XXX   #####",
"##   XXX$$$$$$$$$$$$$$$$$$$               $$$$$$$$$$$XXX   #####",
"##   XXXXXXXXX$$$$$$$$$$$$$$$$$$$$$$$$$$$$$$$$$$$$$$$XXX   #####",
"##   XXXXXXXXX$$$$$$$$$$$$$$$$$$$$$$$$$$$$$$$$$$$$$$$XXX   #####",
"##   XXXXXXXXX$$$$$$$$$$$$$$$$$$$$$$$$$$$$$$$$$$$$$$$XXX   #####",
"#####      XXX$$$$$$$$$$$$$$$$$$$$$$$$$$$$$$$$$$$$XXX      #####",
"#####      XXX$$$$$$$$$$$$$$$$$$$$$$$$$$$$$$$$$$$$XXX      #####",
"#####      XXX$$$$$$$$$$$$$$$$$$$$$$$$$$$$$$$$$$$$XXX      #####",
"#####   XXX$$$$$$$$$$$$$$$$$$$$$$$$$$$$$$$$$$$$$$$XXXXXX   #####",
"#####   XXX$$$$$$$$$$$$$$$$$$$$$$$$$$$$$$$$$$$$$$$XXXXXX   #####",
"#####   XXX$$$$$$$$$$$$$$$$$$$$$$$$$$$$$$$$$$$$$$$XXXXXX   #####",
"#####   XXX$$$$$$$$$$$$$$$$$$$$$$$$$$$$$$$$$$$$$$$$$$XXX   #####",
"#####   XXX$$$$$$$$$$$$$$$$$$$$$$$$$$$$$$$$$$$$$$$$$$XXX   #####",
"#####   XXX$$$$$$$$$$$$$$$$$$$$$$$$$$$$$$$$$$$$$$$$$$XXX   #####",
"########   XXX$$$$$$XXXXXXXXXX$$$$$$$XXXXXXXXX$$$$XXX   ########",
"########   XXX$$$$$$XXXXXXXXXX$$$$$$$XXXXXXXXX$$$$XXX   ########",
"########   XXX$$$$$$XXXXXXXXXX$$$$$$$XXXXXXXXX$$$$XXX   ########",
"###########   XXXXXX     XXXXXXXXXXXX    XXXXXXXXX   ###########",
"###########   XXXXXX     XXXXXXXXXXXX    XXXXXXXXX   ###########",
"###########   XXXXXX     XXXXXXXXXXXX    XXXXXXXXX   ###########",
"##############      #####            ####         ##############",
"##############      #####            ####         ##############",
"##############      #####            ####         ##############"
};
