/* XPM */
static char *edf2c6d99e73436dc7c9d53e4e91b629lxwYgsuO7YgrsFQM[] = {
/* columns rows colors chars-per-pixel */
"64 64 7 1 ",
"  c black",
". c gray45",
"X c #0A8221",
"o c #7B9F20",
"O c #E0E044",
"+ c #6C8BFB",
"@ c white",
/* pixels */
"++++++++++++++++++++++++++   +++   +++   +++++++++++++++++++++++",
"++++++++++++++++++++++++++   +++   +++   +++++++++++++++++++++++",
"++++++++++++++++++++++++++               +++++++++++++++++++++++",
"+++++++++++++++++                        +++++++++++++++++++++++",
"+++++++++++++++++                        +++++++++++++++++++++++",
"+++++++++++++++++   OOOOOOOOOOOOOOOOOOO  +++++++++++++++++++++++",
"++++++++++++++      OOOOOOOOOOOOOOOOOOO  +++++++++++++++++++++++",
"++++++++++++++         OOOOO         OO  +++++++++++++++++++++++",
"++++++++++++++         OOOOO          O    +++++++++++++++++++++",
"++++++++++++++                        O    +++++++++++++++++++++",
"++++++++++++     @@@@@@@@   @@@@@@@@  O    +++++++++++++++++++++",
"++++++++++++     @@@@@@@@   @@@@@@@@  OO   +++++++++++++++++++++",
"++++++++++++     @@@   @@   @@   @@@  OO   +++++++++++++++++++++",
"++++++++++++     @@@   @@@@@@@   @@@  OO   +++++++++++++++++++++",
"++++++++++++     @@@   @@@@@@@   @@@  OO   +++++++++++++++++++++",
"++++++++++++     @@@   @@   @@   @@@  OO   +++++++++++++++++++++",
"++++++++++++  OOO   @@@@@     @@@@    OO          ++++++++++++++",
"++++++++++++  OOO   @@@@@     @@@@    OO          ++++++++++++++",
"++++++++++++  OOO   @@@@@     @@@@    OO          ++++++++++++++",
"++++++++++++  OOOOOO     OOOO       OOOOO   XXXooo      ++++++++",
"++++++++++++  OOOOOO     OOOO       OOOOO   XXXooo      ++++++++",
"++++++++++++  OOOOOO     OOOO       OOOOO   XXXooo      ++++++++",
"++++++++++++++   OOOOOOOOOOOOOOOOOOOOOOOO   XXXXXXooo   ++++++++",
"++++++++++++++   O   OOOOOOO   OOOOOOOOOO   XXXXXXooo   ++++++++",
"++++++++++++++   O   OOOOOOO   OOOOOOOOOO   XXXXXXooo   ++++++++",
"+++++++++++   OOOO             OOOOOOO      XXXXXXooo   ++++++++",
"+++++++++++   OOOOOO         OOOOOOOOO      XXXXXXooo   ++++++++",
"+++++++++++   OOOOOO         OOOOOOOOO      XXXXXXooo   ++++++++",
"+++++          OO      OOOOOO               XXXXXXooo   ++++++++",
"+++++          OO      OOOOOO               XXXXXXooo   ++++++++",
"+++++          OO      OOOOOO               XXXXXXooo   ++++++++",
"++   ......   OOOOOO            OOOOOO   .....XXXXXXXXXX   +++++",
"++   ......   OOOOOO            OOOOOO   .....XXXXXXXXXX   +++++",
"++   ......   OOOOOO            OOOOOO   .....XXXXXXXXXX   +++++",
"++   ...@@...         @@@@@@@@@        @@@@@@@@@@@......   +++++",
"++   ...@@...         @@@@@@@@@        @@@@@@@@@@@......   +++++",
"++   ...@@...         @@@@@@@@@        @@@@@@@@@@@......   +++++",
"++   ...@@@@@@@@@@@@@@@@@@@@@@@@@@@@@@@@@@@@@@@@@@...@@@...   ++",
"++   ...@@@@@@@@@@@@@@@@   @@@@@   @@@@@@@@@@@@@@@@@@@@@...   ++",
"++   ...@@@@@@@@@@@@@@@@   @@@@@   @@@@@@@@@@@@@@@@@@@@@...   ++",
"+++++   ...@@@@@@@@@@@@@   @@@@@   @@@@@@@@@@@@@@@@@@@@@...   ++",
"+++++   ...@@@@@@@@@@@@@   @@@@@   @@@@@@@@@@@@@@@@@@@@@...   ++",
"+++++   ...@@@@@@@@@@@@@   @@@@@   @@@@@@@@@@@@@@@@@@@@@...   ++",
"+++++   ...@@@@@@@@@@@@@   @@@@@   @@@@@@@@@@@@@@@@@@......   ++",
"+++++   ...@@@@@@@@@@@@@@@@@@@@@@@@@@@@@@@@@@@@@@@@@@......   ++",
"+++++   ...@@@@@@@@@@@@@@@@@@@@@@@@@@@@@@@@@@@@@@@@@@......   ++",
"+++++      ...@@@@@@@@@@@@@@@@@@@@@@@@@@@@@@@@@@@@...      +++++",
"+++++      ...@@@      @@@@@@@@@@@@        @@@@@@@...      +++++",
"+++++      ...@@@      @@@@@@@@@@@@        @@@@@@@...      +++++",
"+++++   ...@@@@@@      @@@@@@@@@@@@        @@@@@@@@@@...   +++++",
"+++++   ...@@@@@@@@@@@@            @@@@@@@@@@@@@@@@@@...   +++++",
"+++++   ...@@@@@@@@@@@@            @@@@@@@@@@@@@@@@@@...   +++++",
"+++++   ...@@@@@@@@@@@@            @@@@@@@@@@@@@@@@@@...   +++++",
"+++++   ...@@@@@@@@@@@@@@@@@@@@@@@@@@@@@@@@@@@@@@@@@@...   +++++",
"+++++   ...@@@@@@@@@@@@@@@@@@@@@@@@@@@@@@@@@@@@@@@@@@...   +++++",
"++++++++   ...@@@@@@@......@@@@@@@@@@@......@@@@@@...   ++++++++",
"++++++++   ...@@@@@@@......@@@@@@@@@@@......@@@@@@...   ++++++++",
"++++++++   ...@@@@@@@......@@@@@@@@@@@......@@@@@@...   ++++++++",
"+++++++++++   .........    ............     ......   +++++++++++",
"+++++++++++   .........    ............     ......   +++++++++++",
"+++++++++++   .........    ............     ......   +++++++++++",
"++++++++++++++         ++++            +++++      ++++++++++++++",
"++++++++++++++         ++++            +++++      ++++++++++++++",
"++++++++++++++         ++++            +++++      ++++++++++++++"
};
