/* XPM */
static char *_4f8e60a24b247e7f09488ef611085e7JaRHCUKpB2lUAzYO[] = {
/* columns rows colors chars-per-pixel */
"64 64 5 1 ",
"  c black",
". c gray45",
"X c #E0E044",
"o c #6C8BFB",
"O c white",
/* pixels */
"ooooooooooooooooooooooooooooo   ooo   ooo   oooooooooooooooooooo",
"ooooooooooooooooooooooooooooo   ooo   ooo   oooooooooooooooooooo",
"ooooooooooooooooooooooo               ooo   oooooooooooooooooooo",
"ooooooooooooooooooooooo                        ooooooooooooooooo",
"oooooooooooooooooooo                           ooooooooooooooooo",
"oooooooooooooooooooo     XXXXXXXXXXXXXXXXXXXX  ooooooooooooooooo",
"oooooooooooooooooooo     XXXXXXXXXXXXXXXXXXXX     oooooooooooooo",
"oooooooooooooooooo    XXXXX               XXX     oooooooooooooo",
"oooooooooooooooooo    XXXX                        oooooooooooooo",
"oooooooooooooooooo    XXXX                   XXX  oooooooooooooo",
"oooooooooooooooo   XXXX   OOOOOOOOOOOOOOOOOO XXX    oooooooooooo",
"oooooooooooooooo   XXXX   OOOOOOOOOOOOOOOOOO XXX    oooooooooooo",
"oooooooooooooooo   XXXX   OOOO   OOOO   OOOO   XXX  oooooooooooo",
"oooooooooooooooo   XXXX   OOOO   OOOO   OOOO   XXX  oooooooooooo",
"oooooooooooooooo   XXXX   OOOO   OOOO   OOOO   XXX  oooooooooooo",
"oooooooooooooooo   XXXX   OOOO   OOOO   OOOO   XXX  oooooooooooo",
"oooooooooooooooo   XXXX    OOO   O  O   OOOO   XXX  oooooooooooo",
"oooooooooooooooo   XXXX    OOOOOOO  OOOOOOOO   XXX  oooooooooooo",
"oooooooooooooooo   XXXX    OOOOOOO  OOOOOOOO   XXX  oooooooooooo",
"oooooooooooooooo   XXXXXX                   XXXXXX  oooooooooooo",
"oooooooooooooooo   XXXXXX                   XXXXXX  oooooooooooo",
"oooooooooooooooo   XXXXXX                   XXXXXX  oooooooooooo",
"oooooooooooooooo   XXXXXXXXXXXXXXXXXXXXXXXXXXXXXXX   ooooooooooo",
"oooooooooooooooo   XXXXXXXXXXXX   XXXX   XXXXXXXXX   ooooooooooo",
"oooooooooooooooo   XXXXXXXXXXXX          XXXXXXXXX   ooooooooooo",
"oooooooooooooooo   XXXXXXXXXXXX          XXXXXXXXX      oooooooo",
"oooooooooooooooo   XXXXXXXXXXXXXX      XXXXXXXXXXX      oooooooo",
"oooooooooooooooo          XXXXXXXXXXXXXXXXXXXXXXXX      oooooooo",
"oooooooo                           XXXX                    ooooo",
"oooooooo                           XXXX                    ooooo",
"oooooooo                           XXXX                    ooooo",
"ooooo   ...........   XXXXXXX             XXXXX      ......   oo",
"ooooo   ...........   XXXXXXX             XXXXX      ......   oo",
"ooooo   ...........   XXXXXXX             XXXXX      ......   oo",
"ooooo   ......OOOOOOOO           OOOOOO            ...OO...   oo",
"ooooo   ......OOOOOOOO           OOOOOO            ...OO...   oo",
"ooooo   ......OOOOOOOO           OOOOOO            ...OO...   oo",
"oo   ...OOO...OOOOOOOOOOOOOOOOOOOOOOOOOOOOOOOOOOOOOOOOOO...   oo",
"oo   ...OOOOOOOOOOOOOOOOOOOOO   OOOOO   OOOOOOOOOOOOOOOO...   oo",
"oo   ...OOOOOOOOOOOOOOOOOOOOO   OOOOO   OOOOOOOOOOOOOOOO...   oo",
"oo   ...OOOOOOOOOOOOOOOOOOOOO   OOOOO   OOOOOOOOOOOOO...   ooooo",
"oo   ...OOOOOOOOOOOOOOOOOOOOO   OOOOO   OOOOOOOOOOOOO...   ooooo",
"oo   ...OOOOOOOOOOOOOOOOOOOOO   OOOOO   OOOOOOOOOOOOO...   ooooo",
"oo   ......OOOOOOOOOOOOOOOOOO   OOOOO   OOOOOOOOOOOOO...   ooooo",
"oo   ......OOOOOOOOOOOOOOOOOOOOOOOOOOOOOOOOOOOOOOOOOO...   ooooo",
"oo   ......OOOOOOOOOOOOOOOOOOOOOOOOOOOOOOOOOOOOOOOOOO...   ooooo",
"ooooo      ...OOOOOOOOOOOOOOOOOOOOOOOOOOOOOOOOOOOO...      ooooo",
"ooooo      ...OOOOOOO        OOOOOOOOOOOO      OOO...      ooooo",
"ooooo      ...OOOOOOO        OOOOOOOOOOOO      OOO...      ooooo",
"ooooo   ...OOOOOOOOOO        OOOOOOOOOOOO      OOOOOO...   ooooo",
"ooooo   ...OOOOOOOOOOOOOOOOOO            OOOOOOOOOOOO...   ooooo",
"ooooo   ...OOOOOOOOOOOOOOOOOO            OOOOOOOOOOOO...   ooooo",
"ooooo   ...OOOOOOOOOOOOOOOOOO            OOOOOOOOOOOO...   ooooo",
"ooooo   ...OOOOOOOOOOOOOOOOOOOOOOOOOOOOOOOOOOOOOOOOOO...   ooooo",
"ooooo   ...OOOOOOOOOOOOOOOOOOOOOOOOOOOOOOOOOOOOOOOOOO...   ooooo",
"oooooooo   ...OOOOOO......OOOOOOOOOOO......OOOOOOO...   oooooooo",
"oooooooo   ...OOOOOO......OOOOOOOOOOO......OOOOOOO...   oooooooo",
"oooooooo   ...OOOOOO......OOOOOOOOOOO......OOOOOOO...   oooooooo",
"ooooooooooo   ......     ............    .........   ooooooooooo",
"ooooooooooo   ......     ............    .........   ooooooooooo",
"ooooooooooo   ......     ............    .........   ooooooooooo",
"oooooooooooooo      ooooo            oooo         oooooooooooooo",
"oooooooooooooo      ooooo            oooo         oooooooooooooo",
"oooooooooooooo      ooooo            oooo         oooooooooooooo"
};
