/* XPM */
static char *_d2cd265f43c4b83ef00c8e5b73d4134qLuzuvi6qR6gm6LX[] = {
/* columns rows colors chars-per-pixel */
"64 64 7 1 ",
"  c black",
". c gray45",
"X c #0A8221",
"o c #7B9F20",
"O c #E0E044",
"+ c #6C8BFB",
"@ c white",
/* pixels */
"+++++++++++++++++++++++   +++   +++   ++++++++++++++++++++++++++",
"+++++++++++++++++++++++   +++   +++   ++++++++++++++++++++++++++",
"+++++++++++++++++++++++               ++++++++++++++++++++++++++",
"+++++++++++++++++++++++                        +++++++++++++++++",
"+++++++++++++++++++++++                        +++++++++++++++++",
"+++++++++++++++++++++++  OOOOOOOOOOOOOOOOOOO   +++++++++++++++++",
"+++++++++++++++++++++++  OOOOOOOOOOOOOOOOOOO      ++++++++++++++",
"+++++++++++++++++++++++  OO         OOOOO         ++++++++++++++",
"+++++++++++++++++++++    O          OOOOO         ++++++++++++++",
"+++++++++++++++++++++    O                        ++++++++++++++",
"+++++++++++++++++++++    O  @@@@@@@@   @@@@@@@@     ++++++++++++",
"+++++++++++++++++++++   OO  @@@@@@@@   @@@@@@@@     ++++++++++++",
"+++++++++++++++++++++   OO  @@@   @@   @@   @@@     ++++++++++++",
"+++++++++++++++++++++   OO  @@@   @@@@@@@   @@@     ++++++++++++",
"+++++++++++++++++++++   OO  @@@   @@@@@@@   @@@     ++++++++++++",
"+++++++++++++++++++++   OO  @@@   @@   @@   @@@     ++++++++++++",
"++++++++++++++          OO    @@@@     @@@@@   OOO  ++++++++++++",
"++++++++++++++          OO    @@@@     @@@@@   OOO  ++++++++++++",
"++++++++++++++          OO    @@@@     @@@@@   OOO  ++++++++++++",
"++++++++      oooXXX   OOOOO       OOOO     OOOOOO  ++++++++++++",
"++++++++      oooXXX   OOOOO       OOOO     OOOOOO  ++++++++++++",
"++++++++      oooXXX   OOOOO       OOOO     OOOOOO  ++++++++++++",
"++++++++   oooXXXXXX   OOOOOOOOOOOOOOOOOOOOOOOO   ++++++++++++++",
"++++++++   oooXXXXXX   OOOOOOOOOO   OOOOOOO   O   ++++++++++++++",
"++++++++   oooXXXXXX   OOOOOOOOOO   OOOOOOO   O   ++++++++++++++",
"++++++++   oooXXXXXX      OOOOOOO             OOOO   +++++++++++",
"++++++++   oooXXXXXX      OOOOOOOOO         OOOOOO   +++++++++++",
"++++++++   oooXXXXXX      OOOOOOOOO         OOOOOO   +++++++++++",
"++++++++   oooXXXXXX               OOOOOO      OO          +++++",
"++++++++   oooXXXXXX               OOOOOO      OO          +++++",
"++++++++   oooXXXXXX               OOOOOO      OO          +++++",
"+++++   XXXXXXXXXX.....   OOOOOO            OOOOOO   ......   ++",
"+++++   XXXXXXXXXX.....   OOOOOO            OOOOOO   ......   ++",
"+++++   XXXXXXXXXX.....   OOOOOO            OOOOOO   ......   ++",
"+++++   ......@@@@@@@@@@@        @@@@@@@@@         ...@@...   ++",
"+++++   ......@@@@@@@@@@@        @@@@@@@@@         ...@@...   ++",
"+++++   ......@@@@@@@@@@@        @@@@@@@@@         ...@@...   ++",
"++   ...@@@...@@@@@@@@@@@@@@@@@@@@@@@@@@@@@@@@@@@@@@@@@@...   ++",
"++   ...@@@@@@@@@@@@@@@@@@@@@   @@@@@   @@@@@@@@@@@@@@@@...   ++",
"++   ...@@@@@@@@@@@@@@@@@@@@@   @@@@@   @@@@@@@@@@@@@@@@...   ++",
"++   ...@@@@@@@@@@@@@@@@@@@@@   @@@@@   @@@@@@@@@@@@@...   +++++",
"++   ...@@@@@@@@@@@@@@@@@@@@@   @@@@@   @@@@@@@@@@@@@...   +++++",
"++   ...@@@@@@@@@@@@@@@@@@@@@   @@@@@   @@@@@@@@@@@@@...   +++++",
"++   ......@@@@@@@@@@@@@@@@@@   @@@@@   @@@@@@@@@@@@@...   +++++",
"++   ......@@@@@@@@@@@@@@@@@@@@@@@@@@@@@@@@@@@@@@@@@@...   +++++",
"++   ......@@@@@@@@@@@@@@@@@@@@@@@@@@@@@@@@@@@@@@@@@@...   +++++",
"+++++      ...@@@@@@@@@@@@@@@@@@@@@@@@@@@@@@@@@@@@...      +++++",
"+++++      ...@@@@@@@        @@@@@@@@@@@@      @@@...      +++++",
"+++++      ...@@@@@@@        @@@@@@@@@@@@      @@@...      +++++",
"+++++   ...@@@@@@@@@@        @@@@@@@@@@@@      @@@@@@...   +++++",
"+++++   ...@@@@@@@@@@@@@@@@@@            @@@@@@@@@@@@...   +++++",
"+++++   ...@@@@@@@@@@@@@@@@@@            @@@@@@@@@@@@...   +++++",
"+++++   ...@@@@@@@@@@@@@@@@@@            @@@@@@@@@@@@...   +++++",
"+++++   ...@@@@@@@@@@@@@@@@@@@@@@@@@@@@@@@@@@@@@@@@@@...   +++++",
"+++++   ...@@@@@@@@@@@@@@@@@@@@@@@@@@@@@@@@@@@@@@@@@@...   +++++",
"++++++++   ...@@@@@@......@@@@@@@@@@@......@@@@@@@...   ++++++++",
"++++++++   ...@@@@@@......@@@@@@@@@@@......@@@@@@@...   ++++++++",
"++++++++   ...@@@@@@......@@@@@@@@@@@......@@@@@@@...   ++++++++",
"+++++++++++   ......     ............    .........   +++++++++++",
"+++++++++++   ......     ............    .........   +++++++++++",
"+++++++++++   ......     ............    .........   +++++++++++",
"++++++++++++++      +++++            ++++         ++++++++++++++",
"++++++++++++++      +++++            ++++         ++++++++++++++",
"++++++++++++++      +++++            ++++         ++++++++++++++"
};
