/* XPM */
static char *d3c9810f7cab4ca9f006426a567b1851I7L3WECFEazAu19s[] = {
/* columns rows colors chars-per-pixel */
"64 64 5 1 ",
"  c #4E3C3A",
". c #48364E",
"X c #5F4269",
"o c #D65846",
"O c #E1796A",
/* pixels */
"XXXOOOOOOOOOOOOOOOOOOOOOOOOOOOXXXOOOOOOOOOOOOOOOOOOOOOOOOOOOOOOO",
"XXXOOOOOOOOOOOOOOOOOOOOOOOOOOOXXXOOOOOOOOOOOOOOOOOOOOOOOOOOOOOOO",
"XXXOOOOOOOOOOOOOOOOOOOOOOOOOOOXXXOOOOOOOOOOOOOOOOOOOOOOOOOOOOOOO",
"   ooooooooooooooooooooooooooo...ooooooooooooooooooooooooooooOOO",
"   ooooooooooooooooooooooooooo...ooooooooooooooooooooooooooooOOO",
"   ooooooooooooooooooooooooooo...ooooooooooooooooooooooooooooOOO",
"   ooooooooooooooooooooooooooo...ooooooooooooooooooooooooooooOOO",
"   ooooooooooooooooooooooooooo...ooooooooooooooooooooooooooooOOO",
"   ooooooooooooooooooooooooooo...ooooooooooooooooooooooooooooOOO",
"   ooooooooooooooooooooooooooo...ooooooooooooooooooooooooooooOOO",
"   ooooooooooooooooooooooooooo...ooooooooooooooooooooooooooooOOO",
"   ooooooooooooooooooooooooooo...ooooooooooooooooooooooooooooOOO",
"   ooooooooooooooooooooooooooo...ooooooooooooooooooooooooooooOOO",
"   ooooooooooooooooooooooooooo...ooooooooooooooooooooooooooooOOO",
"   ooooooooooooooooooooooooooo...ooooooooooooooooooooooooooooOOO",
"   ooooooooooooooooooooooooooo...ooooooooooooooooooooooooooooOOO",
"   ooooooooooooooooooooooooooo...ooooooooooooooooooooooooooooOOO",
"   ooooooooooooooooooooooooooo...ooooooooooooooooooooooooooooOOO",
"   ..........................................................XXX",
"   ..........................................................XXX",
"   ..........................................................XXX",
"   OOOOOOO...OOOOOOOOOOOOOOOOOOOOOOOOOOOOOOOOOOOOO...OOOOOOOOOOO",
"   OOOOOOO...OOOOOOOOOOOOOOOOOOOOOOOOOOOOOOOOOOOOO...OOOOOOOOOOO",
"   OOOOOOO...OOOOOOOOOOOOOOOOOOOOOOOOOOOOOOOOOOOOO...OOOOOOOOOOO",
"   ooooooo...ooooooooooooooooooooooooooooooooooooo...ooooooooOOO",
"   ooooooo...ooooooooooooooooooooooooooooooooooooo...ooooooooOOO",
"   ooooooo...ooooooooooooooooooooooooooooooooooooo...ooooooooOOO",
"   ooooooo...ooooooooooooooooooooooooooooooooooooo...ooooooooOOO",
"   ooooooo...ooooooooooooooooooooooooooooooooooooo...ooooooooOOO",
"   ooooooo...ooooooooooooooooooooooooooooooooooooo...ooooooooOOO",
"   ooooooo...ooooooooooooooooooooooooooooooooooooo...ooooooooOOO",
"   ooooooo...ooooooooooooooooooooooooooooooooooooo...ooooooooOOO",
"   ooooooo...ooooooooooooooooooooooooooooooooooooo...ooooooooOOO",
"   ooooooo...ooooooooooooooooooooooooooooooooooooo...ooooooooOOO",
"   ooooooo...ooooooooooooooooooooooooooooooooooooo...ooooooooOOO",
"   ooooooo...ooooooooooooooooooooooooooooooooooooo...ooooooooOOO",
"   ooooooo...ooooooooooooooooooooooooooooooooooooo...ooooooooOOO",
"   ooooooo...ooooooooooooooooooooooooooooooooooooo...ooooooooOOO",
"   ooooooo...ooooooooooooooooooooooooooooooooooooo...ooooooooOOO",
"   ooooooo...ooooooooooooooooooooooooooooooooooooo...ooooooooOOO",
"   ooooooo...ooooooooooooooooooooooooooooooooooooo...ooooooooOOO",
"   ooooooo...ooooooooooooooooooooooooooooooooooooo...ooooooooOOO",
"   ooooooo...ooooooooooooooooooooooooooooooooooooo...ooooooooOOO",
"   ..........................................................XXX",
"   ..........................................................XXX",
"   ..........................................................XXX",
"   OOOOOOOOOOOOOOOOOOOOOOOOOOO...OOOOOOOOOOOOOOOOOOOOOOOOOOOOOOO",
"   OOOOOOOOOOOOOOOOOOOOOOOOOOO...OOOOOOOOOOOOOOOOOOOOOOOOOOOOOOO",
"   OOOOOOOOOOOOOOOOOOOOOOOOOOO...OOOOOOOOOOOOOOOOOOOOOOOOOOOOOOO",
"   ooooooooooooooooooooooooooo...ooooooooooooooooooooooooooooOOO",
"   ooooooooooooooooooooooooooo...ooooooooooooooooooooooooooooOOO",
"   ooooooooooooooooooooooooooo...ooooooooooooooooooooooooooooOOO",
"   ooooooooooooooooooooooooooo...ooooooooooooooooooooooooooooOOO",
"   ooooooooooooooooooooooooooo...ooooooooooooooooooooooooooooOOO",
"   ooooooooooooooooooooooooooo...ooooooooooooooooooooooooooooOOO",
"   ooooooooooooooooooooooooooo...ooooooooooooooooooooooooooooOOO",
"   ooooooooooooooooooooooooooo...ooooooooooooooooooooooooooooOOO",
"   ooooooooooooooooooooooooooo...ooooooooooooooooooooooooooooOOO",
"   ooooooooooooooooooooooooooo...ooooooooooooooooooooooooooooOOO",
"   ooooooooooooooooooooooooooo...ooooooooooooooooooooooooooooOOO",
"   ooooooooooooooooooooooooooo...ooooooooooooooooooooooooooooOOO",
"                                                             XXX",
"                                                             XXX",
"                                                             XXX"
};
