/* XPM */
static char *fd02bd85d4f24b3f9c91fa56572c2e08mDqtkAaBcqLhQBT1[] = {
/* columns rows colors chars-per-pixel */
"64 64 3 1 ",
"  c black",
". c #CD1E38",
"X c white",
/* pixels */
"................................................................",
"................................................................",
"................................................................",
"................................................................",
"................................................................",
"................................................................",
"................................................................",
"................................................................",
"................................................................",
"................................................................",
"................................................................",
"................................................................",
"................................................................",
"................................................................",
"................................................................",
"................................................................",
"................................................................",
"................................................................",
"................................................................",
"................................................................",
"................................................................",
"................................................................",
"................................................................",
"................................................................",
"................................................................",
"................................................................",
"................................................................",
"................................................................",
"................................................................",
"................................................................",
"................................................................",
"................................................................",
"................................................................",
"................................................................",
"................................................................",
"................................................................",
"................................................................",
"................................................................",
"................................................................",
"................................................................",
"................................................................",
"..............XXXXXX..........................XXXXXX............",
"..............XXXXXX..........................XXXXXX............",
"..............XXXXXX..........................XXXXXX............",
"..............XXXXXXXXXXXX..............XXXXXXXXXXXX............",
"..............XXXX   XXXXX..............XXXXX   XXXX............",
"..............XXXX   XXXXX..............XXXXX   XXXX............",
".................X   XXXXXXXX........XXXXXXXX   X...............",
".................XXX      XXX........XXX      XXX...............",
".................XXX      XXX........XXX      XXX...............",
".................XXX      XXX........XXX      XXX...............",
".................XXXXXXXXXXXX........XXXXXXXXXXXX...............",
".................XXXXXXXXXXXX........XXXXXXXXXXXX...............",
"................................................................",
"................................................................",
"................................................................",
"................................................................",
"................................................................",
"................................................................",
"................................................................",
"................................................................",
"................................................................",
"................................................................",
"................................................................"
};
