/* XPM */
static char *_3751db145d840589c84400adc311b27RklSNXurMh2xvIaf[] = {
/* columns rows colors chars-per-pixel */
"64 64 3 1 ",
"  c black",
". c #CD1E38",
"X c white",
/* pixels */
"................................................................",
"................................................................",
"................................................................",
"................................................................",
"................................................................",
"................................................................",
"................................................................",
"................................................................",
"................................................................",
"................................................................",
"................................................................",
"...............XXXXXXXXXXXX........XXXXXXXXXXXX.................",
"...............XXXXXXXXXXXX........XXXXXXXXXXXX.................",
"...............XXX      XXX........XXX      XXX.................",
"...............XXX      XXX........XXX      XXX.................",
"...............XXX      XXX........XXX      XXX.................",
"...............X   XXXXXXXX........XXXXXXXX   X.................",
"............XXXX   XXXXX..............XXXXX   XXXX..............",
"............XXXX   XXXXX..............XXXXX   XXXX..............",
"............XXXXXXXXXXXX..............XXXXXXXXXXXX..............",
"............XXXXXX..........................XXXXXX..............",
"............XXXXXX..........................XXXXXX..............",
"............XXXXXX..........................XXXXXX..............",
"................................................................",
"................................................................",
"................................................................",
"................................................................",
"................................................................",
"................................................................",
"................................................................",
"................................................................",
"................................................................",
"................................................................",
"................................................................",
"................................................................",
"................................................................",
"................................................................",
"................................................................",
"................................................................",
"................................................................",
"................................................................",
"................................................................",
"................................................................",
"................................................................",
"................................................................",
"................................................................",
"................................................................",
"................................................................",
"................................................................",
"................................................................",
"................................................................",
"................................................................",
"................................................................",
"................................................................",
"................................................................",
"................................................................",
"................................................................",
"................................................................",
"................................................................",
"................................................................",
"................................................................",
"................................................................",
"................................................................",
"................................................................"
};
