/* XPM */
static char *b186e92053f4400ddea0a237063b92516l6enJ7Pfr1Y2eS3[] = {
/* columns rows colors chars-per-pixel */
"64 64 3 1 ",
"  c black",
". c #CD1E38",
"X c white",
/* pixels */
"................................................................",
"................................................................",
"................................................................",
"................................................................",
"................................................................",
"................................................................",
"................................................................",
"................................................................",
"................................................................",
"................................................................",
"................................................................",
"................................................................",
"................................................................",
"................................................................",
".................XXXXXX.........................................",
".................XXXXXX.........................................",
".................XXXXXX.........................................",
"...........XXXXXXXXXXXX.........................................",
"...........XXXXX   XXXX.........................................",
"...........XXXXX   XXXX.........................................",
"...........XX      X............................................",
"...........XX   XXXX............................................",
"...........XX   XXXX............................................",
"...........XX   XXXX............................................",
"...........XX   XXXX............................................",
"...........XX   XXXX............................................",
"...........XXXXXX...............................................",
"...........XXXXXX...............................................",
"...........XXXXXX...............................................",
"................................................................",
"................................................................",
"................................................................",
"................................................................",
"................................................................",
"................................................................",
"................................................................",
"................................................................",
"...........XXXXXX...............................................",
"...........XXXXXX...............................................",
"...........XXXXXX...............................................",
"...........XX   XXXX............................................",
"...........XX   XXXX............................................",
"...........XX   XXXX............................................",
"...........XX   XXXX............................................",
"...........XX   XXXX............................................",
"...........XX      X............................................",
"...........XXXXX   XXXX.........................................",
"...........XXXXX   XXXX.........................................",
"...........XXXXXXXXXXXX.........................................",
".................XXXXXX.........................................",
".................XXXXXX.........................................",
".................XXXXXX.........................................",
"................................................................",
"................................................................",
"................................................................",
"................................................................",
"................................................................",
"................................................................",
"................................................................",
"................................................................",
"................................................................",
"................................................................",
"................................................................",
"................................................................"
};
