/* XPM */
static char *_e6d84eb73d94ae2b2be343bed97febcH6ONfPqNRKkafa3u[] = {
/* columns rows colors chars-per-pixel */
"64 64 3 1 ",
"  c black",
". c #CD1E38",
"X c white",
/* pixels */
"................................................................",
"................................................................",
"................................................................",
"................................................................",
"................................................................",
"................................................................",
"................................................................",
"................................................................",
"................................................................",
"................................................................",
"................................................................",
"................................................................",
".........................................XXXXXX.................",
".........................................XXXXXX.................",
".........................................XXXXXX.................",
".........................................XXXXXXXXXXXX...........",
".........................................XXXX   XXXXX...........",
".........................................XXXX   XXXXX...........",
"............................................X      XX...........",
"............................................XXXX   XX...........",
"............................................XXXX   XX...........",
"............................................XXXX   XX...........",
"............................................XXXX   XX...........",
"............................................XXXX   XX...........",
"...............................................XXXXXX...........",
"...............................................XXXXXX...........",
"...............................................XXXXXX...........",
"................................................................",
"................................................................",
"................................................................",
"................................................................",
"................................................................",
"................................................................",
"................................................................",
"................................................................",
"...............................................XXXXXX...........",
"...............................................XXXXXX...........",
"...............................................XXXXXX...........",
"............................................XXXX   XX...........",
"............................................XXXX   XX...........",
"............................................XXXX   XX...........",
"............................................XXXX   XX...........",
"............................................XXXX   XX...........",
"............................................X      XX...........",
".........................................XXXX   XXXXX...........",
".........................................XXXX   XXXXX...........",
".........................................XXXXXXXXXXXX...........",
".........................................XXXXXX.................",
".........................................XXXXXX.................",
".........................................XXXXXX.................",
"................................................................",
"................................................................",
"................................................................",
"................................................................",
"................................................................",
"................................................................",
"................................................................",
"................................................................",
"................................................................",
"................................................................",
"................................................................",
"................................................................",
"................................................................",
"................................................................"
};
