/* XPM */
static char *_4902c59fe594a60aa605ee66ef8e3709SliNdJAwy3xTV0J[] = {
/* columns rows colors chars-per-pixel */
"64 64 3 1 ",
"  c black",
". c #4044AE",
"X c white",
/* pixels */
"................................................................",
"................................................................",
"................................................................",
"................................................................",
"................................................................",
"................................................................",
"................................................................",
"................................................................",
"................................................................",
"................................................................",
"................................................................",
"................................................................",
"................................................................",
"................................................................",
"................................................................",
"................................................................",
"................................................................",
"...........XXXXXXXXXXXX.........................................",
"...........XXXXXXXXXXXX.........................................",
"...........XXXXXXXXXXXX.........................................",
"...........XX   XXXXXXX.........................................",
"...........XX   XXXXXXX.........................................",
"...........XX   XXXXXXX.........................................",
"...........XX   XXXXXXX.........................................",
"...........XX   XXXXXXX.........................................",
"...........XX   XXXXXXX.........................................",
"...........XXXXXXXXXXXX.........................................",
"...........XXXXXXXXXXXX.........................................",
"...........XXXXXXXXXXXX.........................................",
"................................................................",
"................................................................",
"................................................................",
"................................................................",
"................................................................",
"................................................................",
"................................................................",
"................................................................",
"...........XXXXXXXXXXXX.........................................",
"...........XXXXXXXXXXXX.........................................",
"...........XXXXXXXXXXXX.........................................",
"...........XX   XXXXXXX.........................................",
"...........XX   XXXXXXX.........................................",
"...........XX   XXXXXXX.........................................",
"...........XX   XXXXXXX.........................................",
"...........XX   XXXXXXX.........................................",
"...........XX   XXXXXXX.........................................",
"...........XXXXXXXXXXXX.........................................",
"...........XXXXXXXXXXXX.........................................",
"...........XXXXXXXXXXXX.........................................",
"................................................................",
"................................................................",
"................................................................",
"................................................................",
"................................................................",
"................................................................",
"................................................................",
"................................................................",
"................................................................",
"................................................................",
"................................................................",
"................................................................",
"................................................................",
"................................................................",
"................................................................"
};
