/* XPM */
static char *f360788860b0487f8c79656206c0014bXPnt1jlWFWq7eeFW[] = {
/* columns rows colors chars-per-pixel */
"64 64 3 1 ",
"  c black",
". c #4044AE",
"X c white",
/* pixels */
"................................................................",
"................................................................",
"................................................................",
"................................................................",
"................................................................",
"................................................................",
"................................................................",
"................................................................",
"................................................................",
"................................................................",
"................................................................",
".................XXXXXXXXXXXX........XXXXXXXXXXXX...............",
".................XXXXXXXXXXXX........XXXXXXXXXXXX...............",
".................XXX      XXX........XXX      XXX...............",
".................XXX      XXX........XXX      XXX...............",
".................XXX      XXX........XXX      XXX...............",
".................XXXXXXXXXXXX........XXXXXXXXXXXX...............",
".................XXXXXXXXXXXX........XXXXXXXXXXXX...............",
".................XXXXXXXXXXXX........XXXXXXXXXXXX...............",
".................XXXXXXXXXXXX........XXXXXXXXXXXX...............",
".................XXXXXXXXXXXX........XXXXXXXXXXXX...............",
".................XXXXXXXXXXXX........XXXXXXXXXXXX...............",
".................XXXXXXXXXXXX........XXXXXXXXXXXX...............",
"................................................................",
"................................................................",
"................................................................",
"................................................................",
"................................................................",
"................................................................",
"................................................................",
"................................................................",
"................................................................",
"................................................................",
"................................................................",
"................................................................",
"................................................................",
"................................................................",
"................................................................",
"................................................................",
"................................................................",
"................................................................",
"................................................................",
"................................................................",
"................................................................",
"................................................................",
"................................................................",
"................................................................",
"................................................................",
"................................................................",
"................................................................",
"................................................................",
"................................................................",
"................................................................",
"................................................................",
"................................................................",
"................................................................",
"................................................................",
"................................................................",
"................................................................",
"................................................................",
"................................................................",
"................................................................",
"................................................................",
"................................................................"
};
