/* XPM */
static char *b43667a0203a4b82e163a93104c14212aNPXqYjKcF2kFx2S[] = {
/* columns rows colors chars-per-pixel */
"64 64 3 1 ",
"  c black",
". c #4044AE",
"X c white",
/* pixels */
"................................................................",
"................................................................",
"................................................................",
"................................................................",
"................................................................",
"................................................................",
"................................................................",
"................................................................",
"................................................................",
"................................................................",
"................................................................",
"................................................................",
"................................................................",
"................................................................",
"................................................................",
"................................................................",
"................................................................",
".........................................XXXXXXXXXXXX...........",
".........................................XXXXXXXXXXXX...........",
".........................................XXXXXXXXXXXX...........",
".........................................XXXXXXX   XX...........",
".........................................XXXXXXX   XX...........",
".........................................XXXXXXX   XX...........",
".........................................XXXXXXX   XX...........",
".........................................XXXXXXX   XX...........",
".........................................XXXXXXX   XX...........",
".........................................XXXXXXXXXXXX...........",
".........................................XXXXXXXXXXXX...........",
".........................................XXXXXXXXXXXX...........",
"................................................................",
"................................................................",
"................................................................",
"................................................................",
"................................................................",
"................................................................",
"................................................................",
"................................................................",
".........................................XXXXXXXXXXXX...........",
".........................................XXXXXXXXXXXX...........",
".........................................XXXXXXXXXXXX...........",
".........................................XXXXXXX   XX...........",
".........................................XXXXXXX   XX...........",
".........................................XXXXXXX   XX...........",
".........................................XXXXXXX   XX...........",
".........................................XXXXXXX   XX...........",
".........................................XXXXXXX   XX...........",
".........................................XXXXXXXXXXXX...........",
".........................................XXXXXXXXXXXX...........",
".........................................XXXXXXXXXXXX...........",
"................................................................",
"................................................................",
"................................................................",
"................................................................",
"................................................................",
"................................................................",
"................................................................",
"................................................................",
"................................................................",
"................................................................",
"................................................................",
"................................................................",
"................................................................",
"................................................................",
"................................................................"
};
