/* XPM */
static char *_a50c181076845dc8959299d95d1a539lN3WkgCQ81xH5zLO[] = {
/* columns rows colors chars-per-pixel */
"64 64 3 1 ",
"  c black",
". c #4044AE",
"X c white",
/* pixels */
"................................................................",
"................................................................",
"................................................................",
"................................................................",
"................................................................",
"................................................................",
"................................................................",
"................................................................",
"................................................................",
"................................................................",
"................................................................",
"................................................................",
"................................................................",
"................................................................",
"................................................................",
"................................................................",
"................................................................",
"................................................................",
"................................................................",
"................................................................",
"................................................................",
"................................................................",
"................................................................",
"................................................................",
"................................................................",
"................................................................",
"................................................................",
"................................................................",
"................................................................",
"................................................................",
"................................................................",
"................................................................",
"................................................................",
"................................................................",
"................................................................",
"................................................................",
"................................................................",
"................................................................",
"................................................................",
"................................................................",
"................................................................",
".................XXXXXXXXXXXX........XXXXXXXXXXXX...............",
".................XXXXXXXXXXXX........XXXXXXXXXXXX...............",
".................XXXXXXXXXXXX........XXXXXXXXXXXX...............",
".................XXXXXXXXXXXX........XXXXXXXXXXXX...............",
".................XXXXXXXXXXXX........XXXXXXXXXXXX...............",
".................XXXXXXXXXXXX........XXXXXXXXXXXX...............",
".................XXXXXXXXXXXX........XXXXXXXXXXXX...............",
".................XXX      XXX........XXX      XXX...............",
".................XXX      XXX........XXX      XXX...............",
".................XXX      XXX........XXX      XXX...............",
".................XXXXXXXXXXXX........XXXXXXXXXXXX...............",
".................XXXXXXXXXXXX........XXXXXXXXXXXX...............",
"................................................................",
"................................................................",
"................................................................",
"................................................................",
"................................................................",
"................................................................",
"................................................................",
"................................................................",
"................................................................",
"................................................................",
"................................................................"
};
